<svg version="1.1" xmlns="http://www.w3.org/2000/svg" viewBox="0 0 739.7083333333335 497.9999999999999" width="739.7083333333335" height="497.9999999999999">
  <!-- svg-source:excalidraw -->
  
  <defs>
    <style>
      @font-face {
        font-family: "Virgil";
        src: url("https://excalidraw.com/FG_Virgil.woff2");
      }
      @font-face {
        font-family: "Cascadia";
        src: url("https://excalidraw.com/Cascadia.woff2");
      }
    </style>
  </defs>
  <g transform="translate(9.999999999999943 10) rotate(0 359.85416666666674 238.99999999999994)"><path d="M390.1338125065773 0.2717937359765017 C415.8728886723071 -2.1562455225007917, 443.9401948106431 5.1986853999703255, 469.60493709415493 10.716863069260228 C495.26967937766676 16.23504073855013, 520.8245390747268 24.056515850048008, 544.1222662076482 33.38085975171592 C567.4199933405696 42.705203653383826, 590.0664522899073 54.32248686971023, 609.391299891683 66.6629264792677 C628.7161474934588 79.00336608882516, 645.5527715987031 92.61647926415917, 660.0713518183027 107.4234974090607 C674.5899320379023 122.23051555396223, 686.9476642625045 138.69643283838235, 696.5027812092803 155.50503534867687 C706.0578981560561 172.3136378589714, 713.7328627626728 190.66153587489168, 717.4020534989572 208.27511247082774 C721.0712442352417 225.8886890667638, 721.2109315551935 243.50767504302945, 718.5179256269871 261.18649492429313 C715.8249196987807 278.8653148055568, 709.7994654843754 297.3625138854474, 701.2440179297189 314.3480317584099 C692.6885703750623 331.33354963137236, 680.9462642794108 348.0602458262447, 667.1852402990478 363.09960216206787 C653.4242163186848 378.13895849789105, 637.3311716422754 391.715746946579, 618.6778740475409 404.58416977334895 C600.0245764528063 417.4525926001189, 577.689294322726 430.6245507963417, 555.2654547306402 440.3101391226876 C532.8416151385543 449.9957274490335, 509.259273567131 456.81544738613053, 484.1348364950256 462.69769973142434 C459.01039942292016 468.57995207671814, 431.19571925857787 473.2498853538212, 404.51883229800774 475.6036531944503 C377.8419453374376 477.95742103507945, 350.62006283174327 478.66336087443574, 324.07351473160486 476.82030677519924 C297.52696663146645 474.97725267596275, 270.6521803189338 470.37855837548574, 245.2395436971774 464.54532859903134 C219.826907075421 458.71209882257693, 194.43277607996885 451.08810340819133, 171.59769500106643 441.82092811647277 C148.762613922164 432.5537528247542, 127.48031837022361 421.2729915236461, 108.22905722376282 408.94227684871987 C88.97779607730203 396.61156217379363, 70.72625627659977 382.5909909884997, 56.09012812230168 367.8366400669153 C41.453999968003586 353.08228914533095, 29.23832681704102 337.237502381644, 20.41228829797427 320.41617131921345 C11.58624977890752 303.5948402567829, 6.307344195939171 284.6160844098532, 3.1338970079011688 266.9086536923321 C-0.0395501801368332 249.20122297481103, -1.4286615359665213 231.99038555210376, 1.3716051697462603 214.17158701408698 C4.171871875459042 196.3527884760702, 11.182355259434862 176.7901615221843, 19.93549724217786 159.99586246423135 C28.688639224920855 143.2015634062784, 39.68573743553101 128.24469480186303, 53.89045706620425 113.40579266636932 C68.09517669687749 98.56689053087561, 86.27939232684678 83.6838991306766, 105.16381502621729 70.96244965126905 C124.04823772558781 58.241000171861515, 144.45152234796052 46.514007006169315, 167.19699326242738 37.0770957899241 C189.94246417689425 27.640184573678887, 216.32634755350676 20.207671221312783, 241.63664051301845 14.340982353797784 C266.94693347253013 8.474293486282786, 290.7578353670316 3.8428448054605866, 319.05875101949744 1.8769625848341036 C347.3596666719633 -0.08891963579237938, 393.1160453729072 1.3882233146053504, 411.4421344278137 2.5456890300388864 C429.7682234827202 3.703154745472422, 429.96416104481165 4.8463706541832465, 429.01528534893635 8.82175687743532 M255.9684715915413 9.982521549409427 C279.0930079833307 1.4988071690428342, 310.54013354877543 1.7843965784389961, 337.5834734910785 0.5823393753766197 C364.6268134333816 -0.6197178276857567, 391.66920598981716 0.042963528663558126, 418.2285112453597 2.7701783310351686 C444.78781650090224 5.49739313340678, 472.4142758940019 9.995277929957211, 496.93930502433386 16.945628189606282 C521.4643341546658 23.895978449255352, 543.7532159792498 34.03677762823, 565.3786860273516 44.47227988892959 C587.0041560754534 54.907782149629185, 608.3642865411584 66.60940649453849, 626.6921253129443 79.55864175380384 C645.0199640847302 92.50787701306919, 662.4715001427312 106.6021757751588, 675.345718658067 122.16769144452165 C688.2199371734027 137.7332071138845, 696.666089623336 155.77835591303926, 703.9374364049588 172.95173576998098 C711.2087831865816 190.1251156269227, 717.1957237066941 207.72507886172775, 718.9737993478036 225.20797058617194 C720.7518749889131 242.69086231061613, 719.2147456176291 260.3199975267069, 714.6058902516154 277.84908611664616 C709.9970348856017 295.3781747065854, 701.4906813360242 313.7087863235004, 691.3206671517216 330.38250212580743 C681.1506529674191 347.05621792811445, 669.0644757317338 363.2867185642812, 653.5858051458005 377.89138093048837 C638.1071345598672 392.4960432966955, 618.3642549860347 406.1773502035694, 598.4486436361218 418.0104763230503 C578.5330322862089 429.84360244253116, 557.2747640624552 440.20148581633197, 534.0921370463233 448.8901376473736 C510.9095100301913 457.5787894784152, 485.16686967574844 465.3300941472716, 459.3528815393299 470.14238730930015 C433.5388934029114 474.9546804713287, 406.3935388515507 477.115652302982, 379.2082082278123 477.76389661954477 C352.02287760407387 478.4121409361075, 322.7603986296214 477.09748860645436, 296.2408977968994 474.03185320867647 C269.72139696417736 470.96621781089857, 244.48026799443682 466.1780091226473, 220.09120323148025 459.3700842328773 C195.70213846852369 452.5621593431072, 171.62186370399263 443.46816539034313, 149.90650921915997 433.1843038700563 C128.1911547343273 422.90044234976943, 107.5631763363983 411.10207648787673, 89.79907632248427 397.6669151111562 C72.03497630857024 384.23175373443564, 55.959776682685714 368.52227854617377, 43.32190913567581 352.5733356097331 C30.684041588665906 336.6243926732924, 21.237557528319126 319.23856030727677, 13.971871040424844 301.97325749251195 C6.706184552530563 284.7079546777471, 1.1181800728176559 266.56467918341207, -0.2722097916898747 248.98151872114425 C-1.6625996561974052 231.3983582588764, 0.6838402355810542 213.83837094115916, 5.62953185337966 196.4742947189049 C10.575223471178266 179.11021849665065, 18.98598153574789 161.13091104192767, 29.401939915101764 144.79706138761878 C39.81789829445564 128.4632117333099, 52.20035868397201 112.95301408351237, 68.12528212950292 98.47119679305152 C84.05020557503383 83.98937950259067, 104.3285118874166 69.46404298402784, 124.95148058828721 57.90615764485369 C145.57444928915783 46.34827230567954, 170.0001384890165 36.89831551257542, 191.86309433472664 29.123884758006596 C213.72605018043677 21.34945400343777, 244.6842593471476 13.628991888396806, 256.12921566254795 11.259573117440738 C267.5741719779483 8.89015434648467, 258.79596237611827 11.068952223171413, 260.5328322271287 14.907372132270183" stroke="none" stroke-width="0" fill="#ffffff"></path><path d="M508.73618344663066 22.052489393887356 C534.2421795218931 25.461603298604928, 556.5719526103644 38.29192137010556, 577.8196913411998 49.16782163822978 C599.0674300720352 60.043721906354, 619.1467534141544 73.78175544373924, 636.2226158316428 87.30789100263266 C653.2984782491311 100.83402656152607, 668.2499820629105 114.57747806388953, 680.2748658461297 130.3246349915903 C692.299749629349 146.07179191929106, 701.8092638131623 164.2528423308219, 708.371918530958 181.79083256883726 C714.9345732487538 199.32882280685263, 718.9420341738581 217.80176867230193, 719.6507941529048 235.55257641968245 C720.3595541319515 253.30338416706297, 718.2710849764924 270.8678595466478, 712.6244784052383 288.2956790531204 C706.9778718339842 305.723498559593, 697.1957520151736 323.9835642925909, 685.7711547253804 340.1194934585179 C674.3465574355871 356.2554226244449, 660.449952425177 371.1455000737351, 644.0768946664786 385.1112540486822 C627.7038369077801 399.07700802362933, 608.2806308255126 412.7189587740055, 587.5328081731894 423.9140173082005 C566.7849855208663 435.10907584239555, 543.5825126939056 444.3315061164748, 519.5899587525392 452.2816052538524 C495.5974048111728 460.2317043912299, 469.6606064898754 467.416130926832, 443.57748452499084 471.6146121324657 C417.49436256010625 475.8130933380994, 389.9605309394545 477.39860144548237, 363.09122696323163 477.47249248765445 C336.2219229870088 477.5463835298265, 308.4417044357027 475.858154796234, 282.3616606676538 472.0579583854981 C256.28161689960484 468.2577619747623, 230.60297073164173 462.3253276993112, 206.610964354938 454.6713140232394 C182.61895797823428 447.01730034716763, 159.5042881211906 437.0488963990636, 138.4096224074314 426.1338763290677 C117.31495669367222 415.21885625907174, 97.12830838847495 402.7321227111044, 80.04297007238284 389.18119360326375 C62.95763175629074 375.6302644954231, 47.758673554679866 360.9067220697335, 35.89759251087878 344.8283016820237 C24.036511467077695 328.7498812943139, 14.717679633947625 310.281099968034, 8.876483809576314 292.71067127700485 C3.0352879852050023 275.14024258597567, 0.8046399851311605 257.06737119760294, 0.8504175646509111 239.40572953584856 C0.8961951441706617 221.7440878740942, 3.4412263346887357 203.95941599826563, 9.151149286694817 186.7408213064786 C14.861072238700899 169.5222266146916, 23.52802686102126 152.1016843526437, 35.1099552766874 136.09416138512637 C46.69188369235354 120.08663841760905, 62.0143076430364 104.72226089624198, 78.64271978069166 90.6956835013747 C95.27113191834692 76.66910610650743, 113.84727689978246 63.10382459712774, 134.880428102619 51.93469701592272 C155.91357930545553 40.765569434717705, 180.63148314480765 31.23257333628679, 204.84162699771085 23.680918014144595 C229.05177085061405 16.1292626920024, 253.99344673701017 10.46461212390974, 280.1412912200382 6.624765083069548 C306.2891357030663 2.784918042229355, 334.978007172878 0.5484204825619798, 361.72869389587925 0.6418357691034373 C388.4793806188805 0.7352510556448948, 414.2549250663772 3.1614438015639097, 440.6454115580456 7.185256802318293 C467.03589804971404 11.209069803072676, 505.33108756829444 20.541067499422322, 520.0716128458897 24.784713773629733 C534.8121381234849 29.028360047837143, 531.5417596218342 29.014476052090714, 529.0885632236173 32.64713444756276 M230.79392281328361 17.268201931541256 C252.07679476506607 7.97769585157387, 280.0810880128139 6.778284628763567, 306.19195585823576 3.918617990171896 C332.3028237036576 1.0589513515802245, 360.4993146481821 -0.9945841419988284, 387.45912988581483 0.11020209999122699 C414.41894512344754 1.2149883419812824, 442.3168864580854 5.031546889740274, 467.9508472840322 10.547335442112228 C493.584808109979 16.063123994484183, 517.9062265287039 23.929739896160527, 541.2628948414956 33.20493341422295 C564.6195631542873 42.48012693228537, 588.4554157054788 54.118710712806575, 608.0908571607827 66.19849655048677 C627.7262986160865 78.27828238816696, 644.3198762434344 91.25300799323038, 659.075543573319 105.6836484403041 C673.8312109032037 120.11428888737781, 686.8534921463147 136.14102318430017, 696.6248611400906 152.78233923292902 C706.3962301338665 169.42365528155787, 714.2103223182874 187.68707570510037, 717.7037575359743 205.53154473207724 C721.1971927536613 223.3760137590541, 720.1095498883333 241.8526001352446, 717.5854724462122 259.8491533947902 C715.0613950040911 277.84570665433586, 710.5581703578112 296.63049615517787, 702.5592928832477 313.510864289351 C694.5604154086843 330.3912324235241, 683.5280585345131 346.02603628925124, 669.5922075988315 361.1313621998288 C655.6563566631498 376.23668811040636, 637.5863614595236 391.0373948486458, 618.9441872691582 404.1428197528163 C600.3020130787928 417.2482446569868, 579.9805250200941 430.1288806286266, 557.7391624566392 439.7639116248517 C535.4977998931843 449.3989426210768, 510.6815562934792 455.69032491425435, 485.4960118884286 461.9530057301669 C460.310467483378 468.2156865460795, 433.3912358489303 474.9767765288269, 406.62589602633557 477.3399965203272 C379.8605562037408 479.70321651182746, 351.5208174265091 478.02365160910495, 324.90397295286004 476.1323256791685 C298.287128479211 474.24099974923206, 272.1501944061235 471.5337271417407, 246.9248291844411 465.99204094070853 C221.69946396275873 460.45035473967636, 196.47750035092645 452.2337912663263, 173.5517816227658 442.88220847297555 C150.62606289460513 433.5306256796248, 128.76959469544838 422.20029792633653, 109.37051681547715 409.8825441806041 C89.97143893550592 397.56479043487167, 71.82383988360468 383.6549410204645, 57.15731434293838 368.97568599858084 C42.49078880227207 354.2964309766972, 30.451005208989535 338.7325844952314, 21.37136357147932 321.8070140493022 C12.291721933969106 304.88144360337304, 5.988064149990739 285.2253828878084, 2.6794645178770793 267.4222633230058 C-0.6291351142365804 249.61914375820317, -1.1518598385626526 232.30813096993435, 1.519765778797364 214.98829666048653 C4.19139139615738 197.6684623510387, 10.112977141912921 180.2508304615132, 18.70921822203718 163.50325746631876 C27.305459302161438 146.7556844711243, 39.171160156880084 129.625108265197, 53.097212259542914 114.50285868931981 C67.02326436220575 99.38060911344259, 83.40299822858499 85.51143162586887, 102.26553083801417 72.76976001105547 C121.12806344744335 60.02808839624207, 144.92644864709348 47.33805330142548, 166.27240791611803 38.0528290004394 C187.61836718514257 28.767604699453322, 219.40435924014938 20.074332026740336, 230.3412864521614 17.058414205139 C241.27821366417342 14.042496383537667, 230.1196746215321 16.509407066795536, 231.8939711881901 19.957322070831395" stroke="#000000" stroke-width="1" fill="none"></path></g><g transform="translate(49.053030303030255 98.45361174772904) rotate(0 67.14285714285711 132.85714285714283)"><path d="M-1.22398916259408 0.8191324211657047 L134.6268163754471 1.3389734961092472 L135.87534497518618 266.7772972152701 L0.6281640194356441 263.8196678922644" stroke="none" stroke-width="0" fill="#ffffff"></path><path d="M0.9602365233004093 -0.4227837659418583 C27.01492914557456 -1.4146960845483199, 52.49879428371785 -0.2527382245553389, 133.23217844058354 0.7712196968495846 M0.9875453542917967 -0.19820298068225384 C37.78125826349214 -0.3700589714305742, 73.71277138936729 0.11995647570916579, 135.0594570043363 -0.6652293931692839 M132.93656180405554 1.1107407106361804 C131.8074705694743 98.990742195926, 131.79843137539092 197.6156149601367, 133.69129809091112 265.6740035170842 M134.77353812803287 0.4945354202507782 C134.67764003934732 80.40446482536754, 133.66808359545757 160.51754217644694, 134.17374902838444 266.0778377197204 M136.16858803321202 265.91295118044525 C101.92625658320523 266.6919679251632, 67.9248652271926 265.9023648110351, -1.012421753257513 267.1038342208734 M133.9198035004415 264.8347698149404 C102.30085265290519 266.5683172261076, 68.61499010798119 267.2972357189016, -0.30038984306156635 265.59617128941625 M-0.5407344311185127 264.2985326211261 C-0.9555025389456264 173.71540802842918, 0.886143668309839 79.49016619030877, 0.4491043878786319 -1.5095955677020816 M-0.3504805848815744 266.27431003866263 C-0.6996607108259804 194.32290877313082, -1.2408182519915876 122.85534321182747, -0.3941799797058238 0.04426819160543648" stroke="#000000" stroke-width="1" fill="none"></path></g><g transform="translate(72.26676428147016 110.40595025889183) rotate(0 53.5 12.5)"><text x="53.5" y="18" font-family="Virgil, Segoe UI Emoji" font-size="16px" fill="#000000" text-anchor="middle" style="white-space: pre;" direction="ltr">SDA A4 (23)</text></g><g transform="translate(81.40823065823139 251.2092727533916) rotate(0 34.49999999999997 32)"><text x="34.5" y="23" font-family="Virgil, Segoe UI Emoji" font-size="20px" fill="#000000" text-anchor="middle" style="white-space: pre;" direction="ltr">Arduino</text><text x="34.5" y="55" font-family="Virgil, Segoe UI Emoji" font-size="20px" fill="#000000" text-anchor="middle" style="white-space: pre;" direction="ltr">nano</text></g><g transform="translate(274.57738095238096 31.32843137254892) rotate(0 90.5 28.5)"><text x="0" y="41" font-family="Virgil, Segoe UI Emoji" font-size="36px" fill="#000000" text-anchor="start" style="white-space: pre;" direction="ltr">Actionners</text></g><g transform="translate(206.18238765878107 215.01942922918107) rotate(0 56.15384615384613 110.76923076923077)"><path d="M0.9313271902501583 0.09480056539177895 L112.42578433425376 0.4202141501009464 L112.46493183047721 219.6474658907033 L-0.25091293826699257 221.72001845246325" stroke="none" stroke-width="0" fill="#ffffff"></path><path d="M-1.5072288773953915 0.55485924705863 C44.45015256794598 1.4986582645716573, 91.02713621665649 2.5742818960490133, 111.08426796616266 0.08361002430319786 M0.8078945707529783 -0.12117518298327923 C34.10522445993353 0.33343537381062105, 67.64045222203889 1.6422527008331735, 113.1643727437521 0.8213290441781282 M113.0312577746257 1.370011267054801 C110.2788186505036 75.20142804600437, 112.3176580483089 148.77798092586443, 113.87293938617938 222.97653180586445 M112.91293930606247 -0.1818259792925374 C112.33302382725374 77.91196038203289, 111.38789095094462 154.3254219797636, 112.12512741443044 220.77201305078324 M113.35096930683801 221.56248730277787 C69.62344655337239 221.60802948741386, 26.26479358140091 223.04263901977012, 0.8576677776873112 222.01975828265915 M113.11860656895885 221.18076713798712 C74.55781324680605 220.87080857369764, 38.06145588351555 219.9663805088745, -0.9264059830456972 220.99525393961142 M0.7912617845252883 221.02256758942772 C0.5601542481710928 136.1154825170959, 0.9784533389942113 51.39632912188398, -0.40018629770412406 -0.16131124500552907 M0.6896509290685495 222.37538876026582 C-0.8424695250692686 150.97180510006223, -1.573439727388863 78.59976598160878, 0.48019659005410187 -0.07127134459835548" stroke="#000000" stroke-width="1" fill="none"></path></g><g transform="translate(215.14392612031952 393.27583948559135) rotate(0 46.5 16)"><text x="46.5" y="23" font-family="Virgil, Segoe UI Emoji" font-size="20px" fill="#000000" text-anchor="middle" style="white-space: pre;" direction="ltr">PCA9685</text></g><g transform="translate(75.26676428147016 135.3932480917773) rotate(0 52 12.5)"><text x="52" y="18" font-family="Virgil, Segoe UI Emoji" font-size="16px" fill="#000000" text-anchor="middle" style="white-space: pre;" direction="ltr">SCL A5 (24)</text></g><g transform="translate(103.26676428147016 155.059914758444) rotate(0 38 12.5)"><text x="38" y="18" font-family="Virgil, Segoe UI Emoji" font-size="16px" fill="#000000" text-anchor="middle" style="white-space: pre;" direction="ltr">GND (29)</text></g><g transform="translate(112.26676428147016 178.059914758444) rotate(0 33.5 12.5)"><text x="33.5" y="18" font-family="Virgil, Segoe UI Emoji" font-size="16px" fill="#000000" text-anchor="middle" style="white-space: pre;" direction="ltr">+5V (27)</text></g><g transform="translate(210.90282582484656 225.05991475844394) rotate(270 16.5 12.5)"><text x="16.5" y="18" font-family="Virgil, Segoe UI Emoji" font-size="16px" fill="#000000" text-anchor="middle" style="white-space: pre;" direction="ltr">VCC</text></g><g transform="translate(231.39012365773226 227.55991475844394) rotate(270 19 12.5)"><text x="19" y="18" font-family="Virgil, Segoe UI Emoji" font-size="16px" fill="#000000" text-anchor="middle" style="white-space: pre;" direction="ltr">GND</text></g><g transform="translate(256.7234569910652 224.55991475844394) rotate(270 16 12.5)"><text x="16" y="18" font-family="Virgil, Segoe UI Emoji" font-size="16px" fill="#000000" text-anchor="middle" style="white-space: pre;" direction="ltr">SCL</text></g><g transform="translate(278.2234569910655 226.05991475844394) rotate(270 17.5 12.5)"><text x="17.5" y="18" font-family="Virgil, Segoe UI Emoji" font-size="16px" fill="#000000" text-anchor="middle" style="white-space: pre;" direction="ltr">SDA</text></g><g><g transform="translate(186.76014844357917 122.55991475844405) rotate(0 247.71947153680446 0.014053053777352886)"><path d="M0.4643991197146475 0.5621315028341948 C124.43700223477373 -0.6873382027737136, 248.1961933160116 0.39355886155390096, 494.8772219797925 -0.5323664867615275 M0.16057875529537832 0.4011149505186316 C180.8715514897954 1.2038102440919662, 361.9499210946931 0.9291806867681759, 495.2783643183135 -0.7952864520623018" stroke="#364fc7" stroke-width="1" fill="none"></path></g></g><g><g transform="translate(187.22980807462307 148.55991475844405) rotate(0 247.62088925224685 -0.7629911998984937)"><path d="M0.5297838874670634 0.0844268481689213 C131.35785008026573 -1.0501855772662079, 263.322461517421 -1.232786104802972, 495.47522682092347 -1.145346829582778 M-0.23344831642981523 -0.2841907772329968 C108.62914532547678 -0.25931142588926265, 217.57925092868967 -0.21848908164368616, 495.45244519745387 -1.610409247965932" stroke="#5c940d" stroke-width="1" fill="none"></path></g></g><g><g transform="translate(187.35736778285855 169.5599147584441) rotate(0 247.04202389985278 -1.0365148520575502)"><path d="M0.09733736499805805 -0.3419701911097781 C100.81230704322311 1.8826151030227485, 202.77430589260894 1.4536967534787144, 494.0687239444237 -2.641378143813586 M-0.34207758118856024 0.08050002984940105 C107.88400735131391 -0.49271711520313377, 216.16216571807172 -1.1343658667526446, 494.42612538089406 -3.0620703311390027" stroke="#000000" stroke-width="1" fill="none"></path></g></g><g><g transform="translate(187.98224040828052 190.85158142511074) rotate(0 244.7359852802013 -0.7491296006260626)"><path d="M-0.3486466368079422 -0.47515533915615116 C120.68269043556231 -0.40289204554971225, 241.03474177688236 -1.3212952182802427, 489.82061719721054 -2.261194091092515 M0.08207166998635551 -0.20516911178379663 C99.3923094645106 1.3885624423696292, 199.02457600664673 1.1261920031324952, 489.3917116374412 -1.8273570940647645" stroke="#c92a2a" stroke-width="1" fill="none"></path></g></g><g><g transform="translate(227.89647474128947 213.89324809177742) rotate(0 1.1158730651562792 -12.103692101314664)"><path d="M0.5088724754750729 -0.2167363427579403 C2.414389845356375 -9.243076879046859, -0.3238460265099402 -19.991409467421477, 2.1159682335953676 -24.76406278833747 M0.11577789671719074 0.7148524355143309 C0.830024747947882 -9.646252681277693, -0.47617689790819034 -18.637200972400606, 1.2338618307064735 -24.92223663814366" stroke="#c92a2a" stroke-width="1" fill="none"></path></g></g><g><g transform="translate(251.89647474128947 215.89324809177737) rotate(0 -0.28635868585354274 -22.716200712447375)"><path d="M0.2254851795732975 0.39510318264365196 C0.022045257439236854 -10.891615626104183, 0.15940499467158525 -24.435956039167955, -1.000652657200817 -45.837749077628075 M0.4279352854937315 0.8641660679131746 C-0.008581246808146148 -15.476687969155616, 0.11384798809891022 -31.13988568399103, 0.4252043000112735 -46.296567492807924" stroke="#000000" stroke-width="1" fill="none"></path></g></g><g><g transform="translate(275.22980807462284 216.55991475844405) rotate(0 -0.19378715081359132 -33.985203416707634)"><path d="M0.040229763835668564 1.9309301115572453 C-0.6173180147508782 -18.844682939102267, -1.7208897873262567 -36.45088909889264, 0.1603005789220333 -67.46408818786347 M0.36262290365993977 0.17018256895244122 C0.848142751827836 -14.060707815364012, -0.11516707263886927 -31.00829017050566, -0.4819574486464262 -69.90133694497251" stroke="#5c940d" stroke-width="1" fill="none"></path></g></g><g><g transform="translate(297.22980807462284 215.22658142511068) rotate(0 -0.6292479580377517 -45.494788739830256)"><path d="M0 0 C0 0, 0 0, 0 0 M0 0 C0 0, 0 0, 0 0 M-1.1376253627240658 1.6861159466207027 C-1.7863386760651965 -24.871097926907243, -0.11968663923440359 -47.568776124082504, -1.6207110347846765 -92.67569342628121 M-0.7271107006818056 -0.360632611438632 C0.6047045631458468 -25.771331428351502, 0.511086934010209 -51.75765827706705, 0.06391543460392768 -92.07138956896961" stroke="#364fc7" stroke-width="1" fill="none"></path></g></g><g><g transform="translate(299.22980807462284 388.26637736026464) rotate(0 -0.7242176790256849 -59.189496888468625)"><path d="M-1.0866117738187313 0.16306599602103233 C-0.24646380260585887 -28.72556863725184, 0.5131720874210375 -57.6333969702323, -1.2578955354789514 -118.54205977295828" stroke="#000000" stroke-width="1.5" fill="none" stroke-dasharray="3 6"></path></g></g><g><g transform="translate(293.5631414079562 388.20317915145574) rotate(0 -3.1991836292048106 -59.126298679659726)"><path d="M-1.822165634483099 -1.7573421336710453 C-2.1910918076336268 -37.09902543326216, -1.9096272184947898 -70.34752702216302, -4.576201623926522 -116.4952552256484" stroke="#e67700" stroke-width="1.5" fill="none" stroke-dasharray="3 6"></path></g></g><g><g transform="translate(285.2298080746227 388.64044632826267) rotate(0 -1.7194662314005313 -59.56356585646665)"><path d="M-1.7573421336710453 -0.6621344350278378 C-2.139312950024989 -42.09668899913627, -1.1621306297679475 -86.91688683370745, -1.828588558981778 -118.46499727790547" stroke="#c92a2a" stroke-width="1.5" fill="none" stroke-dasharray="3 6"></path></g></g><g transform="translate(350.5631414079562 259.05991475844405) rotate(0 32 45.25)"><path d="M0.9894371964037418 1.122907605022192 L63.8730020262301 1.6808081530034542 L62.29035362973809 92.16006108745933 L0.8087527491152287 89.8039525412023" stroke="none" stroke-width="0" fill="#ffffff"></path><path d="M0.15466078743338585 1.630870196968317 C15.736735370010138 1.9370938791334629, 31.271046128124 0.2961187614500523, 63.75822540745139 1.298643086105585 M0.9542025197297335 0.3098298739641905 C15.1591562140733 -0.07507909424602988, 30.15035143978894 0.11037294976413248, 63.38334767706692 -0.42428030259907246 M65.13868137821555 1.2888078428804874 C64.84848653781228 21.39170563714579, 64.82688498008065 45.880807197280234, 62.442162837833166 92.1423450447619 M64.85665576346219 -0.3696419168263674 C62.688493733601646 35.21227319082246, 64.62804645796307 69.92222289014609, 64.2519130576402 90.59520534984767 M64.05934366211295 91.07791385427117 C47.47202754244208 91.84594881430269, 29.70096127018332 92.10929345980287, -0.3743918277323246 90.23208353295922 M64.19059895165265 90.90199522487819 C47.41799777634442 91.54935605637729, 28.51720942147076 90.24511159770191, -0.08005066029727459 90.37457679025829 M-0.19138458743691444 92.17457983270288 C2.2544233707804233 64.391520699393, -1.3561903329472988 40.05643291007726, -0.553377065807581 -0.06434359773993492 M-0.5671002399176359 90.00431893579662 C1.7439724939595909 72.27843203330413, 0.6610757249128074 53.350867808423935, 0.6475273240357637 0.7914585303515196" stroke="#000000" stroke-width="1" fill="none"></path></g><g transform="translate(415.5631414079562 273.05991475844405) rotate(0 8.5 12.5)"><path d="M-0.7357797883450985 -0.8261632062494755 L17.275871131569147 0.5753919743001461 L15.745991442352533 24.752913799136877 L0.9019981361925602 25.352032151073217" stroke="none" stroke-width="0" fill="#ffffff"></path><path d="M-0.6283912586048246 -1.674444113485515 C5.594809499382973 1.4771640381403266, 10.335669063217939 0.28262071819975976, 17.161849094741047 -0.5823477549478411 M0.2456133880652488 0.20385529762133958 C6.4905923924408855 -0.1256484872847795, 12.39403477953747 -0.16416073806583886, 16.88613550150767 -0.2532067232765257 M17.803990449756384 1.4230001904070377 C18.731355390977114 7.056253761984408, 16.122866473626345 17.53554996661842, 16.749153580516577 24.39248511567712 M17.837289916351438 0.821552200242877 C15.994872538838536 4.827518911100924, 16.02782621840015 11.345858592540026, 16.967828201130033 24.035096747800708 M16.15734219085425 26.664894725568594 C13.669605671986938 24.727563177403063, 9.13901770506054 26.0043894100748, 1.3454795015975833 25.84102161694318 M16.27340029263869 25.705525962170213 C11.289248454105108 24.847048523016273, 5.3556315314956 25.916628961749375, -0.5180674544535577 24.36590607231483 M0.7861574552953243 25.60652456060052 C1.312192798126489 15.415326393209398, 0.8341741566546261 9.030375936999915, -0.025706086307764053 -0.858492162078619 M-0.35153032653033733 24.279608054086566 C-0.28453984344378114 17.289608891122043, -0.5849487432278693 11.095552034676073, 0.29063897021114826 -0.5662689376622438" stroke="#000000" stroke-width="1" fill="none"></path></g><g transform="translate(349.5631414079562 274.30991475844405) rotate(317.3662479914558 30 12.5)"><text x="30" y="18" font-family="Virgil, Segoe UI Emoji" font-size="16px" fill="#000000" text-anchor="middle" style="white-space: pre;" direction="ltr">servo X</text></g><g><g transform="translate(350.0631414079562 271.05991475844405) rotate(0 -26.178447955287993 -0.06264977837693664)"><path d="M1.6808081530034542 -1.7096463702619076 C-17.202997535793113 1.2986710859276354, -38.43058651234024 2.107242503091693, -52.1793876029551 0.281017754226923 M0.015503989532589912 0.39307872764766216 C-11.86569364895113 1.6189568564109504, -25.1593773257453 1.718048607259989, -54.03770406357944 1.487146956846118" stroke="#000000" stroke-width="1" fill="none"></path></g></g><g><g transform="translate(349.0631414079562 277.55991475844405) rotate(0 -31.457523200660944 0.7093927397741879)"><path d="M0.3520321510732174 0.9439644552767277 C-16.724855740936473 2.5574436675291508, -27.69250294371508 1.5931233218405396, -63.267078552395105 1.8511973358690739 M-0.6091542970389128 -0.48707236535847187 C-20.240653447164227 1.4606005624402316, -40.86184788384475 1.0820037176366897, -61.920203460380435 0.8587639760226011" stroke="#e67700" stroke-width="1" fill="none"></path></g></g><g><g transform="translate(349.0631414079562 284.05991475844405) rotate(0 -34.697931515052915 0.4189108870923519)"><path d="M-1.1204473040997982 -1.1118162013590336 C-16.044277338311076 1.5046627247706055, -32.36229911446571 0.4674895728006958, -68.61867478117347 1.9496379755437374 M0.7416981887072325 0.5132670868188143 C-17.49596332013607 -0.9827883107587695, -34.11675967089832 -0.3886602384969592, -70.13756121881306 -0.21759332530200481" stroke="#c92a2a" stroke-width="1" fill="none"></path></g></g><g transform="translate(359.3131414079562 290.1926707760633) rotate(0 32 45.25)"><path d="M0.251466479152441 -1.4615848325192928 L63.838549461215734 -1.3789576552808285 L64.33502193912864 90.34402367845178 L-1.1330174542963505 90.61446366086602" stroke="none" stroke-width="0" fill="#ffffff"></path><path d="M-0.5171093009412289 -1.3830657340586185 C22.493595466762784 0.42842510327696803, 47.02197372689844 -1.7102571429312228, 65.77197859063745 -0.8214513398706913 M0.11755947582423687 0.7134575117379427 C17.619143028184773 0.6684523678570986, 37.322674746438864 0.8976245380192995, 63.06931279413402 0.7978856433182955 M64.1693088747561 0.7086933515965939 C65.8991894292552 33.29001582516358, 64.7421658801753 68.43417017739267, 65.48034271970391 92.12342282757163 M64.04390357248485 -0.7306525837630033 C65.03249565715902 27.785434287879617, 64.1782119071018 56.90551171433181, 64.18863288871944 89.99817137606442 M63.93831143155694 88.73111268505454 C41.36525863185525 92.05896962031721, 23.691959402710197 90.95920491561293, -1.6997781060636044 88.51104220375419 M63.87338296882808 90.56928830035031 C48.557250471040604 89.89041984327137, 31.64069797508418 90.97849017627537, 0.0003338884562253952 90.61712967045605 M-1.682147528976202 91.55662878975272 C0.20481245967559514 61.7142066498287, -1.7693268730957061 37.18925506044178, 0.20097646489739418 1.3349370621144772 M-0.7527059484273195 90.63116346485913 C-0.9850960070919246 69.53339159255847, -0.3140616113971919 47.55486906412989, 0.01875905506312847 -0.4816530477255583" stroke="#000000" stroke-width="1" fill="none"></path></g><g transform="translate(424.3131414079562 304.1926707760633) rotate(0 8.5 12.5)"><path d="M-1.4615848325192928 -0.16145053878426552 L15.621042344719172 0.3350219391286373 L16.844023678451777 23.86698254570365 L0.11446366086602211 26.27537366375327" stroke="none" stroke-width="0" fill="#ffffff"></path><path d="M-1.1756058739498259 -1.6711414320394395 C5.9078170448541645 -1.5687631991319357, 9.265820156224073 1.550136092621833, 16.301766361109912 -0.23598286341875796 M0.6064388849772512 -0.5885832631029189 C4.568506672140211 0.5745787494629622, 8.734502929914743 -0.8110692358762025, 17.67820279682055 0.6272053248248993 M17.708693351596594 1.3367749191820621 C16.495498351287097 9.233382613398135, 17.81176071567461 19.587605206295848, 18.62342282757163 25.2433097101748 M16.269347416236997 0.6691291760653257 C16.35584151605144 8.318620235659182, 17.224942503962666 17.196182508021593, 16.49817137606442 25.23049400560558 M15.496445782296359 23.33435722757131 C12.55828629694879 25.880696744974703, 6.224040500260888 23.549945081528275, -1.6906141268089414 24.165484805591404 M17.05889505529776 25.52321427827701 C10.759376006852834 24.77217113930732, 6.267185087222605 24.978758909888565, 0.09956021988764407 24.97137419646606 M1.0566287897527218 25.528310153633356 C-2.130404084455222 15.160530782304704, 0.18986371206119657 8.413696387782693, 1.3349370621144772 -1.2530746720731258 M0.131163464859128 24.39161221496761 C0.2859947136603296 16.522016162984073, -0.21269070589914918 7.937498159706593, -0.4816530477255583 0.1257332395762205" stroke="#000000" stroke-width="1" fill="none"></path></g><g transform="translate(358.8131414079562 305.4426707760633) rotate(317.3662479914558 29.5 12.5)"><text x="29.5" y="18" font-family="Virgil, Segoe UI Emoji" font-size="16px" fill="#000000" text-anchor="middle" style="white-space: pre;" direction="ltr">servo Y</text></g><g><g transform="translate(358.8131414079562 302.1926707760633) rotate(0 -29.647450676187873 -0.06515929102897644)"><path d="M0.8610988520085812 -1.8973146937787533 C-17.41625430036506 1.641499577067861, -33.08749697626304 0.03970865316107908, -60.15600020438433 1.740565137937665 M0.7027138341218233 0.6994868945330381 C-17.39643859737018 -0.8287894864338452, -35.87041787457375 1.349039071151998, -58.206547604873776 1.7669961117208004" stroke="#000000" stroke-width="1" fill="none"></path></g></g><g><g transform="translate(357.8131414079562 308.6926707760633) rotate(0 -32.84672301169485 0.1394254508975905)"><path d="M-1.8973146937787533 -1.2775833941996098 C-13.589158087335527 -0.304289258280769, -30.99007001036778 -0.5799913073051721, -66.39293291792274 1.2351189516484737 M0.6994868945330381 0.9318860042840242 C-25.632104167900984 1.6365360941831024, -48.65802079765127 1.8314486993569883, -66.3665019441396 1.084654437378049" stroke="#e67700" stroke-width="1" fill="none"></path></g></g><g><g transform="translate(357.8131414079562 315.1926707760633) rotate(0 -36.99172977916896 0.4206456923857331)"><path d="M-1.2775833941996098 1.7719785906374454 C-15.948768551461399 -0.9891199083067477, -31.582634525373578 -0.6044259280897677, -74.76488104835153 1.4269150234758854 M0.9318860042840242 -0.9306872058659792 C-16.508732623420656 1.2625037883408368, -33.991784036159515 0.6581132267601788, -74.91534556262195 0.35434667579829693" stroke="#c92a2a" stroke-width="1" fill="none"></path></g></g><g transform="translate(364.8131414079562 322.6926707760633) rotate(0 32 45.25)"><path d="M-1.4921595118939877 -0.03179863467812538 L65.04810545220971 1.098283614963293 L63.24837789312005 88.94927879795432 L1.1368560530245304 91.67853554710746" stroke="none" stroke-width="0" fill="#ffffff"></path><path d="M-1.0164562799036503 -1.36108722910285 C17.522520615905524 -1.1870968995988367, 37.00860673412681 1.2707667888700964, 63.418399538844824 1.5641395784914494 M0.42712257988750935 -0.36594625003635883 C14.069663249328734 1.1867728792876004, 29.90921205170453 0.14903843037784098, 64.10743121989071 -0.1875846553593874 M64.09212943539023 -0.8200242780148983 C63.93246390747838 19.44880241053179, 65.0716670982819 36.94099106807262, 63.79208764061332 90.36250004544854 M63.58986406214535 0.3281438183039427 C63.72240766127594 21.60655402382836, 64.18989541371353 43.15496659446508, 64.04939519055188 90.85524312965572 M64.28262051567435 88.87491211667657 C44.559669782966374 88.2727066744864, 26.507216944545505 88.87268309488893, 1.6152348183095455 91.49991462007165 M64.8790417779237 90.72566215507686 C49.32628618367016 91.36395842663944, 32.75142251141369 89.73716224066914, 0.8959326017647982 90.06261978857219 M-1.9358277656137943 90.15792605653405 C0.06568062406964603 70.69944515479729, -0.7859837998729199 51.91671880017966, 1.393090095371008 1.851993653923273 M0.7754296530038118 91.26478014700115 C-0.11457025413401434 55.38865096950903, -1.425635510729626 22.632499743066717, 0.5360205043107271 0.24576358310878277" stroke="#000000" stroke-width="1" fill="none"></path></g><g transform="translate(429.8131414079562 336.6926707760633) rotate(0 8.5 12.5)"><path d="M-0.03179863467812538 1.048105452209711 L18.098283614963293 -0.7516221068799496 L15.449278797954321 26.13685605302453 L1.1785355471074581 26.08939442411065" stroke="none" stroke-width="0" fill="#ffffff"></path><path d="M-1.1569241447374226 -0.8853906201198697 C4.835743889212608 -0.01535177947953352, 12.451295719854535 -0.4079616081900895, 18.329518641717733 -1.2056456433609128 M-0.311054312530905 -0.5027201793156564 C5.873373579327017 0.4263515228778124, 10.170448623131962 0.018705698326230008, 16.84055304294452 -0.7640640250407159 M16.1799757219851 0.6080759428441525 C17.46462179766968 7.380947544239461, 15.941845074761659 11.05942446179688, 16.86250004544854 23.739693846553564 M17.328143818303943 -0.1697466503828764 C17.087831103708595 7.499824835918844, 17.189129018690437 14.453562658280134, 17.35524312965572 24.94111161120236 M15.618675299175084 24.475366480462252 C11.537784999981524 25.15445147657767, 7.9701715638861055 26.396972339395433, 0.8499274270609021 24.04683165680617 M17.191812831815334 25.797204557899384 C14.15030867056921 25.127868840508164, 9.256626221816985 25.910979813747108, -0.3717731797136366 24.33684204304591 M-0.3420739434659481 24.74867495521903 C0.4104874352924526 17.2727167988196, 1.7170793036930263 13.14450263045728, 1.851993653923273 1.5856685303151608 M0.7647801470011473 25.70247589237988 C-0.7128669894300401 14.634377081878482, 0.856131883803755 6.021953396499153, 0.24576358310878277 -0.7460797559469938" stroke="#000000" stroke-width="1" fill="none"></path></g><g transform="translate(361.3131414079562 337.9426707760633) rotate(317.3662479914558 32.5 12.5)"><text x="32.5" y="18" font-family="Virgil, Segoe UI Emoji" font-size="16px" fill="#000000" text-anchor="middle" style="white-space: pre;" direction="ltr">servo Z</text></g><g><g transform="translate(364.3131414079562 334.6926707760633) rotate(0 -31.338165427558124 -0.5187275014598356)"><path d="M-0.8124985955655575 -0.11970654502511024 C-13.987074637843072 -1.0023008508904006, -29.703304585993937 -1.933012174949463, -62.653415782377124 -1.5332311261445284 M0.816734416410327 0.5870145428925753 C-21.723626804626804 -0.392828912471206, -43.19421730805404 -1.5283138455001333, -63.493065271526575 -0.25372185930609703" stroke="#000000" stroke-width="1" fill="none"></path></g></g><g><g transform="translate(363.3131414079562 341.1926707760633) rotate(0 -36.03467782679945 0.5957149052992463)"><path d="M-0.11970654502511024 1.6453650929033756 C-17.16310952705331 1.1576985113043339, -34.584028861103576 -0.4292970330733805, -72.65637019649148 0.3542451597750187 M0.5870145428925753 -0.22100003249943256 C-18.723095914823936 0.2646777648758143, -38.56291029994376 -0.42597290302626795, -71.37686092965305 -0.453935282304883" stroke="#e67700" stroke-width="1" fill="none"></path></g></g><g><g transform="translate(363.3131414079562 347.6926707760633) rotate(0 -39.904285094700754 -0.3239320303244426)"><path d="M1.6453650929033756 -0.5816004611551762 C-18.643224871540443 -1.343227956937626, -40.3195808001887 -0.957232414772734, -80.64575484022498 -0.23189250007271767 M-0.22100003249943256 0.10743121989071369 C-19.81330161689781 -0.30005377578549086, -40.00205023092218 0.842412372296676, -81.45393528230488 0.08998786099255085" stroke="#c92a2a" stroke-width="1" fill="none"></path></g></g><g transform="translate(42.22980807462295 177.55991475844405) rotate(271.4688007143858 17 12.5)"><text x="0" y="18" font-family="Virgil, Segoe UI Emoji" font-size="16px" fill="#000000" text-anchor="start" style="white-space: pre;" direction="ltr">I2C</text></g><g transform="translate(71.22980807462295 108.05991475844405) rotate(0 56 47.5)"><path d="M1.0570637919008732 1.5262988470494747 C30.189320660382513 0.4369392247498036, 62.120623091608294 2.959454640895128, 110.02692637220025 1.7629124782979488 M110.29556461796165 1.1996736265718937 C113.01299456479028 37.77548614051193, 112.88519183518365 72.4640649203211, 110.53044256195426 93.9929080940783 M113.57315191999078 96.61632987484336 C87.7263767428696 94.32896988883614, 58.918515292555085 96.66250901713967, 1.451801273971796 94.89929589256644 M0.829264011234045 96.40308627858758 C1.040978133957833 70.2167610609904, -1.1958448288030923 49.20338277332484, -0.7746374942362309 -0.526484277099371" stroke="#000000" stroke-width="1.5" fill="none" stroke-dasharray="12 8"></path></g><g transform="translate(368.3647125138525 139.88501919663884) rotate(359.8242990907613 21.2172054145438 15.600886334223375)"><text x="0" y="22.201772668446747" font-family="Virgil, Segoe UI Emoji" font-size="19.969134507805936px" fill="#000000" text-anchor="start" style="white-space: pre;" direction="ltr">I2C</text></g><g transform="translate(467.2329836164014 226.309914758444) rotate(270 16.5 12.5)"><text x="16.5" y="18" font-family="Virgil, Segoe UI Emoji" font-size="16px" fill="#000000" text-anchor="middle" style="white-space: pre;" direction="ltr">VCC</text></g><g transform="translate(487.7202814492872 228.809914758444) rotate(270 19 12.5)"><text x="19" y="18" font-family="Virgil, Segoe UI Emoji" font-size="16px" fill="#000000" text-anchor="middle" style="white-space: pre;" direction="ltr">GND</text></g><g transform="translate(513.05361478262 225.809914758444) rotate(270 16 12.5)"><text x="16" y="18" font-family="Virgil, Segoe UI Emoji" font-size="16px" fill="#000000" text-anchor="middle" style="white-space: pre;" direction="ltr">SCL</text></g><g><g transform="translate(484.2266325328443 215.14324809177748) rotate(0 -0.42790294035023635 -12.152509059756994)"><path d="M-0.22917214408516884 1.6314328648149967 C-1.0594420824199615 -9.485291203918557, 0.48666124716407105 -20.889096976878744, -1.273088806619171 -25.936450984328985 M0.4172829259186983 0.6641170214861631 C-0.20288833608227086 -9.734390976689756, 0.5806348806371866 -19.054671762548388, -0.0021945567179955106 -24.600114004686475" stroke="#c92a2a" stroke-width="1" fill="none"></path></g></g><g><g transform="translate(508.2266325328443 217.14324809177742) rotate(0 0.18082427357637698 -23.58852136445543)"><path d="M1.6314328648149967 -1.1041825152933598 C0.6644591597219607 -18.08059460012864, -0.9817184908935825 -38.45795140876126, -1.2697843176622428 -45.09213121111196 M0.6641170214861631 -0.40725584141910076 C-0.30926550813016845 -14.814607550886775, -0.326737911254119 -30.542860159215838, 0.06655266198026766 -46.76978688749176" stroke="#000000" stroke-width="1" fill="none"></path></g></g><g><g transform="translate(531.5599658661778 217.8099147584441) rotate(0 0.235176470130682 -34.52185425317538)"><path d="M-1.1041825152933598 0.00580427423119545 C0.2575677573184173 -16.790974814941492, -1.860309130003055 -31.715954435120043, 1.5745354555547237 -68.93235825126374 M-0.40725584141910076 -0.6467211414128542 C-0.16553330185512716 -19.83393953628839, -0.9581773853550356 -38.51287431605162, -0.1031202208250761 -69.04951278058195" stroke="#5c940d" stroke-width="1" fill="none"></path></g></g><g><g transform="translate(553.5599658661778 216.47658142511074) rotate(0 -0.37026231115061137 -46.01663132198155)"><path d="M0 0 C0 0, 0 0, 0 0 M0 0 C0 0, 0 0, 0 0 M0.34502777829766273 -1.1641137935221195 C-0.3996067081391731 -17.76657425067077, -0.8195937418192465 -40.70793502307186, -1.0855524005988855 -92.0332626439631 M-0.4522057343274355 -0.42300171963870525 C-1.1020196514079885 -20.591916451913615, -1.327538401683155 -40.933117243958016, -0.7651911346862335 -91.87459577433765" stroke="#364fc7" stroke-width="1" fill="none"></path></g></g><g transform="translate(537.6736075242276 228.8791810614565) rotate(270 17.5 12.5)"><text x="17.5" y="18" font-family="Virgil, Segoe UI Emoji" font-size="16px" fill="#000000" text-anchor="middle" style="white-space: pre;" direction="ltr">SDA</text></g><g transform="translate(466.00694085756083 216.3791810614565) rotate(0 58.333333333333314 57.5)"><path d="M-0.8472265340387821 -0.4720245860517025 C25.132918549701564 -0.4559751857692995, 54.25768262147902 -1.9322469343120852, 117.34735167647398 1.3461084105074406 M0.8726190198212862 0.1927057933062315 C46.762669712305055 0.8423551945015786, 92.3349580299109 0.14443016331642844, 116.13980230378604 -0.26966060884296894 M118.44924319411314 -1.248443629592657 C117.82779447023442 26.449065807275478, 117.97010282461217 49.26227119751275, 115.08820439005888 113.04744586721063 M116.0980957417438 0.5128830503672361 C116.1631682155343 36.120440809987485, 116.89601012446603 71.12409956753254, 116.70134558963275 114.98629049770534 M115.23150826121366 114.4686103798449 C80.29114025769132 117.04890622540067, 42.92190491408108 114.74453236504148, -0.8410313464701176 113.57587454095483 M116.0351730852077 114.17332939617336 C81.2168118394911 116.8520356848215, 46.88500950795907 115.2025000884508, -0.048154545947909355 114.53191254846752 M1.4227864407002926 114.32427904382348 C-1.4037717335857451 68.51845705974847, 0.03819634979590769 24.327598607167587, 1.062289323657751 1.7679422833025455 M-0.6049062740057707 115.56924746744335 C0.9376030643470585 77.73947959858924, 0.7817845423705876 41.75735081359744, -0.7809189688414335 0.2604550551623106" stroke="#000000" stroke-width="1" fill="none"></path></g><g transform="translate(470.17360752422746 264.2958477281232) rotate(0 53.854166666666686 31.25)"><path d="M1.2993191219866276 -0.5666625835001469 L106.33876519774401 1.576526965945959 L108.24150651072466 63.302445854991674 L-1.1361336968839169 64.1903177164495" stroke="none" stroke-width="0" fill="#000"></path><path d="M0.25713619217276573 0.22113237157464027 C24.469225608937762 0.7396006560690392, 52.34961565436487 1.127472279108285, 106.63203005616867 1.764507982879877 M0.5098049510270357 0.7947910260409117 C23.941192024814285 -1.1161205899707665, 48.455085278411104 -0.6756217014781822, 108.31811702934408 0.8687901329249144 M109.38522772615158 1.3692357279360294 C105.56948740601854 14.706856023985894, 106.25548930287675 31.5075843827799, 107.14745704953873 64.4409049488604 M107.18366754737997 -0.14215375669300556 C107.59318120645673 23.72735228901729, 108.38114167617948 46.56339390296489, 107.01867932764196 62.2114912699908 M106.11980144803726 62.477364871650934 C81.29089745518289 61.0938016356163, 56.63493276286561 63.50757505308914, -0.22245505824685097 64.37188336625695 M107.18652171579504 62.131409807130694 C66.12051012355371 61.22124028523685, 25.777263500184446 61.71672040541889, 0.13105790503323078 62.79613385908306 M1.4856376312673092 63.714098904281855 C1.6607012294698507 40.71237042127177, -0.44982855091802776 16.34489257913083, -0.5401655770838261 1.6674285866320133 M-0.8836711179465055 62.81146560423076 C0.9646793256979436 42.011203257832676, -0.33401868236251175 22.41807706560939, -0.1719160210341215 -0.5582513380795717" stroke="#000000" stroke-width="1" fill="none"></path></g><g transform="translate(506.3402741908942 279.7125143947898) rotate(0 20.41666666666663 19.166666666666686)"><path d="M17.225372062023077 -0.6750246817251977 C21.054767669847635 -1.6048441763989283, 26.917426873727536 0.3577059023691551, 30.700921231089133 2.76424034957655 C34.48441558845073 5.170774796783945, 38.337296492310706 9.807043671659304, 39.92633820619265 13.76418200151917 C41.5153799200746 17.721320331379037, 42.002437806990486 22.83510338773819, 40.23517151438083 26.50707032873575 C38.467905221771176 30.17903726973331, 33.432146604873736 33.7994783903724, 29.322740450534724 35.79598364750453 C25.21333429619571 37.792488904636656, 19.71917998927571 39.421844269355006, 15.578734588346745 38.48610187152853 C11.43828918741778 37.55035947370206, 7.076406982592607 33.56271736457717, 4.48006804496093 30.18152926054568 C1.8837291073292541 26.800341156514197, 0.00486019762654107 22.127467572199425, 0.0007009625566887223 18.198973247339627 C-0.0034582725131636254 14.270478922479827, 0.8074850040119048 9.65808570238105, 4.455112634541816 6.610563311386885 C8.102740265071727 3.5630409203927207, 18.269396012089317 0.719935761112868, 21.886466745736158 -0.08616109862536092 C25.503537479383 -0.8922579583635898, 26.371023847566143 1.5629687745083778, 26.157537036422866 1.7739821529575117 M14.458685117770953 1.8639278422718562 C18.50738578568641 0.7081859865358295, 24.96121223555279 0.2938745817423307, 29.113490425860185 1.9995993608856786 C33.265768616167584 3.7053241400290267, 37.49277929598443 8.612450109926517, 39.372354259615335 12.098276517131943 C41.25192922324624 15.584102924337369, 41.41525515201895 18.966358496673763, 40.390940207645635 22.91455780411824 C39.36662526327232 26.862757111562715, 36.63408469595493 33.08047992632706, 33.226464593375425 35.78747236179879 C29.818844490795918 38.494464797270524, 24.531252407631165 39.69312894334062, 19.945219592168584 39.15651241694863 C15.359186776706006 38.61989589055664, 9.089306723113891 35.41541514742981, 5.710267700599953 32.56777320344685 C2.3312286780860156 29.720131259463884, -0.050096986870119764 26.22217309911085, -0.32901454291503995 22.070660753050838 C-0.6079320989599601 17.919148406990825, 1.2100944907645244 11.449949874513603, 4.036762364330432 7.658699127086779 C6.86343023789634 3.8674483796599546, 14.683353221736612 0.24072349725946152, 16.630992698480405 -0.6768437315101075 C18.5786321752242 -1.5944109602796765, 15.968447643120403 1.7593736258711399, 15.722599224793193 2.153295754469365" stroke="#228be6" stroke-width="4" fill="none"></path></g><g transform="translate(529.3402741908942 288.8791810614565) rotate(0 5 6.25)"><path d="M4.80204596635105 0.5217734395595555 C5.90024137832302 0.1563027719358887, 7.104213745629287 -0.20660255011102502, 7.852421735649709 0.4355593676922851 C8.60062972567013 1.077721285495595, 9.065946314637618 3.0711592777429972, 9.29129390647358 4.374744946379416 C9.516641498309543 5.6783306150158355, 9.514627949305346 7.188400708135378, 9.204507286665482 8.2570733795108 C8.894386624025618 9.325746050886222, 8.294350268126253 10.004183803122377, 7.430569930634396 10.786780974631949 C6.56678959314254 11.56937814614152, 5.057088042370458 12.86274642304875, 4.021825261714345 12.952656408568227 C2.9865624810582325 13.042566394087705, 2.0300134232845926 12.349029135540459, 1.218993246697722 11.32624088774882 C0.4079730701108514 10.303452639957182, -0.9137949668280472 8.239082983946474, -0.844295797806879 6.815926921818398 C-0.7747966287857109 5.392770859690321, 0.5851999890635853 3.8188126357683982, 1.635988260824731 2.78730451498036 C2.686776532585877 1.7557963941923214, 4.70351326138825 1.14820764313779, 5.460433832759995 0.626878197090166 C6.217354404131741 0.10554875104254224, 6.130799400878859 -0.3432791043568777, 6.177511689055204 -0.3406721613053829 M6.431749821744126 0.9084159264147855 C7.328866287235298 0.7747681616468994, 6.964067808513258 0.9442980550245168, 7.474344747011344 1.485490261515574 C7.984621685509429 2.0266824680066313, 9.2640765437306 2.8851508167086424, 9.49341145273264 4.155569165361129 C9.722746361734682 5.425987514013616, 9.28364745322058 7.871951041830778, 8.850354201023592 9.108000353430493 C8.417060948826604 10.344049665030207, 7.588610184443089 11.023907116024791, 6.893651939550713 11.571865034959414 C6.198693694658337 12.119822953894037, 5.787426412818431 12.605489322072811, 4.680604731669334 12.395747867038224 C3.5737830505202366 12.186006412003637, 0.9110402406930104 11.444332519028439, 0.2527218526561299 10.313416304751891 C-0.4055965353807506 9.182500090475344, 0.5095957617819247 7.298209800041542, 0.7306944034480507 5.61025058137894 C0.9517930451141767 3.9222913627163383, 0.8155665700264759 1.0724771874558088, 1.579313702652886 0.18566099277627934 C2.3430608352792963 -0.7011552019032501, 4.829330869086239 0.30888636594966457, 5.313177199206511 0.2893534133017637 C5.7970235293267836 0.2698204606538628, 4.304450249228789 -0.1981248630986882, 4.48239168337452 0.06846327688887399" stroke="none" stroke-width="0" fill="#228be6"></path><path d="M6.585240417835921 0.89390896525844 C7.406569819789135 0.8719805299803084, 7.452205189044797 0.4800437612959946, 7.933545413492661 1.2651575432476108 C8.414885637940525 2.050271325199227, 9.3369373741742 4.217034136352642, 9.473281764523104 5.604591656968137 C9.609626154872009 6.992149177583632, 9.181216118116117 8.46035177334186, 8.751611755586087 9.590502666940578 C8.322007393056056 10.720653560539297, 7.883374806237597 11.968599106702172, 6.89565558934292 12.38549701856045 C5.907936372448243 12.802394930418728, 3.7980055001629727 12.686528984187744, 2.8252964542180243 12.091890138090253 C1.852587408273076 11.497251291992763, 1.6284773934460297 9.980076532395742, 1.059401313673229 8.817663941975503 C0.49032523390042837 7.655251351555266, -0.8988793922890239 6.2761642249217795, -0.5891600244187796 5.117414595568825 C-0.2794406565485352 3.9586649662158697, 1.7335614909012929 2.7289127505784276, 2.917717520894695 1.8651661658577732 C4.101873550888097 1.0014195811371187, 5.99106715392009 0.24100557080465262, 6.515776155541634 -0.06506491275510129 C7.040485157163177 -0.3711353963148552, 6.042043521340332 -0.13929068286331603, 6.065971530623953 0.028743264499249577 M4.637070172357723 1.2210137657611417 C5.296468718735293 1.0163985208883606, 6.1165361817139114 -0.39859601000833905, 7.012591625387669 0.047900258861790945 C7.908647069061427 0.49439652773192094, 9.707548408699513 2.3400616467695814, 10.013402834400267 3.899991378981922 C10.319257260101022 5.459921111194262, 9.343046083513958 8.280895190400878, 8.847718179592196 9.407478652135834 C8.352390275670434 10.53406211387079, 7.636706169545961 10.094680328406689, 7.041435410869691 10.65949214939166 C6.4461646521934215 11.224303970376631, 6.1585216229260915 13.009903372016828, 5.27609362753458 12.796349578045657 C4.393665632143069 12.582795784074486, 2.4149017332463343 10.311473438084278, 1.7468674385206207 9.378169385564636 C1.078833143794907 8.444865333044994, 1.4806309108102476 8.350149068334288, 1.2678878591802984 7.1965252629278105 C1.0551448075503493 6.042901457521333, 0.11574093953761128 3.397424000680527, 0.470409128740926 2.456426553125774 C0.8250773179442408 1.515429105571021, 2.7652348298975378 2.0954951521354164, 3.3958969944001867 1.5505405775992918 C4.0265591589028356 1.0055860030631671, 4.287758500840295 -0.4525377982598238, 4.254382115756821 -0.8133008940909727" stroke="#228be6" stroke-width="2" fill="none"></path></g><g transform="translate(520.4221455359232 301.6028222723269) rotate(0 3.25 3.25)"><path d="M1.9685344935728388 1.1500601333606313 C2.468636594680643 0.8371777612559947, 2.6312279137861956 0.39583068574894076, 3.3975545564839917 0.5241979894526874 C4.1638811991817875 0.652565293156434, 6.001615852465305 1.2882543134512374, 6.5664943497596155 1.9202639555831111 C7.131372847053926 2.5522735977149846, 6.992313600160454 3.8061190770921796, 6.786825540249854 4.31625584224393 C6.581337480339254 4.82639260739568, 5.8004519725289265 4.614986590507783, 5.333565990296017 4.981084546493612 C4.866680008063107 5.347182502479441, 4.668503404288182 6.37105714233133, 3.985509646852395 6.512843578158905 C3.3025158894166085 6.65463001398648, 1.8535642782666177 6.096161101569961, 1.235603445681296 5.831803161459062 C0.6176426130959746 5.567445221348163, 0.3201973228565303 5.687279981928623, 0.2777446513404662 4.926695937493513 C0.23529197982440211 4.166111893058402, 0.6208598028456032 2.1170304168873852, 0.9808874165849115 1.2682988948484004 C1.3409150303242199 0.4195673728094155, 2.241757428750616 0.08549336631616683, 2.437910333776316 -0.1656931947403968 C2.6340632388020158 -0.4168797557969604, 2.174043102515224 -0.3525661511840441, 2.1578048467391095 -0.2388204714909814 M2.23675910036613 0.9298683105788261 C2.7682264635625007 0.7947302204763956, 4.885034197301683 0.831133163216043, 5.535112200054694 0.8117895941277911 C6.185190202807706 0.7924460250395391, 5.94757191024415 0.17469575896939582, 6.1372271168841985 0.8138068960493143 C6.326882323524247 1.4529180331292328, 6.960172566184399 3.781173590805143, 6.6730434398949825 4.646456416607302 C6.385914313605566 5.511739242409462, 4.840009798503628 5.494091913705222, 4.414452359147699 6.0055038508622705 C3.9888949197917696 6.516915788019319, 4.761313422180652 7.923103720716103, 4.119698803759406 7.714928039549594 C3.4780841853381608 7.5067523583830855, 1.2667323019237848 5.540447039199182, 0.5647646486202262 4.75644976386322 C-0.13720300468333235 3.9724524885272574, -0.34989431457244113 3.5250377149284073, -0.09210711606194577 3.0109443875338204 C0.1656800824485496 2.4968510601392335, 1.826340043130654 2.2663039577158552, 2.1114878396831984 1.6718897994956978 C2.3966356362357426 1.0774756412755404, 1.2732050917700246 -0.3477351977274663, 1.6187796632533205 -0.555540561787125 C1.9643542347366163 -0.7633459258467836, 4.043029902190722 0.4416387370456369, 4.184935268582974 0.42505761513774587" stroke="none" stroke-width="0" fill="#228be6"></path><path d="M3.9836651426116982 0.17249691950378843 C4.487381634263448 0.21688651239197823, 4.048317674913102 0.9642014759138238, 4.562198118172514 1.5396406910806721 C5.076078561431926 2.1150799062475203, 6.721564934616848 3.089701149775483, 7.066947802168171 3.6251322105048787 C7.412330669719494 4.160563271234274, 7.109732010176804 4.347637770867563, 6.634495323480454 4.752227055457046 C6.159258636784105 5.156816340046528, 4.834685590397722 5.7602070583270075, 4.215527681990073 6.05266791804177 C3.596369773582424 6.345128777756533, 3.609775002029675 6.546868572943153, 2.91954787303456 6.506992213745621 C2.2293207440394447 6.467115854548088, 0.69810082287947 6.4075929614475, 0.07416490801938114 5.813409762856573 C-0.5497710068407077 5.219226564265646, -1.1384484470133966 3.847892167471737, -0.8240676161259732 2.9418930222000608 C-0.5096867852385498 2.0358938769283847, 1.2652754562373172 0.8236016676051925, 1.9604498933439216 0.3774148912265156 C2.655624330450526 -0.0687718851521612, 2.9643809738388507 0.3722439993904972, 3.346979006513653 0.26477236392799997 C3.729577039188455 0.15730072846550275, 4.068000384923465 -0.2397615418879203, 4.256038089392733 -0.2674149215484678 M2.7606753708964016 -0.6634516070109906 C3.384104200069563 -0.8254772066162515, 5.217936217809731 0.770347820030709, 5.649660689857169 1.1983533737402112 C6.081385161904606 1.6263589274497134, 5.347163524154377 1.2210566471264905, 5.35102220318103 1.9045817152460227 C5.3548808822076825 2.588106783365555, 5.66626551675829 4.828563436765966, 5.6728127640170865 5.299503782457405 C5.679360011275883 5.770444128148844, 5.973930422091764 4.749670636862764, 5.39030568673381 4.730223789394655 C4.8066809513758555 4.710776941926546, 2.7073623949104624 4.911443539371655, 2.17106435186936 5.182822697648749 C1.634766308828258 5.454201855925843, 2.6298235490779773 6.640096835260146, 2.172517428487197 6.35849873905722 C1.7152113078964162 6.0769006428542935, -0.2490832106141207 4.078896673937827, -0.5727723716753235 3.4932341204311905 C-0.8964615327365262 2.907571566924554, -0.32224556132401894 3.2726483205977277, 0.23038246211998015 2.844523418017401 C0.7830104855639792 2.416398515437074, 2.494373332809901 1.4446160809945945, 2.742995768988671 0.9244847049492302 C2.991618205167441 0.4043533289038659, 1.6895489417706786 -0.06823100096442389, 1.7221170791926006 -0.276264838254785" stroke="#228be6" stroke-width="2" fill="none"></path></g><g transform="translate(585.6874964131163 215.5048014850646) rotate(0 58.333333333333314 57.5)"><path d="M1.1795418001711369 1.6622360609471798 L118.46356464798248 -1.9375439025461674 L117.48494686062133 114.2032423876226 L-0.2867070697247982 115.36303731426597" stroke="none" stroke-width="0" fill="#fff"></path><path d="M-0.5416179038584232 -0.4378371499478817 C44.83990650686124 -0.373163462616503, 86.73116221030551 1.3328119507059457, 117.18306208277738 -1.0768689177930355 M-0.5215516816824675 0.17877350561320782 C25.59529319405555 -0.05302878934890043, 51.67763985507189 0.26476463954895724, 116.51210537242389 -0.8282343912869692 M116.56037474299467 1.1825524307787418 C115.87259909395746 38.30995890777558, 118.23518714193872 76.72115215845406, 118.05158126975095 114.21280548349023 M115.70451441096759 -0.05153484828770161 C117.64180689730367 42.328877507708974, 116.88862394966802 83.6024001389742, 116.84773656415439 115.42502163164318 M117.80331409598386 114.10806057229638 C80.30143976149458 115.37086654547602, 41.321747891604886 114.02876914385706, -0.6143678762018681 114.84824785962701 M116.61636325406528 114.80397032015026 C88.27880365028975 114.69348608795553, 61.980598370855034 113.42160742823035, 0.13752208836376667 115.32872740738094 M-1.627863321453333 116.40961012616754 C-1.751074650231749 79.40181354153901, -1.1852624201215805 45.21613380871713, -1.1754217483103275 1.2167873121798038 M0.07562814839184284 115.64635102264583 C-0.020221556257456585 82.18961211759597, 0.5404497136361897 50.49549032375216, 0.42213170416653156 0.7194918226450682" stroke="#000000" stroke-width="1" fill="none"></path></g><g transform="translate(506.5208297464495 332.2278222723269) rotate(0 22 12.5)"><text x="0" y="18" font-family="Virgil, Segoe UI Emoji" font-size="16px" fill="#000000" text-anchor="start" style="white-space: pre;" direction="ltr">Oled 1</text></g><g transform="translate(586.9135391719566 225.4355351820521) rotate(270 16.5 12.5)"><text x="16.5" y="18" font-family="Virgil, Segoe UI Emoji" font-size="16px" fill="#000000" text-anchor="middle" style="white-space: pre;" direction="ltr">VCC</text></g><g transform="translate(607.4008370048424 227.9355351820521) rotate(270 18.999999999999943 12.5)"><text x="19" y="18" font-family="Virgil, Segoe UI Emoji" font-size="16px" fill="#000000" text-anchor="middle" style="white-space: pre;" direction="ltr">GND</text></g><g transform="translate(632.7341703381753 224.9355351820521) rotate(270 16 12.5)"><text x="16" y="18" font-family="Virgil, Segoe UI Emoji" font-size="16px" fill="#000000" text-anchor="middle" style="white-space: pre;" direction="ltr">SCL</text></g><g><g transform="translate(603.9071880883995 214.26886851538558) rotate(0 0.5350407582208732 -12.48127250187099)"><path d="M0.8817404247820377 -1.5079553462564945 C1.4652521941811063 -8.661638331351183, 0.8571616731584505 -14.23605051779499, 0.22882951671886076 -22.837065134197474 M0.258197708055377 -0.5384344588965178 C-0.49406809339918395 -6.5857960557316755, 0.31630534710988006 -14.996711792585753, 0.8454401722799503 -24.424110544845462" stroke="#c92a2a" stroke-width="1" fill="none"></path></g></g><g><g transform="translate(627.9071880883994 216.26886851538552) rotate(0 0.126711773056968 -22.70964802460125)"><path d="M-1.5079553462564945 1.487480852752924 C-1.925905750940214 -17.44280170888951, -0.3967793699353345 -36.69902926053854, 1.829601532469269 -46.63775951291126 M-0.5384344588965178 -0.7697653938084841 C0.42911016928654944 -12.708921008917198, -0.5678763521213921 -24.916636143984906, 0.2425561218212806 -46.906776901955425" stroke="#000000" stroke-width="1" fill="none"></path></g></g><g><g transform="translate(651.2405214217329 216.9355351820522) rotate(0 0.35885772947221994 -34.650719467240094)"><path d="M1.487480852752924 -1.8117567636072636 C0.3835938998560109 -26.88536031718057, -0.7435071638723216 -51.52454996084177, 0.028907153755426407 -69.95611440514529 M-0.7697653938084841 0.6546754706650972 C-0.33937260267635194 -27.33581124755245, -0.0002435719718536511 -54.052629676585425, -0.2401102352887392 -69.69450095606351" stroke="#5c940d" stroke-width="1" fill="none"></path></g></g><g><g transform="translate(673.2405214217329 215.60220184871883) rotate(0 -0.18710190399224302 -46.265177654102445)"><path d="M0 0 C0 0, 0 0, 0 0 M0 0 C0 0, 0 0, 0 0 M0.3783414028584957 -1.0821426175534725 C0.4659878025949109 -24.993499007609984, -0.6290300668030762 -51.96765777075043, 0.6843075019618254 -91.12590613588691 M0.5337408054620028 0.20242045633494854 C-0.8462065982073406 -34.01769704395284, 0.23112014174464163 -67.77547981390109, -1.0585113099465389 -92.73277576453984" stroke="#364fc7" stroke-width="1" fill="none"></path></g></g><g transform="translate(657.3541630797827 228.0048014850646) rotate(270 17.5 12.5)"><text x="17.5" y="18" font-family="Virgil, Segoe UI Emoji" font-size="16px" fill="#000000" text-anchor="middle" style="white-space: pre;" direction="ltr">SDA</text></g><g transform="translate(589.8541630797828 263.4214681517313) rotate(0 53.854166666666686 31.25)"><path d="M1.6622360609471798 1.7968979813158512 L105.7707894307872 0.8182801939547062 L106.91157572095597 62.2132929302752 L0.3630373142659664 62.67419693246484" stroke="none" stroke-width="0" fill="#000"></path><path d="M-0.4378371499478817 1.1629348658025265 C22.58434208307882 -0.3310972631714927, 46.84575242572466 0.8080792247511758, 106.63146441554034 -1.5395307876169682 M0.17877350561320782 -0.42411054484546185 C39.12379014666659 0.20058700108202188, 78.80548395751978 0.4071933295694181, 106.8800989420464 0.2976981867104769 M108.89088576411211 -1.011613879352808 C107.75659352595301 21.283291052561253, 108.244257629461 41.249548370949924, 106.9211388168236 63.83349355682731 M107.65679848504567 0.36133830435574055 C107.99613567449467 21.694035390857607, 107.10207035400288 44.352829965762794, 108.13335496497655 62.7191810477525 M106.81639390562975 63.69188531860709 C75.94037941024486 62.881437673493444, 41.334113602604106 62.49776412479502, -0.15175214037299156 61.272432055324316 M107.51230365348363 61.95132397301495 C75.89051282603762 63.438124715649366, 41.941312254328906 62.58334112104106, 0.32872740738093853 62.50068168528378 M1.4096101261675358 61.790400233119726 C-0.8914852619636804 37.946022879797965, -0.569325614022091 12.504199084825814, 1.2167873121798038 -0.4596537686884403 M0.6463510226458311 62.51021413691342 C-0.6606497976463288 44.155474030878395, -0.49778076144866645 25.09130895230919, 0.7194918226450682 0.5897709000855684" stroke="#000000" stroke-width="1" fill="none"></path></g><g transform="translate(626.0208297464496 278.8381348183979) rotate(0 20.41666666666663 19.166666666666686)"><path d="M20.822410021042764 -0.5379339573930508 C24.903589914580326 -0.7899030930792044, 29.622250673129475 2.563026494860745, 32.88316546210796 5.2282410018918135 C36.14408025108645 7.893455508922882, 39.501333393973106 11.583794198031821, 40.38789875491368 15.45335308479336 C41.27446411585425 19.3229119715549, 40.4304344551947 24.877290180914933, 38.20255762775139 28.44559432246104 C35.97468080030808 32.01389846400715, 31.158901829671336 35.44160426937829, 27.020637790253836 36.86317793407001 C22.882373750836337 38.28475159876173, 17.570784827357482 38.297650496639584, 13.3729733912464 36.975036310611344 C9.17516195513532 35.652422124583104, 3.9750161021334 32.56316260246971, 1.8337691735873527 28.927492817900564 C-0.30747775495869467 25.29182303333142, -0.3944315778522661 19.151137432169968, 0.5254918199701173 15.161017603196461 C1.4454152177925006 11.170897774222952, 3.481051230794609 7.424152230445068, 7.353309560521653 4.986773844059517 C11.225567890248698 2.549395457673966, 20.25711176747543 1.017015949438644, 23.759041798332383 0.5367472848831554 C27.260971829189337 0.05647862032766682, 28.229315406649317 1.8892449754513905, 28.364889745663376 2.1051618567265855 M25.65443613014643 0.9779408040622535 C29.623632558296052 2.0130753339703373, 36.08864313803814 6.212445529150029, 38.47766181579382 9.56598195491902 C40.86668049354951 12.91951838068801, 40.725548961003454 16.978225493928544, 39.98854819668057 21.09915935867619 C39.25154743235768 25.220093223423834, 37.20944645624172 31.397527112301393, 34.05565722985651 34.29158514340489 C30.901868003471293 37.185643174508385, 25.72621447762426 38.36324046076272, 21.065812838369283 38.46350754529716 C16.405411199114305 38.563774629831606, 9.65432811207113 37.35633587207418, 6.093247394326637 34.893187650611566 C2.5321666765821433 32.43003942914895, 0.09829222492357531 27.888156461715855, -0.3006714680976792 23.684618216521443 C-0.6996351611189338 19.48107997132703, 1.4411617689377225 13.486028047408821, 3.69946523619911 9.671958179445094 C5.957768703460498 5.857888311481366, 9.368418473434625 2.3897641856487493, 13.249149335470646 0.8001990087390745 C17.12988019750667 -0.7893661681706006, 24.689566718193923 0.28154878640806, 26.98385040841524 0.1345671179870429 C29.278134098636556 -0.012414550433974242, 27.119808276519397 -0.4879866347452679, 27.014851476798544 -0.08169100178702848" stroke="#228be6" stroke-width="4" fill="none"></path></g><g transform="translate(649.0208297464496 288.0048014850646) rotate(0 5 6.25)"><path d="M3.9770279120036687 1.0380157869591375 C4.88419780558763 0.5090113801470795, 5.981891453971581 -0.4952435744814149, 7.043518275132951 -0.07278624172419246 C8.10514509629432 0.34967109103303, 9.986531712497502 2.2058327783176956, 10.346788838971884 3.5727597835024723 C10.707045965446266 4.939686788687249, 9.720908489593388 6.895347651787611, 9.205061033979241 8.128775789384468 C8.689213578365095 9.362203926981325, 7.969808339299065 10.293709886559798, 7.251704105287004 10.973328609083616 C6.5335998712749435 11.652947331607434, 5.888405477354596 12.377284662528899, 4.896435629906879 12.206488124527375 C3.9044657824591615 12.035691586525852, 2.1029354342652136 10.800603048428279, 1.2998850206006987 9.948549381074479 C0.49683460693618375 9.096495713720678, 0.11474925348518497 8.513469638613117, 0.07813314791978954 7.094166120404576 C0.041517042354394094 5.674862602196035, 0.059170505212346125 2.7384531120798448, 1.080188387208326 1.432728271823235 C2.101206269204306 0.12700343156662552, 5.117869679883933 -0.7483531771046182, 6.204240439895669 -0.740182921135081 C7.290611199907405 -0.7320126651655438, 7.605821282283798 1.1081478847845403, 7.598412947278739 1.4817498076404583 M6.573767302974787 0.40506876424074534 C7.805832689626087 0.8051466951163704, 9.208369860071397 2.431956803425101, 9.830681940047018 3.812527828646559 C10.45299402002264 5.193098853868017, 10.621407931856725 7.555584166372719, 10.307639782828517 8.688494915569494 C9.993871633800309 9.821405664766269, 8.779936483916511 9.781248518686418, 7.94807304587777 10.60999232382721 C7.116209607839028 11.438736128968003, 6.307022638672526 13.621246858003147, 5.316459154596062 13.660957746414244 C4.325895670519598 13.700668634825341, 2.76575399963268 12.126996798604653, 2.004692141418985 10.84825765429379 C1.24363028320529 9.569518509982926, 0.8167686926124399 7.470247015031951, 0.7500880053138914 5.988522880549065 C0.6834073180153429 4.506798746066179, 1.3178029333453483 2.873498719683433, 1.6046080176276938 1.9579128473964746 C1.8914131019100393 1.0423269751095163, 1.7134767104864141 0.4953058498329636, 2.470918511007965 0.49500764682731546 C3.228360311529516 0.4947094438216673, 5.332815058571683 2.12272045706398, 6.149258820756998 1.9561236293625859 C6.965702582942313 1.7895268016611918, 7.282040512129866 -0.14496406718584504, 7.369581084119859 -0.5045733193810493" stroke="none" stroke-width="0" fill="#228be6"></path><path d="M3.686230567719268 -0.6941651215967175 C4.646306917484484 -1.0400287906954602, 7.315453266053275 -0.11257651898205756, 8.235796536567694 0.7368102310311837 C9.156139807082113 1.586196981044425, 9.040705187608044 3.148662933760627, 9.20829019080578 4.40215537848273 C9.375875194003516 5.655647823204833, 9.599884221842618 7.025083157079022, 9.241306555754111 8.257764899363801 C8.882728889665604 9.49044664164858, 7.949608621066221 11.248660199735202, 7.05682419427473 11.798245832191402 C6.1640397674832395 12.347831464647602, 4.826134684135099 11.794037117038739, 3.884599995005164 11.555278694100995 C2.9430653058752285 11.31652027116325, 2.145080090610011 11.278387469671895, 1.4076160594951177 10.36569529456494 C0.6701520283802241 9.453003119457986, -0.6092936907105477 7.533858508875734, -0.5401841916841974 6.079125643459262 C-0.47107469265784707 4.6243927780427905, 0.8530985980596735 2.5377656372340143, 1.8222730536532197 1.6372981020661088 C2.791447509246766 0.7368305668982035, 4.519484284418752 0.7949055280725416, 5.27486254187708 0.6763204324518304 C6.030240799335408 0.5577353368311192, 6.453705415855665 0.8230914684608978, 6.354542598403184 0.925787528341842 M6.24126733063818 0.7632515989451587 C7.229539077825078 1.164349500487162, 8.91247346507336 1.0476145758226576, 9.352184904891498 2.1033883656566643 C9.791896344709636 3.1591621554906713, 8.912384749255828 5.611701904463907, 8.879535969547007 7.097894337949199 C8.846687189838185 8.58408677143449, 9.711173435004081 10.36485482654474, 9.155092226638569 11.020542966568415 C8.599011018273057 11.676231106592091, 6.574918975126958 11.08836348663024, 5.54304871935393 11.032023178091254 C4.511178463580902 10.97568286955227, 3.7114147107740934 11.027980757541584, 2.963870692000402 10.6825011153345 C2.2163266732267104 10.337021473127415, 1.5007273794758833 10.12363994694949, 1.057784606711781 8.959145324848748 C0.6148418339476789 7.794650702748006, 0.07432159712119177 5.112317484056427, 0.30621405541578817 3.695533382730049 C0.5381065137103845 2.2787492814036714, 1.600526091621496 1.0290211036028778, 2.4491393564793595 0.4584407168904816 C3.297752621337223 -0.11213966982191459, 5.007244260488854 0.3040638251605374, 5.397893644562968 0.272051062455672 C5.788543028637083 0.2400382997508066, 4.7105732478531825 0.3115217031217646, 4.793035660924045 0.2663641406612891" stroke="#228be6" stroke-width="2" fill="none"></path></g><g transform="translate(640.1027010914786 300.728442695935) rotate(0 3.25 3.25)"><path d="M4.378927668507935 -0.31049879995795715 C4.851307719288311 -0.18908888186141004, 4.399895511457403 1.1692088073769396, 4.691247077042232 1.6145766851866283 C4.98259864262706 2.059944562996317, 5.929846748171612 1.8507300148714705, 6.127037062016909 2.3617084669001756 C6.324227375862205 2.8726869189288804, 6.301995639970736 3.910473821505411, 5.874388960114011 4.680447397358859 C5.4467822802572865 5.450420973212307, 4.256894552488188 6.720478202759168, 3.5613969828765595 6.9815499220208626 C2.8658994132649314 7.2426216412825575, 2.3179656514576474 6.618234878109362, 1.7014035424442437 6.246877712929026 C1.08484143343084 5.875520547748689, 0.02191418122931013 5.38167217494708, -0.13797567120386223 4.753406930938842 C-0.29786552363703456 4.125141686930603, 0.655145886745911 3.0705888193231217, 0.7420644278452095 2.4772862488795973 C0.8289829689445081 1.8839836784360728, -0.00804615283427701 1.525774190490146, 0.38353557539192895 1.1935915082776942 C0.7751173036181349 0.8614088260652424, 2.325549163931079 0.5465920447525243, 3.0915547972024453 0.48419015560488576 C3.8575604304738116 0.4217882664572472, 4.719829747469835 0.6866615998339365, 4.9795693750201275 0.8191801733918629 M1.521558253928407 0.6461545874702184 C2.007158725829775 0.4834905201105181, 3.2298352365797043 0.4445175327873659, 4.0700437570011365 0.5690547862910305 C4.910252277422568 0.693592039794695, 6.292482691944604 0.7892498335738185, 6.5628093764569995 1.3933781084922057 C6.8331360609693945 1.9975063834105928, 5.644453013083592 3.4226263782582667, 5.6920038640755095 4.1938244358013534 C5.739554715067427 4.96502249334444, 7.142676572371912 5.518444746804788, 6.848114482408501 6.0205664537507255 C6.5535523924450905 6.522688160696663, 4.934313429594274 7.099687404935565, 3.9246313242950417 7.206554677476978 C2.914949218995809 7.313421950018391, 1.5252537074876718 7.372257669376412, 0.7900218506131049 6.6617700889992015 C0.05478999373853799 5.951282508621991, -0.4458094278399359 3.8876763623836657, -0.48675981695236015 2.9436291952137115 C-0.5277102060647845 1.9995820280437573, -0.0489093067285421 1.3855004712021073, 0.5443195159385592 0.9974870859794751 C1.1375483386056606 0.6094737007568429, 3.0750686416211974 0.7565135046411264, 3.0726131190502475 0.6155488838779184 C3.0701575964792975 0.47458426311471036, 0.9578037908695249 0.15110934148398444, 0.5295863805128596 0.15169936140022688" stroke="none" stroke-width="0" fill="#228be6"></path><path d="M3.8460466029525495 0.9555980573875753 C4.3940085756685585 1.1987700065921891, 5.577518925340167 0.8967090284411601, 6.031547586633955 1.3472509822278211 C6.485576247927744 1.7977929360144822, 6.761983214494946 2.959025115495974, 6.570218570715284 3.658849780107542 C6.378453926935621 4.35867444471911, 5.467182216001929 5.100373899243708, 4.8809597239559785 5.54619896989723 C4.294737231910028 5.992024040550751, 3.8447638600308838 6.2828684898106015, 3.052883618439579 6.333800204028669 C2.2610033768482745 6.384731918246736, 0.6047774199108309 6.407316037231507, 0.1296782744081506 5.851789255205633 C-0.3454208710945297 5.296262473179758, 0.1356100408901369 3.64525237887308, 0.2022887454234974 3.00063951187342 C0.2689674499568579 2.35602664487376, 0.24765940425782978 2.4331913907108453, 0.5297505016083135 1.9841120532076735 C0.8118415989587973 1.5350327157045016, 1.049804030042511 0.4865821181103349, 1.8948353295263995 0.306163486854389 C2.739866629010288 0.12574485559844306, 4.93792299180302 0.8995340141413316, 5.599938298511645 0.9016002656719979 C6.26195360522027 0.9036665172026642, 5.896291407664868 0.25602123936440185, 5.866927169778148 0.31856099603838706 M4.120379413790597 0.25856583378953424 C4.925299025103501 0.11381378993126523, 4.551734259036431 -0.6801410792832463, 4.992149757652662 -0.11499419340341044 C5.432565256268893 0.4501526924764254, 6.559103222777345 2.749681983783809, 6.762872405487984 3.6494471490685494 C6.966641588198623 4.54921231435329, 6.90850483264004 4.682976670527333, 6.214764853916495 5.283596798305032 C5.521024875192949 5.884216926082731, 3.4417934144206543 6.955437934630281, 2.600432533146711 7.253167915734743 C1.7590716518727674 7.550897896839205, 1.3653723846880805 7.5439571629598206, 1.1665995662728337 7.069976684931804 C0.9678267478575869 6.595996206903788, 1.5625017777542698 5.270219112439375, 1.4077956226552302 4.409285047566647 C1.2530894675561906 3.5483509826939192, 0.25476787305224097 2.6990286963043837, 0.2383626356785964 1.904372295695437 C0.2219573983049518 1.1097158950864903, 0.7442281581429436 0.20583053489932068, 1.3093641984133626 -0.3586533560870335 C1.8745002386837815 -0.9231372470733877, 3.2646813438350337 -1.5068490012521532, 3.62917887730111 -1.482531050222688 C3.9936764107671863 -1.458213099193223, 3.6474590919177188 -0.7313709010985393, 3.4963493992098194 -0.21274564991024336" stroke="#228be6" stroke-width="2" fill="none"></path></g><g transform="translate(626.2013853020048 331.353442695935) rotate(0 26.5 12.5)"><text x="0" y="18" font-family="Virgil, Segoe UI Emoji" font-size="16px" fill="#000000" text-anchor="start" style="white-space: pre;" direction="ltr">Oled 2</text></g><g transform="translate(506.4305519686719 349.16501206052294) rotate(0 19 12.5)"><text x="0" y="18" font-family="Virgil, Segoe UI Emoji" font-size="16px" fill="#000000" text-anchor="start" style="white-space: pre;" direction="ltr">0x78</text></g><g transform="translate(626.1111075242275 348.29063248413104) rotate(0 19 12.5)"><text x="0" y="18" font-family="Virgil, Segoe UI Emoji" font-size="16px" fill="#000000" text-anchor="start" style="white-space: pre;" direction="ltr">0x7A</text></g><g transform="translate(463.8271957712774 421.65274444390514) rotate(0 20.17911805653449 19.6550345340074)"><path d="M1.8856892250478268 0.1045822836458683 C12.009920168963337 -1.2421356795949214, 24.206382405603456 -1.8310821412724727, 40.092954283086044 -1.4192151091992855 M0.6061033476144075 -0.7853073049336672 C14.69260226831795 0.5841872947604618, 29.463352974299813 -0.27868333884168056, 39.670197035623175 -0.3343073893338442 M42.32964194330333 1.7308312393724918 C41.33851732170172 13.355137101150929, 39.152277244682985 27.700729736611006, 40.174364095059616 39.62388773509878 M40.05791857416688 -0.6279203463345766 C39.73237658213369 11.679759195497462, 39.33173269699804 24.661799012598056, 41.258757914853675 38.397963014111106 M40.285471921292526 38.909767823904936 C30.404442741751637 41.21217065146408, 16.60809602681036 39.20015137484512, 0.09223612770438194 39.64018948623556 M39.47269710476456 39.456599202618186 C28.935041318803986 39.10044885774994, 19.15548985718423 38.83540613552475, 0.07865368016064167 40.00186410234887 M0.9381156824529171 39.09217675277609 C-2.2093805920134586 29.92689915617034, -1.81739648690329 17.02123841137123, -1.1309271194040775 1.0170192457735538 M-0.28792775981128216 38.74917521761376 C-1.2747476357487941 26.122207477563546, 0.45096269664485206 13.039106848719385, 0.5536929834634066 -0.6859952379018068" stroke="#000000" stroke-width="1" fill="none"></path></g><g transform="translate(536.8809176494398 423.09935660433064) rotate(0 20.17911805653449 19.6550345340074)"><path d="M-0.8225661851465702 1.9076767899096012 L41.82456183942912 1.0091371275484562 L40.416520004597885 40.73179705688376 L0.23175069317221642 38.14777918407339" stroke="none" stroke-width="0" fill="#fff"></path><path d="M0.1045822836458683 0.2914138697087765 C9.890762476052956 0.38885435219258363, 20.353673778079184 -0.645797284884748, 38.939021003869755 1.0674638412892818 M-0.7853073049336672 0.43108354695141315 C12.027418911911505 0.6957029114473008, 22.358072298556483 -0.932651697565303, 40.023928723735196 0.6480094660073519 M42.08906735244153 0.954755749553442 C39.53489342955571 10.81679098373152, 39.540135658063704 23.912678604384208, 40.67205478015302 39.65094787874836 M39.73031576673446 -0.34303791634738445 C39.87980565413316 8.22112277304171, 40.39882627114137 18.830130950834125, 39.44613005916534 39.03874108256418 M39.95793486895917 40.36871464052815 C27.197901705797676 37.57012369725614, 10.145117230380325 39.38762202355772, 0.33012041822075844 38.55277700224537 M40.50476624767242 38.46619650782663 C26.15550802977577 38.9085793564389, 12.260090067616424 39.03133482433059, 0.6917950343340635 38.94817140759546 M-0.21789231523871422 37.43012018004078 C0.6985823116941563 22.73476652435216, -1.8366799153642543 8.00446642701315, 1.0170192457735538 0.5360127352178097 M-0.5608938504010439 38.4030163592251 C-0.06073964000047005 24.658756701623425, -0.2972846663028077 8.923822071487567, -0.6859952379018068 0.32387124188244343" stroke="#000000" stroke-width="1" fill="none"></path></g><g transform="translate(478.87749300778376 382.8074540484044) rotate(0 47.075051002477835 13.260577747176853)"><text x="47.07505100247782" y="17.521155494353703" font-family="Virgil, Segoe UI Emoji" font-size="21.216924395482973px" fill="#000000" text-anchor="middle" style="white-space: pre;" direction="ltr">Ws2812B</text></g><g transform="translate(470.59902172577006 430.31141711644966) rotate(0 11.101141176988676 9.832746445664839)"><path d="M0.9852705035198404 7.48154754861537 C0.9852705035198404 7.48154754861537, 0.9852705035198404 7.48154754861537, 0.9852705035198404 7.48154754861537 M0.9852705035198404 7.48154754861537 C0.9852705035198404 7.48154754861537, 0.9852705035198404 7.48154754861537, 0.9852705035198404 7.48154754861537 M2.0443042886049874 12.301427699986318 C3.787488602879088 10.26872458924794, 6.63656144091193 9.234209525985131, 9.85806333286406 4.10307735771253 M1.1113763876797087 12.538722135859945 C3.919192981172536 10.353276018862786, 7.024273328240617 6.371911353235272, 9.351306007557525 4.420227485972784 M3.4961496728030017 15.58971468564668 C6.2859295014185435 10.506523357429701, 12.279380377128124 6.194920806499504, 14.019034714411339 2.5317945036568945 M3.196249423597472 16.504785285523024 C6.318194508936543 12.986563424883148, 10.588320823665716 8.550119720323663, 15.046582505452772 2.491215864708394 M5.1349507071889855 20.434093913776422 C9.350321283182707 14.762517484276579, 10.765783470451954 14.727610610121648, 18.454826112171556 4.53780820741516 M7.411197204596541 19.12877027389183 C9.992287644977656 16.30134059432436, 11.895536904165976 13.93795158504194, 19.648956542169596 4.407794642813619 M9.748113221304267 20.721265192709854 C14.942105132277424 15.86842378969418, 16.495390043044676 12.447496854320619, 21.826257807985638 8.357041193050534 M11.816983773188442 19.971675193689755 C13.23648189792526 17.470408295396105, 15.447034652584295 14.841849502541978, 21.77172829158673 8.162755101424844 M14.982245350178632 20.23271050755902 C18.297893110806758 18.410951304718186, 20.4668637182997 15.384289873461622, 25.37158705822698 10.824927975264341 M15.99716081704602 21.01721166321113 C18.9705980455621 17.928259061433817, 21.567542045713417 14.341463746824747, 24.375879111770008 10.406644550924153 M4.464981250501332 17.727422931176328 C4.464981250501332 17.727422931176328, 4.464981250501332 17.727422931176328, 4.464981250501332 17.727422931176328 M4.464981250501332 17.727422931176328 C4.464981250501332 17.727422931176328, 4.464981250501332 17.727422931176328, 4.464981250501332 17.727422931176328 M11.429786412613058 18.40639597120281 C9.05257418906827 15.326786902993144, 5.842245484799128 13.693238591310813, 3.272746523754185 10.694975717837288 M12.830002914191747 19.457143676081255 C9.965110368052642 17.37099694371009, 7.504104386053914 15.320753623002894, 3.798643030883258 11.445271345326974 M16.898701558474432 18.558922017170858 C10.58588635265495 12.128866019325388, 8.196291976164265 9.63579730482163, 4.316065711183965 6.755431834526249 M15.902883630923908 16.931741225804014 C13.35515581112262 14.905005485779462, 9.874133463541396 12.884725921611611, 2.6630018645250497 6.310489762026705 M19.087149082835527 14.598714814219539 C14.321501748012022 10.078016913107536, 11.844609655916928 6.264980786219446, 6.558069234704853 1.987123787288728 M21.03876615424058 15.106368607539599 C14.93325837480998 11.225565206920319, 11.234889300823173 6.398588125827866, 5.876052752128125 2.369493326057854 M23.058241147794586 10.993478433602752 C17.712561387740177 7.418383090008944, 12.431006230176957 4.2614855658672965, 9.918224201677383 1.1071425943099817 M21.82262524158211 11.378069651034922 C17.71928206510898 9.268723578651606, 13.583715851434775 5.305097557985649, 8.343678174400718 -0.004140077584896096 M22.89761613673271 8.203353350504035 C20.27935308427738 5.646418453203173, 19.444136355853708 3.480396504403934, 14.35385652365578 -1.7257867282558765 M24.187101558602617 7.654152432630503 C20.92935210749562 5.608581998826675, 19.087140791905963 4.236124488292094, 13.564320291992702 -0.029225336697378035" stroke="#228be6" stroke-width="0.5" fill="none"></path><path d="M12.513613030723125 0.7150561376712616 C14.86676142086548 1.0996550792258197, 17.788875781575303 2.848333831084325, 19.50437781351841 4.2662488819351445 C21.219879845461517 5.684163932785964, 22.739393635290973 7.080230159884865, 22.80662522238176 9.222546442776178 C22.87385680947255 11.364862725667491, 21.41317957928961 15.404569809719403, 19.90776733606313 17.12014657928302 C18.40235509283665 18.83572334884664, 16.310079265098587 19.38187429060821, 13.774151763022871 19.516007060157882 C11.238224260947156 19.650139829707555, 6.77930618035616 18.99501152773542, 4.692202323608834 17.924943196581047 C2.6050984668615076 16.854874865426673, 1.8418073503947832 14.867847890171362, 1.2515286225389133 13.095597073231641 C0.6612498946830433 11.32334625629192, 0.2611054144250594 9.189285660790244, 1.1505299564736138 7.291438294942722 C2.0399544985221683 5.3935909290952, 4.510442973284549 2.9650772726641224, 6.588075874830239 1.7085128781465126 C8.66570877637593 0.45194848362890316, 12.313178726595913 -0.08157596118744692, 13.616327365747752 -0.24794807216293435 C14.919476004899591 -0.4143201831384218, 14.348844926028509 0.42150074487543127, 14.406967709741277 0.7102802122935881 M6.251401581970482 0.11482463478835392 C7.9268257608953725 -0.8180762509020995, 11.277004104746805 -1.5681767518186367, 13.611587958990718 -0.5578787522204536 C15.946171813234631 0.45241924737772954, 19.079934304170568 4.245330204554142, 20.258904707433963 6.176612632377452 C21.43787511069736 8.107895060200763, 20.825672215927526 9.162955978628599, 20.68541037857109 11.029815814719411 C20.54514854121465 12.896675650810224, 21.004073801589175 15.988623006730851, 19.41733368329534 17.377771648922327 C17.830593565001504 18.766920291113802, 13.59276592444862 19.12060742128281, 11.164969668808077 19.36470766786826 C8.737173413167532 19.60880791445371, 6.8954033105650385 20.145711656645304, 4.8505561494520695 18.84237312843502 C2.8057089883391004 17.53903460022474, -0.5453196105093662 13.809227666677572, -1.1041132978697377 11.544676498606556 C-1.662906985230109 9.28012533053554, 0.2095563002873393 6.97994529610188, 1.4977940252898403 5.255066120008932 C2.7860317502923415 3.530186943915984, 5.438343298305563 2.157055746120385, 6.625313052145268 1.1954014420488672 C7.812282805984973 0.23374713797734914, 8.423187521864104 -0.3629443245224838, 8.619612548328067 -0.5148597044201768" stroke="#000000" stroke-width="1" fill="none"></path></g><g transform="translate(543.6527436039329 431.7580292768754) rotate(0 11.101141176988676 9.832746445664839)"><path d="M1.4653004933934741 5.248805265868954 C1.4653004933934741 5.248805265868954, 1.4653004933934741 5.248805265868954, 1.4653004933934741 5.248805265868954 M1.4653004933934741 5.248805265868954 C1.4653004933934741 5.248805265868954, 1.4653004933934741 5.248805265868954, 1.4653004933934741 5.248805265868954 M0.38064938384985814 12.035234773203777 C3.7689548969146913 9.289231732610281, 8.14860781892524 5.291734944644051, 9.11152235213542 3.443111113592951 M0.6179438197234858 11.274948829084682 C4.253164649199097 8.671906898747428, 6.085587297779806 6.1367497816292875, 9.428672480395674 2.996952364355294 M2.652769965225999 13.227564744154426 C6.131896299426568 10.795438453702234, 10.379480113440588 5.312582431485616, 14.98868474907524 0.928332272926665 M3.567840565102343 14.400491375165496 C7.3404833236330305 11.40086473159326, 10.187160505584707 6.322271089630606, 14.94810611012674 0.5568515898756153 M6.579633340303788 19.089387468382306 C7.814801342567915 13.545022842916065, 14.666959549555905 9.000366227088037, 18.89871981820811 2.110802767956711 M5.274309700419197 19.811966599285192 C10.108636165666177 13.684769439193019, 15.397972946803304 8.258404912305245, 18.76870625360657 4.226025886992074 M10.142774597540097 21.000467942455742 C13.63510112316858 13.754107431556635, 18.740249151804548 9.919403028837023, 21.626857563762385 5.527566800573685 M9.299485848642485 19.809269905822312 C12.393071345595576 16.294971771347914, 15.3412834045438 14.144939804556898, 21.408285710683483 6.445646828906455 M11.993794437365791 22.478706569864443 C15.618097203242607 19.35280654165329, 17.865214409062336 17.50337826235834, 23.814340719298624 10.78671405366459 M12.890367186682484 22.54188883592098 C16.376120587764323 18.531678713732678, 19.285795220884875 15.248704412021821, 23.336302520052694 10.60479825339117 M5.081636217708997 18.542295625450535 C5.081636217708997 18.542295625450535, 5.081636217708997 18.542295625450535, 5.081636217708997 18.542295625450535 M5.081636217708997 18.542295625450535 C5.081636217708997 18.542295625450535, 5.081636217708997 18.542295625450535, 5.081636217708997 18.542295625450535 M11.339527972991677 19.334295525051097 C7.573318652431855 16.08880516512466, 5.103686827021312 13.174285745780976, 2.4443011048389813 11.399197779543853 M12.390275677870127 19.576757712684014 C10.419642118847184 17.909386006202386, 8.479050741379805 16.310668555222673, 3.1945967323286677 11.71943233417735 M18.179159586779953 16.611356966261358 C10.754263803578965 14.785142081803466, 7.529972417600594 11.668226126644203, 3.1126630268817768 3.4275843055078674 M16.360545761134656 17.90337924209291 C13.313302716933721 13.89320595848834, 10.073770310392172 11.404238702679873, 2.6153748282058165 5.3289460182281125 M18.45788831442093 13.675289095261899 C13.197226906330878 11.64217765137602, 8.738365551015242 8.221069583588474, 3.8732862628448235 2.9514155537589426 M18.96554210774099 14.631546447867361 C15.872773787056847 13.057401674460621, 12.002561706360222 9.82287532273143, 4.255655801613949 2.311421478237116 M21.151785399647768 11.861098155788264 C18.074648049360672 8.007961009965744, 15.287059576633359 8.210571265064411, 9.391089086941967 -0.4389422814544859 M21.536376617079938 11.563754824119737 C19.203187443240296 8.21856377253683, 15.13204843194459 6.1474732462945205, 8.27980641504709 -0.4647973191176177" stroke="#fab005" stroke-width="0.5" fill="none"></path><path d="M6.931478200053078 0.6996950883654147 C9.04345059426837 -0.042719514848335804, 12.502025734074012 0.28568478315216395, 14.580420787158157 0.9381544390226964 C16.6588158402423 1.5906240948932289, 17.999407608842997 2.834455165358161, 19.401848518557948 4.614513023588609 C20.8042894282729 6.394570881819057, 23.07352431456224 9.706034930751592, 22.995066245447866 11.618501588405381 C22.916608176333494 13.530968246059171, 20.805712799007935 14.646551673988194, 18.931100103871714 16.089312969511344 C17.056487408735492 17.532074265034495, 14.101000168833082 19.90567507941741, 11.747390074630546 20.275069361544283 C9.393779980428011 20.644463643671155, 6.539444961098694 19.475814919477415, 4.809439538656503 18.30567866227258 C3.079434116214311 17.135542405067746, 1.9169394433723532 15.439341043374068, 1.3673575399773963 13.254251818315275 C0.8177756365824395 11.069162593256483, 0.538496599532935 7.4128050377470895, 1.511948118286762 5.19514331191982 C2.485399637040589 2.977481586092549, 5.917413056371018 0.7342165749277095, 7.208066652500358 -0.05171853664834636 C8.498720248629699 -0.8376536482244022, 9.070217227533636 0.36120431866813113, 9.255869695062803 0.47953264246348404 M14.783734971828752 -0.4450227343949642 C16.81838300394158 0.28639108183969286, 18.387162041476067 3.021128777997178, 19.806829891344783 4.852799704656909 C21.2264977412135 6.68447063131664, 23.686909777775046 8.238146612879195, 23.30174207104104 10.545002825563422 C22.916574364307035 12.85185903824765, 19.587341171800155 17.184175254672848, 17.495823650940753 18.693936980762277 C15.404306130081354 20.203698706851707, 13.111624125255245 19.73437142578628, 10.752636945884639 19.603573182100003 C8.393649766514033 19.47277493841373, 4.8819002075070905 19.531291398315037, 3.3419005747171173 17.90914751864462 C1.8019009419271443 16.287003638974202, 1.801241452922566 12.078882603717684, 1.5126391491448015 9.870709904077488 C1.224036845367037 7.662537204437292, 0.5360719488299968 6.321572131151548, 1.6102867520505306 4.660111320803445 C2.6845015552710647 2.9986505104553416, 5.582257130628216 0.3322901724823059, 7.957927968468004 -0.09805495801113295 C10.333598806307792 -0.5284000885045719, 14.876293053749615 1.8730780351966496, 15.864311779089263 2.0780405378428117 C16.85233050442891 2.283003040488974, 14.261297627165526 1.3477891600437264, 13.88604032050589 1.1317200578658397" stroke="#000000" stroke-width="1" fill="none"></path></g><g><g transform="translate(504.18971743817076 439.2139364648757) rotate(0 13.852433937139324 0.031177195527334334)"><path d="M0.46162188425660133 -1.050025049597025 C5.175819368973517 -0.9529174817870986, 23.660356772021174 -0.36664377812094057, 28.46003323012676 -0.11401176573093608 M-0.7551653558481486 1.0131078540254386 C3.771784315822789 1.301031879404964, 22.497524189828678 0.8717812079304551, 27.428423990054913 0.9763607260925733" stroke="#e67700" stroke-width="1" fill="none"></path></g></g><g transform="translate(470.94087273650405 397.66625068816995) rotate(0 15 12.5)"><text x="0" y="18" font-family="Virgil, Segoe UI Emoji" font-size="16px" fill="#000000" text-anchor="start" style="white-space: pre;" direction="ltr">Led1</text></g><g transform="translate(536.2793567377768 397.66625068816995) rotate(0 19.5 12.5)"><text x="0" y="18" font-family="Virgil, Segoe UI Emoji" font-size="16px" fill="#000000" text-anchor="start" style="white-space: pre;" direction="ltr">Led2</text></g><g><g transform="translate(505.4342677980777 430.0096238465221) rotate(0 14.19540596388606 0.4754363368745942)"><path d="M0.33508113250136384 1.1013469733297823 C5.241926122024799 1.286159056596862, 24.554609839693427 1.3231858291869703, 29.33895193004694 1.3705520811552219 M-0.9481400022748858 0.6339501889888197 C3.872597114225992 0.445623600440504, 23.86126011802886 -0.21122864092498098, 28.76877500743318 -0.41967940740603593" stroke="#c92a2a" stroke-width="1" fill="none"></path></g></g><g><g transform="translate(504.76760113141097 450.009623846522) rotate(0 14.565847190319062 0.4490314050251527)"><path d="M0.6480271853506565 -0.6797359384596348 C5.1234742123039005 -0.5059750808547865, 22.955088794306633 1.2428039633875434, 27.48571694308605 1.4644964921349697 M-0.4708972716797144 1.5777987485099585 C4.301957951901623 1.3726190408267398, 24.471990523814004 -0.33381098626910705, 29.602591652317827 -0.27641418066192047" stroke="#000000" stroke-width="1" fill="none"></path></g></g><g><g transform="translate(431.7676011314105 432.67629051318875) rotate(0 14.960549064919803 0.27488113544256976)"><path d="M1.0610741458833217 0.7100959338247776 C5.901752448395038 0.5627592744160761, 24.427639596239445 -0.05743593785709698, 28.86002398395624 -0.1603336629396267" stroke="#c92a2a" stroke-width="1.5" fill="none" stroke-dasharray="12 8"></path></g></g><g><g transform="translate(431.100934464744 452.67629051318846) rotate(0 14.215723649606502 -0.0009124278728904756)"><path d="M0.7100959338247776 0.24082165583968163 C5.209706779137396 0.02625853883515486, 23.177301585749504 -0.32354029778189014, 27.721351365388294 -0.22630455614383882" stroke="#000000" stroke-width="1.5" fill="none" stroke-dasharray="12 8"></path></g></g><g><g transform="translate(521.0806915984032 462.5198509264219) rotate(0 -209.59727305842443 -58.05288707117805)"><path d="M-61.16585193781803 -21.490498811402045 C-162.14723882257053 -22.106295022509837, -266.73212198894817 -22.213000594612584, -358.45219756521794 -21.68296858862572 M-59.75807424047095 -20.07552747823058 C-144.1123835027951 -18.36073255731568, -229.88223354111796 -17.737260658160704, -358.7680514405535 -19.570392552862803 M-358.78417057419824 -20.24544193039366 C-357.5062960593988 -44.207439531802535, -359.24995901277555 -69.5509411920493, -358.95180494214105 -97.24302875374752 M-359.43647187637794 -19.481599446411217 C-359.1973498009179 -40.339549504450716, -359.1071908019517 -59.910403538930645, -357.84903931307304 -97.64334801149863" stroke="#e67700" stroke-width="1" fill="none"></path></g></g><g transform="translate(147.0007049623929 336.5614419550178) rotate(0 11 12.5)"><text x="0" y="18" font-family="Virgil, Segoe UI Emoji" font-size="16px" fill="#000000" text-anchor="start" style="white-space: pre;" direction="ltr">D11</text></g></svg>