<svg version="1.1" xmlns="http://www.w3.org/2000/svg" viewBox="0 0 876.375 497.9999999999999" width="876.375" height="497.9999999999999">
  <!-- svg-source:excalidraw -->
  
  <defs>
    <style>
      @font-face {
        font-family: "Virgil";
        src: url("https://excalidraw.com/FG_Virgil.woff2");
      }
      @font-face {
        font-family: "Cascadia";
        src: url("https://excalidraw.com/Cascadia.woff2");
      }
    </style>
  </defs>
  <g transform="translate(9.999999999999943 10) rotate(0 428.1875 238.99999999999994)"><path d="M354.61051063117316 3.400038901310097 C381.24040704258255 -3.216405226640224, 414.4882710050477 -0.5732369514960283, 444.61819240847507 0.21749396931187448 C474.74811381190244 1.0082248901197772, 506.21346171344874 4.0231184230361, 535.3900390517375 8.144424426157514 C564.5666163900263 12.265730429278928, 593.0465840090684 17.525892292849733, 619.6776564382078 24.945329988040356 C646.3087288673472 32.36476768323098, 671.9133245263182 42.13839029266595, 695.1764736265741 52.661050597301255 C718.43962272683 63.18371090193656, 740.1732194756542 75.31878474564171, 759.2565510397433 88.08129181585218 C778.3398826038324 100.84379888606266, 796.0069703872322 114.26566953084438, 809.6764630111088 129.23609301856408 C823.3459556349854 144.20651650628378, 833.4488264015548 161.75441017896688, 841.2735067830032 177.90383274217038 C849.0981871644516 194.05325530537388, 855.0579464064044 209.6547021050902, 856.624545299799 226.1326283977851 C858.1911441931936 242.61055469048003, 855.5572217989728 260.1257683646281, 850.6731001433711 276.7713904983399 C845.7889784877694 293.4170126320517, 838.1028244354438 310.485139201025, 827.3198153661887 326.00636120005584 C816.5368062969335 341.5275831990867, 802.5160130965226 356.07998074384335, 785.9750457278401 369.8987224925248 C769.4340783591576 383.7174642412063, 749.477080799282 397.15649325358595, 728.0740111540938 408.9188116921446 C706.6709415089056 420.6811301307032, 683.0163461993814 431.3896520266602, 657.5566278567104 440.47263312387656 C632.0969095140395 449.5556142210929, 603.6387099289329 457.40251263457776, 575.3157010980681 463.41669827544285 C546.9926922672032 469.43088391630795, 517.0864388991326 474.2714340103192, 487.618574871521 476.5577469690671 C458.1507108439093 478.84405992781507, 428.412775925003 478.3475339432763, 398.50851693239787 477.1345760279306 C368.6042579397927 475.92161811258495, 337.0399753293077 474.05878715511744, 308.19302091589 469.2799994769931 C279.34606650247224 464.5012117988688, 251.80939273153209 456.3580389902587, 225.42679045189132 448.46184995918475 C199.04418817225056 440.5656609281108, 172.69827808099268 432.48313273747465, 149.8974072380454 421.90286529054924 C127.09653639509811 411.32259784362384, 106.87791936269117 398.3629611388773, 88.62156539420766 384.9802452776324 C70.36521142572415 371.59752941638743, 53.12076036313902 356.67084390987986, 40.359283427144305 341.6065701230797 C27.59780649114959 326.5422963362795, 18.896752027780526 310.8608285411965, 12.05270377823939 294.5946025568314 C5.208655528698254 278.32837657246625, -0.16847565081783955 260.85660618584086, -0.7050060701025131 244.00921421688886 C-1.2415364893871867 227.16182224793687, 2.864362568543271 210.0633607865205, 8.833521262531349 193.51025074311934 C14.802679956519427 176.9571406997182, 23.44249435497624 160.039999851989, 35.109946093825954 144.69055395648206 C46.77739783267567 129.34110806097513, 61.75324272360787 115.16949544700867, 78.83823169562964 101.41357537007781 C95.92322066765142 87.65765529314695, 115.66057824633585 73.66514819823026, 137.61987992595664 62.155033494896884 C159.57918160557745 50.64491879156352, 184.67758883538517 40.58380501594346, 210.5940417733544 32.352887150077606 C236.51049471132364 24.12196928421175, 267.0605347560435 17.67804811265213, 293.118597553772 12.769526299701738 C319.1766603515005 7.861004486751345, 352.5192805021206 3.8117969694946225, 366.9424185597253 2.901756272375252 C381.36555661733 1.9917155752558813, 378.7210238984367 3.5687596031784445, 379.65742589940027 7.309282116985514 M585.5545444634299 15.958545913091399 C614.434807592017 18.144023285718703, 638.4071539376533 31.099081118758143, 663.1785335298533 40.414317132862806 C687.9499131220533 49.72955314696747, 712.994920188594 60.18167989131287, 734.1828220166299 71.84996199771939 C755.3707238446657 83.51824410412591, 774.4511312281561 96.30019525732533, 790.305944498068 110.42400977130194 C806.1607577679799 124.54782428527855, 818.9032356388769 140.65799081543753, 829.3117016361015 156.59284908157906 C839.720167633326 172.5277073477206, 848.521014378389 189.36936169730714, 852.7567404814151 206.03315936815116 C856.9924665844412 222.69695703899518, 856.7633655262093 239.89016296987705, 854.7260582542576 256.5756351066432 C852.6887509823059 273.2611072434093, 848.5903927914705 289.957111167731, 840.5328968497051 306.1459921887479 C832.4754009079397 322.33487320976485, 820.6383087674626 339.03149972433226, 806.3810826036654 353.70892123274484 C792.1238564398682 368.3863427411574, 774.8563214599334 381.74287232039757, 754.9895398669221 394.21052123922345 C735.1227582739108 406.67817015804934, 711.1063672202895 418.3282000435138, 687.1803930455978 428.51481474570016 C663.2544188709062 438.70142944788654, 638.2282093447542 448.0623086717351, 611.4336948187726 455.3302094523417 C584.6391802927909 462.59811023294833, 555.5739654338273 468.1756924216066, 526.4133058897078 472.12221942933996 C497.25264634558823 476.06874643707334, 466.5174893263265 478.75641275226576, 436.46973755405526 479.009371498742 C406.42198578178403 479.2623302452182, 375.44515428533003 477.1334902295024, 346.12679525608036 473.63997190819714 C316.8084362268307 470.1464535868919, 288.23541315674316 464.7400224047069, 260.55958337855725 458.0482615709104 C232.8837536003713 451.35650073711395, 204.73501149020683 442.9551643811134, 180.07181658696476 433.4894069054181 C155.40862168372269 424.0236494297228, 132.73987880702217 413.4250509402478, 112.58041395910482 401.2537167167386 C92.42094911118747 389.08238249322943, 74.48851467030751 374.86367778621855, 59.115027499460666 360.461401564363 C43.74154032861383 346.0591253425074, 29.675129253958225 330.83565279234625, 20.339490934023786 314.8400593856053 C11.003852614089348 298.8444659788643, 5.988917545724613 281.0235362833862, 3.1011975798540448 264.4878411239173 C0.2134776139834762 247.9521459644484, 0.18468140705779001 231.98317633382436, 3.0131711388003737 215.62588842879185 C5.841660870542958 199.26860052375935, 10.688616374557503 182.39098018760905, 20.072135970309546 166.3441136937223 C29.455655566061587 150.29724719983557, 44.24151261153056 133.78742235389194, 59.314288713312635 119.34468946547149 C74.38706481509472 104.90195657705104, 90.5799516739506 92.32125768437356, 110.50879258100201 79.6877163631996 C130.43763348805342 67.05417504202563, 154.1543870830749 53.498876313132186, 178.88733415562112 43.54344153842766 C203.62028122816733 33.58800676372313, 231.38135259293404 26.443008140130768, 258.9064750162793 19.955107714972428 C286.4315974396245 13.467207289814088, 314.9255207911799 8.16456778156867, 344.0380686956926 4.616038987477623 C373.15061660020524 1.067510193386577, 403.5060040864045 -1.6491548290421416, 433.5817624433554 -1.3360650495738469 C463.65752080030626 -1.0229752701055521, 499.31888471814426 3.6526205247496364, 524.4926188373977 6.494577664287391 C549.666352956651 9.336534803825145, 575.31467893516 13.305469297039659, 584.6241671588759 15.71567778765268 C593.9336553825918 18.1258862782657, 583.1670319739576 17.238649086793995, 580.3495481796929 20.955828607965515" stroke="none" stroke-width="0" fill="#ffffff"></path><path d="M605.3786187588385 22.052489393887356 C634.0868915394831 25.027090360379855, 658.9012655076738 37.14016594917481, 682.9105003256559 47.177580344827874 C706.919735143638 57.21499474048094, 729.7079007058919 69.8796587336921, 749.4340276667315 82.27697576780577 C769.160154627571 94.67429280191944, 786.7187705473934 107.10099649553345, 801.267262090693 121.56148254950988 C815.8157536339925 136.0219686034863, 827.8053922226926 152.79374249793648, 836.7249769265286 169.03989209166429 C845.6445616303646 185.2860416853921, 851.952255980524 202.42332494303457, 854.784770313709 219.03838011187676 C857.6172846468941 235.65343528071895, 857.5680516155168 252.12466630780003, 853.720062925639 268.7302231047175 C849.8720742357613 285.3357799016349, 841.7614155566827 302.9034350667686, 831.6968381744423 318.67172089338146 C821.6322607922019 334.4400067199943, 808.9124555571967 349.1739255465083, 793.3325986321968 363.33993806439463 C777.7527417071968 377.50595058228095, 758.8729840412108 391.6290914570762, 738.2176966244429 403.66779600069947 C717.5624092076749 415.70650054432275, 694.130083150322 426.1049778958231, 669.4008741315894 435.57216532613444 C644.6716651128568 445.0393527564458, 617.602592363445 454.10204630826865, 589.8424425120475 460.47092058256766 C562.08229266065 466.83979485686666, 532.4082803811108 470.9596558894249, 502.8399750232041 473.7854109719283 C473.2716696652974 476.6111660544317, 442.2741030540961 478.0139004636716, 412.43261036460746 477.425451077588 C382.5911176751188 476.8370016915044, 352.5963335812137 474.4030751479368, 323.7910188862722 470.25471465542665 C294.9857041913307 466.1063541629165, 266.49143314849164 459.8525623429915, 239.60072219495828 452.53528812252705 C212.71001124142495 445.2180139020626, 186.17894292889906 436.43851065244445, 162.44675316507215 426.3510693326398 C138.71456340124524 416.2636280128351, 116.371070176591 404.9972923057455, 97.20758361199677 392.01064020369915 C78.04409704740253 379.02398810165283, 61.01000942553174 363.5153224227527, 47.46583377750676 348.43115672036197 C33.92165812948178 333.3469910179712, 23.693397840149846 317.5013654994499, 15.94252972384686 301.5056459893548 C8.191661607543875 285.50992647925966, 2.7940135143188343 269.0109017971492, 0.9606250796888389 252.45683965979143 C-0.8727633549411564 235.90277752243364, 0.2785962959563717 218.65944408396274, 4.942199116066888 202.1812731652081 C9.605801936177404 185.70310224645345, 18.229223987267225 169.29552105120783, 28.94224200035194 153.58781414726354 C39.65526001343665 137.88010724331926, 52.73574368998861 122.00435575363076, 69.22030719457518 107.93503174154245 C85.70487069916176 93.86570772945413, 106.49274327336052 80.78005169224316, 127.84962302787136 69.17187007473362 C149.2065027823822 57.563688457224075, 172.09952639132692 47.20401709664629, 197.3615857216402 38.28594203648518 C222.6236450519535 29.367866976324073, 251.39326808403192 21.467079894562232, 279.4219790097511 15.663419713766984 C307.4506899354703 9.859759532971736, 336.1440489666138 6.07228417489641, 365.5338512759553 3.463980951713694 C394.92365358529685 0.8556777285309778, 425.77252693046955 -0.7785990967621217, 455.76079286580006 0.013600374670687643 C485.74905880113056 0.805799846103497, 518.1694244222214 4.058245852795092, 545.4634468879385 8.21717778031055 C572.7574693536557 12.376109707826007, 605.856921740976 20.76285568840098, 619.5249276601032 24.96719193976344 C633.1929335792305 29.171528191125898, 630.8820653673399 29.710091516784463, 627.4714824027019 33.4431952884853 M569.4026577186089 12.934164999521272 C598.8117425657637 14.227013305967569, 626.4689110706024 25.874955649578276, 652.0788796347923 34.78846980178014 C677.6888481989822 43.701983953982, 701.1428684945588 54.60315433920459, 723.0624691037485 66.41524991273246 C744.9820697129383 78.22734548626033, 766.6084406136312 91.96422507423893, 783.5964832899308 105.66104324294736 C800.5845259662304 119.35786141165579, 813.8577805354315 133.46718217530133, 824.9907251615463 148.59615892498306 C836.123669787661 163.72513567466478, 844.9699513274312 179.9563108683666, 850.3941510466194 196.4349037410377 C855.8183507658076 212.9134966137088, 858.8630604490997 230.53998874244158, 857.5359234766757 247.46771616100963 C856.2087865042517 264.39544357957766, 850.0122583772691 281.5288475202539, 842.4313292120755 298.001268252446 C834.850400046882 314.47368898463804, 825.130848965757 331.3790667158818, 812.0503484855149 346.30224055416215 C798.9698480052728 361.22541439244253, 782.8134033830869 374.6363619982327, 763.9483263306226 387.5403112821284 C745.0832492781584 400.4442605660241, 722.1414631712566 412.8762001126084, 698.8598861707293 423.72593625753655 C675.5783091702019 434.5756724024647, 650.754085566914 445.1359404146194, 624.2588643274584 452.6387281516975 C597.7636430880027 460.14151588877553, 568.8870513904156 464.3349629437996, 539.8885587339952 468.742662680005 C510.8900660775748 473.15036241621044, 480.3859526813828 478.179378466984, 450.2679083889358 479.0849265689299 C420.1498640964888 479.9904746708758, 388.6995415755869 477.0486031837032, 359.1802929793133 474.17595129168035 C329.6610443830397 471.3032993996575, 300.86060177763477 467.8618891726501, 273.1524168112943 461.84901521679285 C245.44423184495386 455.8361412609356, 217.96216016704523 447.4237951356554, 192.93118318127065 438.0987075565371 C167.90020619549608 428.7736199774188, 144.1370637899179 417.74852073662, 122.96655489664687 405.898489742083 C101.79604600337584 394.04845874754596, 82.04879747556959 380.8639699928942, 65.90812982164448 366.99852158931515 C49.76746216771937 353.13307318573607, 36.40091626410907 338.5973127586764, 26.12254897309623 322.70579932060855 C15.844181682083388 306.8142858825407, 8.471637071504812 288.34463806674137, 4.2379260755674295 271.6494409609079 C0.004215079630047747 254.9542438550744, -1.3209874600084959 238.8280022038294, 0.7202829974719407 222.5346166856076 C2.7615534549523773 206.2412311673858, 8.180746813817612 189.8437362776302, 16.48554882045005 173.88912785157697 C24.790350827082484 157.93451942552375, 36.51116880866558 141.50626764343713, 50.54909503726657 126.80696612928818 C64.58702126586756 112.10766461513923, 81.25622223937995 98.49190952927032, 100.71310619205599 85.69331876668326 C120.16999014473203 72.89472800409621, 143.2656370650196 60.287074615826555, 167.2903987533228 50.01542155376583 C191.31516044162598 39.74376849170511, 217.89978964015197 31.4451711288259, 244.86167632187517 24.063400394318933 C271.82356300359834 16.681629659811964, 300.3072126043641 9.85605297636701, 329.061718843662 5.724797146724029 C357.8162250829599 1.5935413170810477, 387.22734932294355 -0.46866413549719255, 417.38871375766234 -0.7241345835389552 C447.55007819238114 -0.9796050315807179, 484.46919359286096 1.8082630479339912, 510.02990545197486 4.191974458473453 C535.5906173110887 6.575685869012915, 561.3181944576912 11.505362376345232, 570.7529849123457 13.578133879697816 C580.1877753670002 15.6509053830504, 569.211737896582 13.076582846260854, 566.6386481799019 16.628603478588957" stroke="#000000" stroke-width="1" fill="none"></path></g><g transform="translate(685.0909090909086 189.3058844750018) rotate(0 67.14285714285711 132.85714285714283)"><path d="M-1.22398916259408 0.8191324211657047 L134.6268163754471 1.3389734961092472 L135.87534497518618 266.7772972152701 L0.6281640194356441 263.8196678922644" stroke="none" stroke-width="0" fill="#ffffff"></path><path d="M0.9602365233004093 -0.4227837659418583 C27.01492914557456 -1.4146960845483199, 52.49879428371785 -0.2527382245553389, 133.23217844058354 0.7712196968495846 M0.9875453542917967 -0.19820298068225384 C37.78125826349214 -0.3700589714305742, 73.71277138936729 0.11995647570916579, 135.0594570043363 -0.6652293931692839 M132.93656180405554 1.1107407106361804 C131.8074705694743 98.990742195926, 131.79843137539092 197.6156149601367, 133.69129809091112 265.6740035170842 M134.77353812803287 0.4945354202507782 C134.67764003934732 80.40446482536754, 133.66808359545757 160.51754217644694, 134.17374902838444 266.0778377197204 M136.16858803321202 265.91295118044525 C101.92625658320523 266.6919679251632, 67.9248652271926 265.9023648110351, -1.012421753257513 267.1038342208734 M133.9198035004415 264.8347698149404 C102.30085265290519 266.5683172261076, 68.61499010798119 267.2972357189016, -0.30038984306156635 265.59617128941625 M-0.5407344311185127 264.2985326211261 C-0.9555025389456264 173.71540802842918, 0.886143668309839 79.49016619030877, 0.4491043878786319 -1.5095955677020816 M-0.3504805848815744 266.27431003866263 C-0.6996607108259804 194.32290877313082, -1.2408182519915876 122.85534321182747, -0.3941799797058238 0.04426819160543648" stroke="#000000" stroke-width="1" fill="none"></path></g><g transform="translate(767.8046430693485 192.25822298616458) rotate(0 18 25)"><text x="18" y="18" font-family="Virgil, Segoe UI Emoji" font-size="16px" fill="#000000" text-anchor="middle" style="white-space: pre;" direction="ltr">(30)</text><text x="18" y="43" font-family="Virgil, Segoe UI Emoji" font-size="16px" fill="#000000" text-anchor="middle" style="white-space: pre;" direction="ltr">VIN</text></g><g transform="translate(705.7752313046426 190.67584458025658) rotate(0 19 25)"><text x="19" y="18" font-family="Virgil, Segoe UI Emoji" font-size="16px" fill="#000000" text-anchor="middle" style="white-space: pre;" direction="ltr">(29)</text><text x="19" y="43" font-family="Virgil, Segoe UI Emoji" font-size="16px" fill="#000000" text-anchor="middle" style="white-space: pre;" direction="ltr">GND</text></g><g transform="translate(719.1127761127764 379.56154548066434) rotate(0 34.5 32)"><text x="34.5" y="23" font-family="Virgil, Segoe UI Emoji" font-size="20px" fill="#000000" text-anchor="middle" style="white-space: pre;" direction="ltr">Arduino</text><text x="34.5" y="55" font-family="Virgil, Segoe UI Emoji" font-size="20px" fill="#000000" text-anchor="middle" style="white-space: pre;" direction="ltr">nano</text></g><g transform="translate(380.99404761904725 13.620098039215577) rotate(0 50.5 28.5)"><text x="0" y="41" font-family="Virgil, Segoe UI Emoji" font-size="36px" fill="#000000" text-anchor="start" style="white-space: pre;" direction="ltr">Power</text></g><g transform="translate(269.1904761904758 25.97724089635841) rotate(0 32.5 26)"><path d="M0.03671857342123985 0.4422576166689396 L65.21741422638297 -1.1978782676160336 L66.21814390644431 53.024507973343134 L-1.9756187535822392 50.90714583173394" stroke="none" stroke-width="0" fill="#ffffff"></path><path d="M-1.832306768745184 0.7199659012258053 C21.089455886743963 0.6348888319917023, 37.95418500341475 1.175268475431949, 64.38907787576318 -1.821859035640955 M0.7058413457125425 -0.33240110985934734 C23.55412034969777 0.31615827819332487, 45.91123228520155 1.2630504800938072, 64.56852148286998 0.10049961693584919 M66.00625679269433 1.0216401480138302 C64.71990360073745 12.917150209844113, 63.20290995888412 21.645511681586505, 64.12800535932183 51.94669982418418 M65.63143013231456 -0.23608304373919964 C64.80870495155453 13.966904070600869, 64.26660839632153 25.806840724125507, 65.14240853302181 52.20229749567807 M66.54410395398736 51.44196292385459 C50.32660719100386 53.211718446295706, 38.527906967327 50.68457031873986, 0.8920221067965031 50.79911717399955 M65.7650858592242 51.459510611370206 C44.935126521624625 52.599306317511946, 24.514756951481104 51.028631838504225, -0.3098293710500002 52.22643004544079 M1.7310638166964054 52.18149575218558 C0.9779478857666254 36.12941783070564, 0.3596587727218866 19.07107999101281, -1.427636530250311 -1.442951712757349 M-0.3378325868397951 52.48320065625012 C1.0387564721703528 37.290202350541946, 1.2187554064393042 24.296287373080848, 0.8902135323733091 -0.5025788079947233" stroke="#000000" stroke-width="1" fill="none"></path></g><g transform="translate(281.1904761904758 24.97724089635841) rotate(0 19.5 25)"><text x="19.5" y="18" font-family="Virgil, Segoe UI Emoji" font-size="16px" fill="#000000" text-anchor="middle" style="white-space: pre;" direction="ltr">micro</text><text x="19.5" y="43" font-family="Virgil, Segoe UI Emoji" font-size="16px" fill="#000000" text-anchor="middle" style="white-space: pre;" direction="ltr">USB</text></g><g transform="translate(66.39826839826856 188.73312390224112) rotate(0 94.59740259740249 134.71428571428584)"><path d="M1.416991326957941 -0.4116564132273197 L190.1280822988549 -1.7809104062616825 L190.86858453712853 268.43120472825024 L0.11200878396630287 268.2045822659776" stroke="none" stroke-width="0" fill="#ffffff"></path><path d="M1.1225076578557491 0.5671523548662663 C50.567860122479736 0.9273710047269803, 97.16564407514083 -1.1072503531908053, 190.03980447463186 0.9602365233004093 M-0.9606977831572294 0.15730921737849712 C52.23224902403136 1.187170935881795, 105.29102720634202 0.9617800843841449, 189.12600586488338 0.9875453542917967 M187.99975468033657 0.043241694436858144 C191.5577204055641 74.44500392336532, 191.46081780246476 149.61759294991668, 187.67927369084182 268.08998590882163 M188.86382850024526 0.1742898225425831 C188.02026085055422 99.73885110096018, 188.327033830877 199.5190869392804, 188.6310829110553 269.91257449004456 M187.62244738749655 270.14485484308454 C120.31619455362475 271.03595785156887, 51.08888687966507 272.0013593818347, -0.01802567020058632 271.31144517606947 M190.15455535724254 269.5286624519423 C130.05082905128486 271.05965673534246, 71.36725540951176 269.84359281865926, 0.826658533886075 269.06266064329895 M0.11770736056444489 270.1702616920372 C-2.347549102178364 212.11140864753355, -1.094337307069086 154.82280799846254, 0.005967717034859526 -0.5364992388670767 M0.2124404054437984 269.2804050061709 C2.111947200742417 211.97967810675388, 1.6543913082199633 156.22905778898203, 0.7348691541913069 -0.3477355171145768" stroke="#000000" stroke-width="1" fill="none"></path></g><g transform="translate(98.4588744588741 397.0058511749685) rotate(0 63 16)"><text x="63" y="23" font-family="Virgil, Segoe UI Emoji" font-size="20px" fill="#000000" text-anchor="middle" style="white-space: pre;" direction="ltr">Raspberry Pi</text></g><g transform="translate(68.35714285714243 188.72266214177967) rotate(0 32.5 26)"><path d="M-0.5180423520505428 1.5776241682469845 L66.49622545018792 0.2987060211598873 L63.83834740892053 53.8677760027349 L-0.5845719836652279 50.12577649578452" stroke="none" stroke-width="0" fill="#ffffff"></path><path d="M1.3228058479726315 1.1610874868929386 C23.767374456860125 1.6956741127185524, 48.64159623347223 -0.3908919778652489, 63.18324836716056 -0.4180687926709652 M-0.6438728105276823 -0.38443698175251484 C18.39670800883323 0.2505558402277529, 35.77095467597246 1.1076864273287357, 64.21301625855267 -0.49218340404331684 M65.26026805862784 -0.6005419753491879 C63.82398789472877 14.99907291084528, 66.17735963411629 29.24380269572139, 63.28632565960288 51.22591469064355 M65.53604053147137 -0.7875053454190493 C64.87065316125751 10.640898934379221, 64.36182446166873 21.703624426946046, 64.6310754287988 51.6420235466212 M63.94089051708579 51.7261502481997 C45.72760765906423 52.7893710357137, 26.33142914064228 50.41645088018849, -1.3553518392145634 51.81136927381158 M64.30375485308468 51.55051325075328 C50.85492459591478 51.83824064051733, 35.6261127255857 52.50608976399526, 0.3115571606904268 51.17570368759334 M1.2371097467839718 52.524587009102106 C-1.7676068935543299 33.15252844691277, 1.4647702779620886 17.588914861530064, -1.7482538558542728 -1.9618759416043758 M-0.322846544906497 51.87443081848323 C0.6719540771842003 40.88807058222592, -0.14216102987527846 29.593038394674657, -0.8819521199911833 -0.7107840944081545" stroke="#000000" stroke-width="1" fill="none"></path></g><g transform="translate(80.35714285714243 187.72266214177967) rotate(0 19.5 25)"><text x="19.5" y="18" font-family="Virgil, Segoe UI Emoji" font-size="16px" fill="#000000" text-anchor="middle" style="white-space: pre;" direction="ltr">micro</text><text x="19.5" y="43" font-family="Virgil, Segoe UI Emoji" font-size="16px" fill="#000000" text-anchor="middle" style="white-space: pre;" direction="ltr">USB</text></g><g transform="translate(390.2745098039213 94.237745098039) rotate(0 115.5 44.5)"><path d="M-1.23973872885108 0.5718196295201778 L229.30533656850457 0.9014982841908932 L231.22367617860436 90.07281741127372 L1.9692595936357975 87.12984439358115" stroke="none" stroke-width="0" fill="#ffffff"></path><path d="M0.2533932736092001 -0.9854336103010087 C64.90105119381947 -1.9618813114733724, 125.04331187149128 -0.3146461591695815, 229.94258466015637 1.6042808088173954 M0.16261782602248637 -0.47273286855953184 C73.94801854962742 1.0416584498668584, 147.72424353881308 0.5465138824117097, 231.63131753774996 -0.11529207155974357 M231.92780336365104 1.9961667992174625 C232.32481204552576 23.891478295065465, 230.23355793042109 43.52418984584511, 229.8231084011495 87.26563188806176 M230.71292732842267 0.7150702904909849 C229.9646866295673 27.555912060476842, 231.27082222441211 56.137276215106255, 231.52629260905087 89.67053149454296 M232.65747378969215 88.35269102999116 C178.0368128848641 88.64468340873607, 127.6959533314429 87.11887808282331, 0.4548194332522779 89.50204652070991 M230.3628902173264 89.45789336299879 C161.8026784210794 90.2176807601785, 93.36221392312804 89.94676971947811, 0.21683486182671038 89.47073363713785 M-1.3912839032709599 90.33470520749688 C-0.7559607215039431 59.73155897911638, -2.2172328419797123 34.56039288379252, -0.254470381885767 0.46019599214196205 M-0.23700894229114056 88.3413466643542 C0.9990104285441339 69.99502621423453, 0.5228088346682489 52.930609984695906, -0.008936477825045586 0.6272789072245359" stroke="#000000" stroke-width="1" fill="none"></path></g><g transform="translate(442.633884803922 117.90441176470569) rotate(0 54.89062500000006 22.234177215189888)"><text x="54.89062500000006" y="16.234177215189888" font-family="Virgil, Segoe UI Emoji" font-size="13.896360759493685px" fill="#000000" text-anchor="middle" style="white-space: pre;" direction="ltr">Voltage Booster</text><text x="54.89062500000006" y="38.468354430379776" font-family="Virgil, Segoe UI Emoji" font-size="13.896360759493685px" fill="#000000" text-anchor="middle" style="white-space: pre;" direction="ltr">MT3608</text></g><g transform="translate(562.2549019607841 107.69553060458622) rotate(0 26.5 12.5)"><text x="26.5" y="18" font-family="Virgil, Segoe UI Emoji" font-size="16px" fill="#000000" text-anchor="middle" style="white-space: pre;" direction="ltr">VOUT+</text></g><g transform="translate(568.2549019607841 141.20145785586936) rotate(0 23.5 12.5)"><text x="23.5" y="18" font-family="Virgil, Segoe UI Emoji" font-size="16px" fill="#000000" text-anchor="middle" style="white-space: pre;" direction="ltr">VOUT-</text></g><g transform="translate(393.26354489164055 109.46023648693904) rotate(0 18.5 12.5)"><text x="18.5" y="18" font-family="Virgil, Segoe UI Emoji" font-size="16px" fill="#000000" text-anchor="middle" style="white-space: pre;" direction="ltr">VIN+</text></g><g transform="translate(393.26354489164055 142.96616373822218) rotate(0 16.5 12.5)"><text x="16.5" y="18" font-family="Virgil, Segoe UI Emoji" font-size="16px" fill="#000000" text-anchor="middle" style="white-space: pre;" direction="ltr">VIN-</text></g><g transform="translate(627.559357953707 89.64313691983938) rotate(0 13.5 12.5)"><text x="0" y="18" font-family="Virgil, Segoe UI Emoji" font-size="16px" fill="#d9480f" text-anchor="start" style="white-space: pre;" direction="ltr">+9v</text></g><g><g transform="translate(313.100324340262 82.041596303593) rotate(0 37.03655273821056 20.021873097992028)"><path d="M-0.520991113036871 -0.7620174027979374 C0.4461290565053505 8.149714125202923, 1.4333926168004794 16.616465031865896, -1.0270959399639423 40.421629894211776 M0.24665854685008526 0.4547150004655123 C-0.08825679721714613 9.870531374408609, 0.854456523038164 22.206744553161275, -0.09262092597771243 38.46503002351511 M-0.571080353110915 40.750022876694686 C24.234694815462372 38.04866334398461, 49.313090878110756 39.627582773825345, 75.10020141638506 40.80576359878199 M-0.20376928336906985 39.222670385301 C25.282480520303572 39.49335087655084, 49.65762563118437 39.03724921785942, 73.4289640761881 40.508114950981906" stroke="#c92a2a" stroke-width="1" fill="none"></path></g></g><g><g transform="translate(287.57651481645246 80.94355708790675) rotate(0 49.737176921051685 36.15308664596436)"><path d="M-1.9132258035242558 -1.322761919349432 C0.6507226351818178 25.88021591839519, 1.285616939576189 53.11243560714658, 1.0101742976833066 73.11512010902459 M0.18104170449078083 -0.9358825255185366 C-0.4926958102445377 23.33311626809323, -1.0272661819855196 47.32964351413209, -0.6997116962891141 73.20830506630534 M-1.4423165088962833 72.93139570564324 C37.85524643291786 71.017491060588, 74.39302425326166 73.09156389537318, 101.38757964562762 71.45371274550968 M0.8477846225280246 72.40311068840617 C25.113799889231018 71.6674044051719, 51.9184747706632 72.71838825452912, 99.67719815824319 73.62893521127813" stroke="#000000" stroke-width="1" fill="none"></path></g></g><g><g transform="translate(311.67175291169053 122.12562991703845) rotate(0 -112.67761128906665 31.84299185375275)"><path d="M-0.7110461980072601 -1.4720283252694304 C-47.19665501057557 0.640371201131703, -93.67569894933777 -0.1033849534591028, -224.1612486503142 4.446445751254586 M-0.33849392833047376 0.8188101015136984 C-86.48248729709698 0.516058087463071, -171.76196414306477 1.7407519774211897, -222.49849079816576 3.6637384112006584 M-224.28744944451103 5.242149718637961 C-224.16766382812025 23.761861035614487, -222.8162582547678 45.692164450419085, -224.55365142314906 64.35881983329142 M-223.7302705690796 2.823645668636459 C-224.0689273509276 27.90713447888691, -224.04014346915687 51.81773596919717, -225.01672864980276 65.15801203277493" stroke="#c92a2a" stroke-width="1" fill="none"></path></g></g><g><g transform="translate(289.5288957688334 135.697058488467) rotate(0 -91.40669402919178 25.2676747850187)"><path d="M-1.8809489272534847 0.7143325470387936 C-70.39579484017035 2.8933233735284736, -142.89734834396683 1.5368654127365975, -179.6225900570197 2.6696433174823255 M0.19666175357997417 -0.9404929410666227 C-59.466648049266745 2.742767480973695, -117.94951508767637 3.1907291875087953, -181.65937541185747 3.0037799432341785 M-183.01004981196354 2.5998124230121107 C-179.6036172617307 16.382973338729244, -182.600390322887 26.880463822437928, -180.58798066544398 49.87101264280227 M-181.9867255514754 1.4851904466216297 C-182.0231422703598 11.790731894616954, -182.869158562279 21.97529429838774, -182.3808251304464 51.47584251110402" stroke="#000000" stroke-width="1" fill="none"></path></g></g><g transform="translate(316.7431814831192 75.33991563132417) rotate(0 15 12.5)"><text x="0" y="18" font-family="Virgil, Segoe UI Emoji" font-size="16px" fill="#c92a2a" text-anchor="start" style="white-space: pre;" direction="ltr">+5v</text></g><g><g transform="translate(625.3093897846215 118.27587183198631) rotate(0 80.54537545780045 33.384871802486316)"><path d="M-1.2540072463452816 -0.18378833308815956 C42.58189463616511 0.8640133973320532, 84.91477740239347 -0.2998823629473236, 161.40116322939002 0.2561282425680247 M0.4253967236727476 0.32524840719997883 C34.366234136076955 -2.1402475501794216, 69.45663144591754 -0.7773693880942951, 160.43815602701807 -1.0645374540678176 M162.34475816194617 0.5271176605978098 C159.81995838318082 21.647510437614013, 161.58315609640192 45.18250024522268, 159.6053515365163 67.92401918630094 M161.01559104365015 0.30115039306963354 C159.86801242472632 18.45532453231583, 160.69310784468453 36.919042802212694, 160.60582868101096 67.95626108768374" stroke="#d9480f" stroke-width="1" fill="none"></path></g></g><g><g transform="translate(623.3093897846213 153.7268522241431) rotate(0 50.74777158705842 16.515151844670356)"><path d="M1.9515663124620914 0.05746885761618614 C20.079158063112356 -1.8467457286465767, 42.89742107460381 -0.2404815010836166, 101.51767123643958 0.2141365319051829 M-0.022128062322735786 -0.14369638077914715 C26.240933088837725 -0.00669871905052466, 54.039643822818526 -1.442678961124946, 100.19641889971399 0.04259045082415014 M101.31685698930823 -1.290386745377532 C98.77613878221696 12.995647186936386, 102.10034543717813 21.890255846839896, 100.52113795243918 34.320690434718244 M100.42711319368982 -0.11314504188214869 C99.87899560245438 7.579454771198453, 100.03421494602195 16.18161139305168, 99.83474905193566 33.64207422948789" stroke="#000000" stroke-width="1" fill="none"></path></g></g><g transform="translate(364.7655470656647 267.96603933614733) rotate(0 20.17911805653449 19.6550345340074)"><path d="M-1.243517067283392 -1.8123548366129398 C8.549226424374636 -0.0963524798379009, 15.924340674089304 0.19777319631718943, 40.56400133433698 0.49299582466483116 M0.09076969139277935 -0.4562267791479826 C14.412621916733631 -0.4178527919778771, 29.300558050155537 0.6805477412214331, 40.679975889129025 0.7007301915436983 M39.39144636454938 0.09204920753836632 C39.785774413919405 14.053548000087684, 39.27663141903873 32.72802515567411, 38.82580937209485 39.53885550299305 M40.92632570068298 0.2524837125092745 C40.0755572991475 11.843990515923286, 39.73259938527192 22.224180256959368, 39.82768877546249 39.25953546227533 M42.25100220504163 41.02209467688221 C26.644860210757667 41.52582734106112, 11.206294052655345 38.81053071497011, -1.4322970174252987 40.9007409314217 M39.65626820127426 38.616998822108094 C30.426040916220284 39.102250648900274, 19.232966875184864 39.36106301681638, -0.5167474914342165 39.391910046950166 M1.0271670557558537 37.69101745882649 C-1.5776599956239457 26.367375580183825, 1.2147335695539718 12.058225736453277, -1.110422756522894 -1.2168801166117191 M-0.22263767011463642 38.36709496440012 C-0.5624383147797183 27.587548332365785, -1.029248004778345 16.463505927016026, -0.39204867370426655 -0.5815283786505461" stroke="#000000" stroke-width="1" fill="none"></path></g><g transform="translate(437.81926894382707 269.41265149657283) rotate(0 20.17911805653449 19.6550345340074)"><path d="M-1.8123548366129398 -0.18031814321875572 C11.437121656781152 -1.2838176840372073, 23.305460302274852 0.45669599832821006, 40.85123193773387 1.4014523960649967 M-0.4562267791479826 -0.5228562522679567 C14.357560451543582 -0.6070313342190401, 30.607674662825968 0.28510672968858314, 41.05896630461274 0.9470760058611631 M40.45028532060741 -0.6927029155194759 C38.53475787790956 11.793586973702686, 41.693251992785356 24.45843902723149, 40.58702254804729 39.06007190296072 M40.610719825578315 -0.3587134648114443 C41.181161116522965 11.851695850616457, 40.2597004284088 24.576187121000412, 40.307702507329566 40.002386417851035 M42.07026172193645 40.498234706610624 C26.760651647686934 40.3431535936487, 8.504229897412028 38.25971555482271, 1.5906718634068966 38.63158758232016 M39.66516586716233 40.11622890518624 C26.333583617720628 39.378208030890896, 12.42624338793225 38.51001970930047, 0.08184097893536091 39.85596325682122 M-1.6190516091883183 38.069841938704435 C1.2945702591363941 25.694886120342147, 0.9243549623910938 7.864947544411503, -1.2168801166117191 -0.020108964294195175 M-0.9429741036146879 39.00711348341424 C0.3005151004511784 24.152455771219664, 0.929969176741309 10.142324349918642, -0.5815283786505461 -0.9563658405095339" stroke="#000000" stroke-width="1" fill="none"></path></g><g transform="translate(375.6491776355043 305.78741560731305) rotate(0 47.075051002477835 13.260577747176853)"><text x="47.07505100247782" y="17.521155494353703" font-family="Virgil, Segoe UI Emoji" font-size="21.216924395482973px" fill="#000000" text-anchor="middle" style="white-space: pre;" direction="ltr">Ws2812B</text></g><g transform="translate(371.53737302015736 276.62471200869163) rotate(0 11.101141176988676 9.832746445664839)"><path d="M1.209190031691434 5.0261718380953795 C1.209190031691434 5.0261718380953795, 1.209190031691434 5.0261718380953795, 1.209190031691434 5.0261718380953795 M1.209190031691434 5.0261718380953795 C1.209190031691434 5.0261718380953795, 1.209190031691434 5.0261718380953795, 1.209190031691434 5.0261718380953795 M-0.21798909717606862 11.422678543148331 C1.7089706917723662 8.192447142942315, 4.621633544494506 6.2811530829217315, 9.119139517941722 1.2167851410089021 M0.44662610021052396 11.662871591361009 C2.9493724478197616 8.487598794701448, 6.406238748585822 6.1227610495458595, 8.492363685374357 2.320571281782348 M0.8585194751441594 16.02771937614695 C6.438504483100564 12.730324176953426, 9.867953518606841 9.124899236078289, 15.486481990646137 -1.1956544478137983 M1.9834694873362892 16.489757902458468 C5.399041992335212 12.241465156805297, 8.645931051949262 8.089295695010021, 15.844851361568583 -0.34775065041082054 M6.523598388038116 19.3315720625817 C7.910456168663812 13.216898790592364, 15.099816507948569 10.376701818838571, 18.469763875952204 5.083879543552588 M5.009411549396353 18.018683986052793 C9.348270535989018 13.099793179844752, 13.364314886716757 9.229317635190158, 18.288504681563218 3.5213071928270567 M10.156904858248437 20.16774598617571 C15.205300786966156 14.710841555147761, 18.4296910232343 10.711170088285385, 19.95664498344895 5.60146790114249 M9.012575726201886 20.95621296713593 C14.207237325300497 14.245867747231806, 18.927388897746134 10.13928384844052, 21.400000712227936 4.825851791678172 M12.362275532227725 21.51510004165215 C16.970574697471772 18.428980527240206, 19.407357212987385 14.798059640930752, 22.937250828113292 10.026235999767321 M13.182635360737116 22.104382018433935 C16.464214721606684 18.64373375022171, 19.723956294286786 14.994204835729901, 22.886728199127944 11.448412248161274 M5.462738694114725 18.103887376679694 C5.462738694114725 18.103887376679694, 5.462738694114725 18.103887376679694, 5.462738694114725 18.103887376679694 M5.462738694114725 18.103887376679694 C5.462738694114725 18.103887376679694, 5.462738694114725 18.103887376679694, 5.462738694114725 18.103887376679694 M12.228459603866478 18.117002652894293 C9.566152439863238 17.04959157635405, 8.238541405137129 15.391299994860077, 0.3042225808704314 8.222984177370101 M12.499685846516778 18.478961625538354 C9.00456754170286 16.773226182695655, 6.156639868160394 12.872342792819058, 1.1971862589808224 8.47269024404931 M17.291521544608287 18.799376467966226 C12.90685750732725 12.601436811404028, 11.666356934680914 12.868180117669356, 3.4274166243798367 3.1925302091781127 M16.77872724928241 17.705946792640475 C14.260588253195612 13.711013536036278, 9.78771203582546 12.317163338488601, 1.1714219673252932 4.074439529309057 M18.440756764878905 15.882214322669409 C13.3670243264928 10.540052430198568, 8.285523308826576 4.9689738476023235, 4.976776379297133 1.1566920891620098 M20.5111886784075 15.80111226130461 C15.481291274009127 10.8922904413591, 11.117090683325907 8.09642361399335, 6.191358779414203 1.963728140223014 M22.685417835938267 10.926471409487858 C16.051709954022336 6.998269922226375, 11.1172660311613 2.5566080415386585, 7.7648515510432095 -1.38708448001324 M21.117166775057548 10.679511636223033 C17.065352162341515 7.732636726733504, 12.389067188217597 3.585194613395453, 9.250310420343991 0.197995538067531 M25.128168934829123 7.774461950392196 C21.59469782309403 4.1749328777353085, 16.677304285423634 2.1775568295398933, 14.305889408515888 -2.259322053684288 M23.44362271694798 7.843978609733949 C22.286373182867592 5.247360283007507, 19.967552030229054 3.2630405248638263, 12.70053054209997 -1.7371628164559543" stroke="#228be6" stroke-width="0.5" fill="none"></path><path d="M7.192015322274195 1.4156583127116527 C9.346924685735473 0.37747349674669395, 13.052920691769593 -0.9090642410483276, 15.28889990153131 -0.45028440993786667 C17.52487911129303 0.00849542117259422, 19.560882348197534 2.3583190385065684, 20.6078905808445 4.168337299374418 C21.654898813491467 5.978355560242267, 22.012847378849862 8.196877150283685, 21.5709492974131 10.409825155269232 C21.12905121597634 12.622773160254779, 19.583803687246316 15.787607730283904, 17.956502092223932 17.4460253292877 C16.329200497201548 19.104442928291498, 13.93136064644873 20.287133676721204, 11.807139727278804 20.36033074929201 C9.682918808108877 20.433527821862818, 7.2917867285752305 19.380104514130334, 5.211176577204368 17.885207764712547 C3.1305664258335058 16.39031101529476, -0.032479633756422266 13.560531006410027, -0.6765211809463683 11.39095025278528 C-1.3205627281363141 9.221369499160534, -0.026306301311815217 6.813112449446068, 1.3469272940646917 4.8677232429640735 C2.720160889441199 2.922334036482079, 6.026547873892001 0.6117750723374232, 7.562880391312673 -0.28138498610668705 C9.099212908733344 -1.1745450445507974, 10.377203221199213 -0.7291113110889512, 10.564922398588722 -0.4912371077005879 M12.551801047277968 -0.4921227036437834 C14.771700170577073 -0.7412535459436841, 18.33009860661843 0.4326455469329431, 19.838132285530172 1.8934157354984658 C21.346165964441912 3.354185924063988, 21.563305304675723 5.823588386351247, 21.60000312074842 8.272498427749353 C21.636700936821114 10.721408469147459, 21.133467187872967 14.571322795543168, 20.058319181966347 16.586875983887104 C18.983171176059727 18.60242917223104, 17.203109074230696 19.798861067122523, 15.149115085308697 20.365817557812974 C13.095121096386698 20.932774048503425, 9.944648980848589 20.822659957933695, 7.734355248434355 19.988614928029822 C5.5240615160201205 19.15456989812595, 3.0273730700048747 17.589743720518534, 1.8873526908232954 15.36154737838973 C0.7473323116417159 13.133351036260924, 0.5845024108684191 8.693306758486735, 0.8942329733448773 6.619436875256989 C1.2039635358213354 4.5455669920272435, 1.9507391671990122 3.8863841384123665, 3.7457360656820438 2.9183280790112587 C5.540732964165075 1.9502720196101508, 10.479617052428631 1.4326999311983784, 11.664214364243067 0.811100518850342 C12.848811676057503 0.18950110650230556, 10.959642884025593 -1.048396166025183, 10.853319936568656 -0.8112683950769597" stroke="#000000" stroke-width="1" fill="none"></path></g><g transform="translate(444.5910948983202 278.07132416911736) rotate(0 11.101141176988676 9.832746445664839)"><path d="M4.223774625402769 1.0216452786897052 C4.223774625402769 1.0216452786897052, 4.223774625402769 1.0216452786897052, 4.223774625402769 1.0216452786897052 M4.223774625402769 1.0216452786897052 C4.223774625402769 1.0216452786897052, 4.223774625402769 1.0216452786897052, 4.223774625402769 1.0216452786897052 M1.2963066599891442 8.535919027822471 C2.80754285988577 6.849381518679317, 5.544077893414215 5.950513249008439, 8.804705291650562 1.0850921840838377 M1.5180233198777693 9.420808511646843 C3.55043292073384 7.750617280620885, 6.325249316781166 5.001834522765355, 9.823584806210665 0.2181395148358527 M3.420888543943854 15.047981730835673 C5.69576912326227 13.004199969984132, 7.739010752274332 9.539080865010238, 12.214487232187722 1.568694254613849 M3.7905193649930675 14.297344597416158 C7.078371573982009 10.101408124118182, 10.437359989699683 6.050653153589648, 12.892810270110106 2.5000578059324945 M6.5573060552307725 16.3174154249994 C9.53313168160835 14.266079926362295, 15.785300889444715 7.08470421183622, 20.52498572046725 2.580576434946729 M5.244417978701866 17.897073298138185 C8.810164020722944 13.452334381233563, 13.42578015419631 7.946657269528693, 18.962413369741718 3.6506345628119243 M8.542791763976618 21.577710677836404 C11.192695266136203 16.970899906800884, 15.283757075405193 12.567521980448843, 20.781117253995703 7.365577750140371 M9.33125874493684 20.86734860862078 C10.759454430262807 17.708344223869005, 14.79988244122172 13.321153750111431, 20.005501144531383 7.100357798067423 M13.663693720566918 20.59531370651851 C17.98907132005633 15.72600022862713, 21.756432313835365 13.43728422790939, 21.925590207667998 10.079270828764844 M14.252975697348704 20.625614940085807 C17.630380080292984 16.991277716428762, 20.81578407969157 13.212735226814795, 23.34776645606195 9.548957053262699 M7.76650551480382 20.026466068672413 C7.76650551480382 20.026466068672413, 7.76650551480382 20.026466068672413, 7.76650551480382 20.026466068672413 M7.76650551480382 20.026466068672413 C7.76650551480382 20.026466068672413, 7.76650551480382 20.026466068672413, 7.76650551480382 20.026466068672413 M12.324299259452106 19.24757044424813 C10.96683243055756 18.35468023468305, 8.876645094527856 13.147299947701839, -1.3242328333576883 7.696500702627586 M12.758650026624979 19.393452646001688 C8.94996289301461 15.249652638146465, 2.338745087789251 10.12311357027728, -1.024585553342637 7.170354309172021 M18.273219148986385 16.90907832512699 C9.730489438313676 14.72713020113807, 7.901870714987725 10.249922177852682, 0.6933618655529794 2.2199077999051617 M17.179789473660634 17.965220675785766 C10.26893263028517 11.521123287038245, 5.738455901963455 6.692503605343845, 1.5752711856839237 4.864699840715151 M20.392036129854723 12.80316989677588 C14.330675804196268 8.400425910355573, 8.132121058922566 4.20198670181353, 2.9184753857279606 1.1542482424036615 M20.306665538944408 13.879376064935723 C14.960457989839792 10.227663072688692, 11.75307600757365 7.403393532666454, 3.7679870184237547 1.9302701010809296 M20.99017586991674 10.016258410617146 C16.938012204847684 6.374341794986355, 12.518104910038966 2.3261191723801193, 9.24912102684852 1.509247231178314 M20.78437605886272 10.35357902196366 C19.34575585949825 8.301557625664598, 17.02024558108251 7.112072288502197, 10.57002104191583 0.6738745452578669" stroke="#fab005" stroke-width="0.5" fill="none"></path><path d="M12.23757059455983 0.7618815496948503 C14.32847583813349 0.6890388109787109, 16.064841588452495 1.441406925410454, 17.63268643428363 2.645064154582795 C19.200531280114767 3.8487213837551364, 21.30082091920286 6.006477237202754, 21.644639669546635 7.983824924728897 C21.98845841989041 9.96117261225504, 20.838063921162874 12.586601315581152, 19.695598936346283 14.509150279739657 C18.55313395152969 16.431699243898162, 16.806023601533543 18.62389880828613, 14.789849760647083 19.51911870967993 C12.773675919760626 20.41433861107373, 9.799746535175576 20.88487867481531, 7.598555891027535 19.880469688102465 C5.3973652468794935 18.87606070138962, 2.8875753490674407 15.507311313427635, 1.5827058957588385 13.492664789402848 C0.277836442450236 11.478018265378061, -0.6266065003689156 9.820210182613405, -0.2306608288240799 7.792590543953747 C0.16528484272075578 5.7649709052940885, 1.9894409039758305 2.4765601162064668, 3.9583799250278524 1.3269469574448953 C5.9273189460798745 0.17733379868332366, 10.238283835980583 1.044694966732695, 11.582973297488051 0.8949115913843162 C12.927662758995519 0.7451282160359374, 11.965241883222143 0.3742500821550972, 12.02651669407266 0.4282467053546224 M14.44135370020976 1.433081541395433 C16.290678164160887 1.856776426900075, 18.575446506515814 2.729943584361803, 19.70562079393874 4.414440814343256 C20.835795081361663 6.098938044324709, 21.305241838361614 9.160728604116377, 21.2223994247473 11.540064921284152 C21.13955701113299 13.919401238451927, 20.741287021796516 17.09967508111513, 19.208566312252863 18.690458717349905 C17.67584560270921 20.28124235358468, 14.363637226064323 21.16542150186996, 12.026075167485388 21.084766738692796 C9.688513108906452 21.00411197551563, 6.9189456820031525 19.728531946157894, 5.183193960779246 18.206530138286908 C3.447442239555339 16.684528330415922, 2.3167374334191853 14.357893799871832, 1.6115648401419485 11.952755891466888 C0.9063922468647115 9.547617983061944, -0.2090861660664176 5.758144172520041, 0.952158401115824 3.7757026878572484 C2.1134029682980655 1.7932612031944561, 6.113629156304055 0.8005150055795114, 8.579032243235398 0.05810698349013421 C11.044435330166742 -0.684301038599243, 14.86626456735545 -0.6297658712747239, 15.744576922703883 -0.6787454446790147 C16.622889278052316 -0.7277250180833054, 13.839529965586593 -0.6410845424175935, 13.848906375325988 -0.23577045693560983" stroke="#000000" stroke-width="1" fill="none"></path></g><g><g transform="translate(405.12806873255806 285.52723135711767) rotate(0 13.91090619210945 0.0015287455124166627)"><path d="M-0.9208490766584874 0.09422061815857896 C3.8876263144762753 0.2801488818455805, 23.67917432047498 0.7752376356368604, 28.742661460877322 1.0333147945875338 M0.7965664287563414 -0.9019175026472658 C5.467289907714495 -1.0885419160552006, 23.136220951220736 -1.0468496360888986, 27.859432041949518 -0.9339662694217601" stroke="#e67700" stroke-width="1" fill="none"></path></g></g><g transform="translate(371.87922403089135 243.97954558041215) rotate(0 19.89086662076528 13.260577747176853)"><text x="0" y="17.521155494353703" font-family="Virgil, Segoe UI Emoji" font-size="21.216924395482973px" fill="#000000" text-anchor="start" style="white-space: pre;" direction="ltr">Led1</text></g><g transform="translate(437.21770803216407 243.97954558041215) rotate(0 26.521155494353707 13.260577747176853)"><text x="0" y="17.521155494353703" font-family="Virgil, Segoe UI Emoji" font-size="21.216924395482966px" fill="#000000" text-anchor="start" style="white-space: pre;" direction="ltr">Led2</text></g><g><g transform="translate(363.6822202565231 286.8107250077062) rotate(0 -9.118938117468474 0.6745272903112038)"><path d="M-1.1450170033836218 0.5455775169290507 C-3.2400889528646086 0.4157949387413511, -9.861035304592711 -0.9350665989969917, -17.796772575964113 0.8229596782286999 M0.2278772030695252 0.7921855937695043 C-5.914359787120789 -0.3269925632753109, -11.085839938868093 1.2390974320345896, -18.465753438006516 1.420578157450728" stroke="#e67700" stroke-width="1" fill="none"></path></g></g><g><g transform="translate(362.7195009582774 297.2054618498116) rotate(0 -38.41343119275501 -70.82333846967026)"><path d="M0.23064861074090004 1.639089073985815 C-19.01592121541109 0.3267053763730488, -38.40619979055589 -0.9821709595178678, -77.0662063831353 1.1484546974430714 M0.26640848629176617 -0.19595821015536785 C-21.900406837665113 0.3239294761777002, -44.73971795335806 2.0538032391914376, -74.70797578300176 1.2977537434677515 M-73.18474523964164 3.1593122795353565 C-78.69051944106481 -53.26932019232302, -77.62973540158848 -113.7229866143845, -74.60065720681291 -144.1069248057903 M-74.95005980933843 1.6597184460739527 C-75.6808877279119 -27.81409478001152, -75.94188343413525 -58.036379304288644, -75.35831085112136 -144.80598921887588" stroke="#000000" stroke-width="1" fill="none"></path></g></g><g><g transform="translate(360.4457651481641 277.22635968262887) rotate(0 -23.467220850092815 -78.64620932093615)"><path d="M1.0310651995241642 -1.45175376906991 C-16.593196654450892 -1.23524253485772, -31.4784350725614 -2.9633272211802364, -47.965506899709794 -2.1809243110841408 M-0.35289408452808857 -0.5503542553633451 C-16.596282296810358 0.07229936803006343, -32.95197654956292 -0.7012427899201934, -46.16285018024871 -2.138419205126752 M-47.76950107848177 -0.7839278129762306 C-48.204273789548836 -60.44535114760816, -47.040289964536726 -121.18106239529291, -47.630338418836686 -156.9539735589765 M-46.22797802982757 -1.9248462261533632 C-46.35363183737564 -57.75857104546769, -46.38304255852773 -113.19266132669169, -47.68325672445724 -155.37350416859908" stroke="#c92a2a" stroke-width="1" fill="none"></path></g></g><g><g transform="translate(407.1559008262112 294.42339050641874) rotate(0 13.87250675354943 1.5618222349228574)"><path d="M-0.9156557522714137 1.1811821065843107 C4.009974380150581 1.343627046220409, 23.560717380122064 0.7402698599939886, 28.66066925937023 0.787755845772665 M0.8044862484466284 0.755698767201975 C5.65387070786781 1.1432622846164127, 22.955574117182536 2.559824506055722, 27.7343939346512 2.351556333635565" stroke="#000000" stroke-width="1" fill="none"></path></g></g><g><g transform="translate(407.7085324051584 278.0023378748398) rotate(0 14.40351982173371 -0.5991429825422472)"><path d="M-0.2974780239164829 -0.36169247254729264 C4.411259597232094 -0.5756058847288613, 24.4794645860302 -1.0030871119997529, 29.104517667383856 -1.1534209648551497 M1.747207284187898 -1.59718496597372 C6.288348117824173 -1.6156283845043755, 23.859250875727714 0.13090287664951133, 28.546367480314306 0.3988990008892417" stroke="#c92a2a" stroke-width="1" fill="none"></path></g></g><g transform="translate(514.0990543254476 227.81109589584776) rotate(0 56.15384615384613 110.76923076923077)"><path d="M0.9313271902501583 0.09480056539177895 L112.42578433425376 0.4202141501009464 L112.46493183047721 219.6474658907033 L-0.25091293826699257 221.72001845246325" stroke="none" stroke-width="0" fill="#ffffff"></path><path d="M-1.5072288773953915 0.55485924705863 C44.45015256794598 1.4986582645716573, 91.02713621665649 2.5742818960490133, 111.08426796616266 0.08361002430319786 M0.8078945707529783 -0.12117518298327923 C34.10522445993353 0.33343537381062105, 67.64045222203889 1.6422527008331735, 113.1643727437521 0.8213290441781282 M113.0312577746257 1.370011267054801 C110.2788186505036 75.20142804600437, 112.3176580483089 148.77798092586443, 113.87293938617938 222.97653180586445 M112.91293930606247 -0.1818259792925374 C112.33302382725374 77.91196038203289, 111.38789095094462 154.3254219797636, 112.12512741443044 220.77201305078324 M113.35096930683801 221.56248730277787 C69.62344655337239 221.60802948741386, 26.26479358140091 223.04263901977012, 0.8576677776873112 222.01975828265915 M113.11860656895885 221.18076713798712 C74.55781324680605 220.87080857369764, 38.06145588351555 219.9663805088745, -0.9264059830456972 220.99525393961142 M0.7912617845252883 221.02256758942772 C0.5601542481710928 136.1154825170959, 0.9784533389942113 51.39632912188398, -0.40018629770412406 -0.16131124500552907 M0.6896509290685495 222.37538876026582 C-0.8424695250692686 150.97180510006223, -1.573439727388863 78.59976598160878, 0.48019659005410187 -0.07127134459835548" stroke="#000000" stroke-width="1" fill="none"></path></g><g transform="translate(516.4067466331397 334.73417281892466) rotate(0 12.30769230769232 17.30769230769232)"><path d="M0.4126376770436764 -1.5666914246976376 L22.85362303572208 -1.993211891502142 L26.284169915490452 36.550606022947136 L-0.9274355508387089 34.37391008006841" stroke="none" stroke-width="0" fill="#ffffff"></path><path d="M0.42298826947808266 -1.9332440234720707 C6.229869426729594 -2.0748397699342327, 12.058086185787745 -0.21938902053695472, 25.432342063062492 -0.6470431424677372 M-0.15205557830631733 0.1251795757561922 C6.180802791594319 -0.2622992870612786, 10.95791889770101 0.07606859232943797, 23.65420665348381 0.9786010850220919 M25.530905257337395 1.096907701343298 C25.156654448821595 11.219590824527245, 25.71289536507373 20.0928499669983, 23.614544998281303 35.08622742014438 M23.881208320506516 0.576069938018918 C24.042621761918667 10.331800957425292, 24.84360763466418 21.197259836328737, 25.362840255149308 35.04657169560403 M23.50226224529058 35.08545780497104 C16.548351706507134 34.38477497186801, 11.669731847655326 33.823576856519196, -0.5999439023435116 34.723274591737095 M23.670118411429826 33.67045351246804 C16.514363716857957 35.35689857582063, 10.78956109442964 34.41085407117814, 0.32339690439403057 35.307356619634334 M-1.8615491650998592 35.77563608007938 C-1.6987911563796494 22.395550270923074, -0.38691211756891947 13.098804152928874, 0.012442443519830704 0.6091911457479 M0.28175233118236065 35.082163119115535 C-0.1794784201595646 28.06140866646402, -0.9559576047870976 19.251578362372072, -0.16822965629398823 -0.6137389671057463" stroke="#000000" stroke-width="1" fill="none"></path></g><g transform="translate(522.7272594536527 406.06750615225803) rotate(0 46.5 16)"><text x="46.5" y="23" font-family="Virgil, Segoe UI Emoji" font-size="20px" fill="#000000" text-anchor="middle" style="white-space: pre;" direction="ltr">PCA9685</text></g><g><g transform="translate(529.2529004792937 345.5034035881555) rotate(0 -108.46428038470498 -34.345523224458105)"><path d="M-1.6649962193858363 1.462151269151685 C-77.89506965770049 1.126224355095267, -156.15139905311696 -1.9520893713578937, -214.03664301611335 -3.7664488787586192 M-0.18592665710799774 -0.6601630910870587 C-54.912297715086346 -0.4038961408612143, -108.56355077065896 -2.201643590402526, -214.54187880321734 -2.4567127286866324 M-213.7065976093022 -2.942429394389592 C-215.10718979101918 -19.22982574646866, -213.93779423219655 -39.731637208421695, -216.03997780411294 -70.15319771806787 M-214.2513826115487 -2.2592728351457936 C-214.80113512807745 -24.39341284019446, -215.76191555808947 -48.19172969603773, -216.74263411230197 -70.07585031095039" stroke="#c92a2a" stroke-width="1" fill="none"></path></g></g><g><g transform="translate(528.4452081716013 356.0034035881555) rotate(0 -120.29724094105745 -29.372755326500027)"><path d="M-1.3358430850391334 0.352687159501028 C-91.3958648065144 -0.7596750212828403, -186.84333470262513 -3.6013686713539963, -237.53777174110536 -5.509447201485766 M0.29338880401381146 -0.5399036379757977 C-70.55301044272396 -1.289627371338176, -140.009421469748 -2.6489921854880483, -239.74751960104612 -3.539629731237782 M-240.34038477534273 -2.636567497769306 C-239.65721053157282 -25.217064163690644, -239.76886478310018 -45.333368938674205, -238.54244854673743 -57.22610725491097 M-238.57993672745147 -4.0488477387967805 C-240.40601133039357 -19.560017183996237, -240.8790102454905 -33.69666260968041, -240.88787068612874 -59.0981978125011" stroke="#000000" stroke-width="1" fill="none"></path></g></g><g transform="translate(524.5990543254475 312.4264805112325) rotate(0 9 12.5)"><text x="9" y="18" font-family="Virgil, Segoe UI Emoji" font-size="16px" fill="#000000" text-anchor="middle" style="white-space: pre;" direction="ltr">V+</text></g><g transform="translate(521.5990543254475 362.88801897277085) rotate(0 19 12.5)"><text x="19" y="18" font-family="Virgil, Segoe UI Emoji" font-size="16px" fill="#000000" text-anchor="middle" style="white-space: pre;" direction="ltr">GND</text></g><g><g transform="translate(199.32242551927732 -8.020027510805926) rotate(269.9507523258099 0.5673087602481246 61.12315698771476)"><path d="M1.7628174684941769 0.9620216824114323 C1.3769299555665264 40.3801070827896, -1.1819106254252214 79.72212041765012, 0.02006050095629419 120.87685572472806 M-0.6281999479979277 0.1603101920336485 C1.124376367543158 36.99558996461145, 0.8851796072175178 74.6638029015275, -0.09422739140022074 122.08600378339584" stroke="#000000" stroke-width="1" fill="none"></path></g><g transform="translate(199.32242551927732 -8.020027510805926) rotate(269.9507523258099 0.5673087602481246 61.12315698771476)"><path d="M-8.13744023980965 94.69592202666246 C-5.052450563037969 103.3585711411304, -4.57016766296713 111.86235929992574, -0.645554653473976 120.96773622115548 M-10.528457656301754 93.89421053628467 C-6.429641529226612 102.2207240369902, -3.849269622509249 111.29736744537496, -0.7598425458304909 122.17688427982326" stroke="#000000" stroke-width="1" fill="none"></path></g><g transform="translate(199.32242551927732 -8.020027510805926) rotate(269.9507523258099 0.5673087602481246 61.12315698771476)"><path d="M12.381115843007127 95.02585938759971 C8.710513250401053 103.39590500111561, 2.435689707323247 111.79103922449629, -0.645554653473976 120.96773622115548 M9.990098426515022 94.22414789722193 C7.822415537497137 102.26594173549931, 4.137956132491706 111.24184696809021, -0.7598425458304909 122.17688427982326" stroke="#000000" stroke-width="1" fill="none"></path></g></g><g transform="translate(143.13644748784077 26.59207880183098) rotate(0 40.5 12.5)"><text x="0" y="18" font-family="Virgil, Segoe UI Emoji" font-size="16px" fill="#000000" text-anchor="start" style="white-space: pre;" direction="ltr">5v / 2.5A</text></g><g><g transform="translate(344.30509108995807 284.937235130806) rotate(0 -9.841391596244478 2.1603922749986566)"><path d="M1.258679625115808 1.8798013948795316 C-7.380920357586515 2.302627547706118, -12.362074221461498 0.015406677655186884, -20.9414628176048 2.9035072715778316" stroke="#e67700" stroke-width="1.5" fill="none" stroke-dasharray="3 6"></path></g></g></svg>