<svg version="1.1" xmlns="http://www.w3.org/2000/svg" viewBox="0 0 1007 497.9999999999999" width="1007" height="497.9999999999999">
  <!-- svg-source:excalidraw -->
  
  <defs>
    <style>
      @font-face {
        font-family: "Virgil";
        src: url("https://excalidraw.com/FG_Virgil.woff2");
      }
      @font-face {
        font-family: "Cascadia";
        src: url("https://excalidraw.com/Cascadia.woff2");
      }
    </style>
  </defs>
  <g transform="translate(10 10) rotate(0 493.5 238.99999999999994)"><path d="M650.507740662235 12.843883362513338 C682.3622014817281 14.019009647595595, 711.7057534736375 24.697205758134874, 740.1208817302258 32.43476724603795 C768.5360099868142 40.17232873394102, 796.5193760569207 48.6925336114378, 820.9985102017649 59.269252289931785 C845.4776443466092 69.84597096842576, 867.2504288420055 83.26300771770268, 886.9956865992913 95.89507931700183 C906.7409443565771 108.52715091630098, 925.3108774564278 121.0086255732046, 939.4700567454797 135.06168188572673 C953.6292360345317 149.11473819824886, 964.0653777975897 164.72504324026715, 971.9507623336027 180.21341719213459 C979.8361468696157 195.70179114400202, 985.1507360989168 212.2366564282499, 986.7823639615578 227.99192559693125 C988.4139918241989 243.74719476561262, 986.7680290483519 259.2371292997767, 981.7405295094491 274.74503220422275 C976.7130299705462 290.2529351086688, 967.9448733990987 306.13459157284257, 956.6173667281407 321.03934302360733 C945.2898600571828 335.9440944743721, 931.0998582729329 350.56520498620984, 913.775489483701 364.1735409088113 C896.4511206944691 377.7818768314127, 875.2423964298823 390.9053989592701, 852.6711539927492 402.68935855921586 C830.099911555616 414.47331815916164, 804.8091635913313 425.77979501623923, 778.3480348609019 434.8772985084858 C751.8869061304724 443.9748020007324, 723.8061610941041 450.89534480835084, 693.9043816101723 457.2743795126952 C664.0026021262405 463.65341421703954, 630.9265422176024 469.86582383342676, 598.937357957311 473.15150673455173 C566.9481736970195 476.4371896356767, 534.6486423950472 476.69120756338015, 501.9692760484232 476.9884769194449 C469.2899097017992 477.28574627550967, 434.98610964823274 477.55692664203275, 402.8611598775671 474.9351228709403 C370.73621010690147 472.31331909984783, 339.5626124895001 467.2852010332654, 309.2195774244293 461.2576542928902 C278.8765423593585 455.230107552515, 248.0172850486292 447.43790141885523, 220.80294948714243 438.76984242868906 C193.58861392565566 430.1017834385229, 169.08050604751935 420.4043232329628, 145.93356405550873 409.24930035189317 C122.7866220634981 398.09427747082356, 99.99279533304593 385.1411937319709, 81.92129753507868 371.83970514227127 C63.849799737111425 358.53821655257167, 49.60588815392713 344.23280810618706, 37.5045772677052 329.44036881369544 C25.40326638148327 314.6479295212038, 15.504428791478272 298.60638388878846, 9.313432217747106 283.0850693873214 C3.1224356440159413 267.5637548858544, 0.1525695286838508 252.23817947407412, 0.3585978253182134 236.31248180489325 C0.564626121952576 220.3867841357124, 3.735434393118008 203.1862908809525, 10.549601997553282 187.5308833722362 C17.363769601988555 171.87547586351988, 28.030949245955753 156.61963963334605, 41.24360345192986 142.38003675259534 C54.45625765790396 128.14043387184464, 70.97966212413655 114.84614985935998, 89.8255272333979 102.09326608773196 C108.67139234265926 89.34038231610394, 130.61892856984278 76.67647837804755, 154.31879410749798 65.86273412282725 C178.01865964515318 55.04898986760695, 204.3799324840473 45.79290635695675, 232.02472045932916 37.21080055641016 C259.66950843461103 28.628694755863577, 289.4115031712305 20.12612861546535, 320.18752195918927 14.370099319547734 C350.96354074714804 8.614070023630116, 384.26028728696303 4.909028360423628, 416.680833187082 2.674624780904452 C449.10137908720094 0.4402212013852753, 482.23591630847903 0.40944696544419423, 514.7107973599029 0.9636778424326735 C547.1856784113268 1.5179087194211527, 583.7598822885569 3.1927491559993277, 611.5301194956253 6.000010042835328 C639.3003567026936 8.807270929671327, 665.6192089302706 14.051981991478376, 681.3322206023129 17.807243163448675 C697.0452322743552 21.562504335418975, 709.1246378002324 24.93424099014867, 705.8081895278792 28.531577074657122 M462.2456977341973 0.8809418122712032 C492.84981088254796 -3.948514854728619, 529.8086592503178 0.282655206826945, 562.5061394670865 2.5865584881433676 C595.2036196838553 4.89046176945979, 627.616685629093 9.49991914337291, 658.4305790348101 14.704361500169739 C689.2444724405271 19.908803856966568, 719.7332656944168 25.959650386158206, 747.3894999013892 33.81321262892433 C775.0457341083616 41.66677487169046, 800.3055817932423 51.150563100374534, 824.3679842766444 61.825734956766496 C848.4303867600465 72.50090681315847, 872.1302217974298 84.9769169643976, 891.7639148018023 97.86424376727612 C911.3976078061748 110.75157057015464, 928.4415284266825 124.64342737684169, 942.1701423028791 139.14969577403758 C955.8987561790757 153.65596417123348, 966.6804269898728 169.55206685440612, 974.1355980589819 184.90185415045153 C981.5907691280911 200.25164144649693, 985.7392419865951 215.70864195063282, 986.9011687175341 231.24841955031008 C988.0630954484732 246.78819714998733, 986.678970566031 262.6366401815785, 981.1071584446164 278.14051974851503 C975.5353463232018 293.64439931545155, 965.4165792504405 309.29555151925257, 953.4702959890465 324.2716969519292 C941.5240127276525 339.2478423846058, 926.8810857915691 354.50069056958387, 909.4294588762525 367.9973923445746 C891.9778319609359 381.4940941195654, 871.6384328654754 393.84148570494335, 848.7605344971464 405.2519076018736 C825.8826361288175 416.66232949880384, 798.9864048810805 427.5952625585269, 772.1620686662786 436.4599237261562 C745.3377324514768 445.3245848937855, 717.5220338471493 452.13372897106535, 687.814517208335 458.43987460764964 C658.1070005695208 464.74602024423393, 626.1850373684636 470.8196595436769, 593.9169688333931 474.296797545662 C561.6489002983226 477.7739355476471, 526.7817876716579 479.3916687867141, 494.2061059979119 479.30270261956036 C461.630424324166 479.21373645240664, 430.49508697643677 476.83543687678997, 398.4628787909175 473.7630005427395 C366.43067060539823 470.69056420868907, 332.38559056552845 467.24029229908103, 302.01285688479635 460.86808461525766 C271.64012320406425 454.4958769314343, 242.89105199336842 444.64063961393737, 216.22647670652503 435.52975443979926 C189.56190141968165 426.41886926566116, 164.82965172580649 417.342324957596, 142.02540516373597 406.20277357042903 C119.22115860166546 395.06322218326204, 97.41350765742598 382.2346325643232, 79.40099733410199 368.6924461167973 C61.38848701077799 355.15025966927146, 45.778059903598354 339.5891786267894, 33.950343223792004 324.949654885274 C22.122626543985653 310.3101311437586, 14.032389204263485 296.3474913407325, 8.43469725526387 280.85530366770496 C2.8370053062642553 265.3631159946774, -0.16530654816997037 247.89951717069474, 0.36419152979431146 231.9965288471087 C0.8936896077585933 216.09354052352265, 4.496143559017554 200.85565523252689, 11.611685723049561 185.43737372618875 C18.72722788708157 170.01909221985062, 29.61520812501368 153.8151797846335, 43.057444513986354 139.48683980907987 C56.49968090295903 125.15849983352625, 72.74332127405069 112.13405486080197, 92.2651040568856 99.46733387286702 C111.78688683972052 86.80061288493206, 136.08151808652477 74.19516931862708, 160.18814121099587 63.48651388147019 C184.29476433546697 52.777858444313296, 209.20642706678646 43.68392405227278, 236.90484280371226 35.21540124992566 C264.6032585406381 26.746878447578545, 295.32283834410117 18.371889676004244, 326.3786356325507 12.675377067387473 C357.4344329210002 6.978864458770701, 400.72601036824756 2.8952261042555607, 423.2396265344094 1.0363255982250337 C445.75324270057126 -0.8225749078054936, 454.84936924556405 0.6558638406502553, 461.4603326295219 1.5219740312043086 C468.0712960134797 2.388084221758362, 462.23697814721186 2.400073058681059, 462.9054068381565 6.232986741549354" stroke="none" stroke-width="0" fill="#ffffff"></path><path d="M697.7487512904761 22.052489393887356 C729.2581726437925 24.6659105721198, 756.1700789337449 36.19661203120882, 782.585706162812 45.55318478803639 C809.0013333918791 54.90975754486396, 834.162637561013 66.7110919065559, 856.2425146648792 78.19192593485278 C878.3223917687454 89.67275996314966, 898.2163922034265 101.03426386505194, 915.0649687860096 114.43818895781769 C931.9135453685926 127.84211405058343, 946.1911191566466 143.45525140019885, 957.3339741603772 158.61547649144728 C968.4768291641079 173.77570158269572, 976.9905389821171 189.78137914447439, 981.9220988083936 205.39953950530833 C986.8536586346701 221.01769986614227, 988.868119792229 236.5087434124696, 986.9233331180362 252.32443865645084 C984.9785464438435 268.14013390043203, 978.7041076910068 284.9988334048261, 970.2533787632374 300.2937109691957 C961.802649835468 315.58858853356526, 950.5852089142717 329.9916469464878, 936.2189595514194 344.0937040426684 C921.8527101885671 358.195761138849, 904.01957178529 372.4522852319402, 884.055882586124 384.9060535462794 C864.0921933869579 397.3598218606186, 841.1209675002146 408.4146719073637, 816.4368243564231 418.8163139287035 C791.7526812126316 429.2179559500433, 764.4306304300749 439.4861564999944, 735.9510237233751 447.3159056743182 C707.4714170166753 455.1456548486419, 676.7130420870421 461.0103261350575, 645.5591841162243 465.79480897464583 C614.4053261454064 470.5792918142342, 581.3963153529264 474.2190201309577, 549.0278758984676 476.02280271184816 C516.6594364440089 477.8265852927386, 483.6620489011556 478.03830598192206, 451.3485473894714 476.6175044599887 C419.0350458777872 475.19670293805535, 386.5235408657188 471.8803485857309, 355.1468668283625 467.49799358024814 C323.77019279100614 463.11563857476534, 292.2317150394407 457.4203338129455, 263.08850316533346 450.32337442709206 C233.94529129122623 443.2264150412386, 205.68167037283592 435.0248702079717, 180.28759558371905 424.9162372651277 C154.89352079460218 414.8076043222837, 131.15940635447242 402.16556499204836, 110.72405443063224 389.67157677002797 C90.28870250679203 377.1775885480076, 72.76800397550939 363.81872844820276, 57.67548404067787 349.9523079330054 C42.582964105846365 336.085887417808, 29.538698630502942 321.5193806298163, 20.168934821643177 306.4730536788437 C10.799171012783413 291.42672672787114, 4.231554489643807 275.404894086481, 1.4569011875192928 259.6743462271701 C-1.3177521146052222 243.94379836785916, -0.17046475383569737 227.91735294591177, 3.521015008896086 212.08976652297815 C7.212494771627869 196.26218010004453, 13.395366838553704 179.83402574608758, 23.605779763909993 164.70882768956838 C33.81619268926628 149.58362963304918, 48.62607961429444 134.96222423348377, 64.78349256103382 121.33857818386305 C80.94090550777321 107.71493213424232, 99.1055472906492 94.83491129674064, 120.5502574443463 82.96695139184399 C141.99496759804342 71.09899148694734, 167.58742396749497 59.74339132987386, 193.45175348321646 50.13081875448316 C219.31608299893796 40.51824617909246, 246.63966818426513 32.44326680657843, 275.73623453867526 25.29151593949979 C304.8328008930854 18.139765072421145, 336.31404959898737 11.53624832648563, 368.0311516096772 7.220313552011305 C399.748253620367 2.904378777536981, 433.1697042364574 0.19670569454120823, 466.03884660281426 -0.6040927073461546 C498.90798896917113 -1.4048911092335175, 532.9789781367421 -0.08860734012015348, 565.2460058078185 2.415523140687128 C597.513033478895 4.91965362149441, 635.2259347780195 10.528246024311258, 659.6410126292731 14.420690177497534 C684.0560904805267 18.31313433068381, 701.1596569956794 22.89056188515082, 711.7364729153403 25.77018805980478 C722.3132888350012 28.64981423445874, 726.4488991889986 28.402792203017412, 723.1019081472389 31.69844722542129 M386.59669237732635 5.951476323946679 C415.42285828346087 -0.8307637361843376, 453.7359843776979 1.5394388090721425, 486.5489615521971 1.139990987727458 C519.3619387266963 0.7405431663827737, 551.4813375941112 1.0389571777050293, 583.4745554243217 3.554789395878572 C615.4677732545322 6.070621614052115, 647.9673927581565 10.3106450823627, 678.5082685334597 16.234984296768715 C709.049144308763 22.15932351117473, 739.651096856307 30.170213456182232, 766.7198100761411 39.10082468231465 C793.7885232959752 48.03143590844707, 817.9640910524733 58.3888035210287, 840.9205478524641 69.81865165356322 C863.8770046524548 81.24849978609774, 886.1125762431489 94.56754984011987, 904.4585508760855 107.67991347752178 C922.8045255090221 120.79227711492369, 938.8616727144433 134.02534908877132, 950.9963956500837 148.49283347797467 C963.1311185857242 162.96031786717802, 971.2991649358487 178.69807909116645, 977.2668884899283 194.48481981274185 C983.2346120440079 210.27156053431725, 987.074344638614 227.54705603873484, 986.8027369745614 243.21327780742715 C986.5311293105088 258.87949957611943, 982.6086583976848 272.9741493904979, 975.6372425056129 288.4821504248957 C968.665826613541 303.99015145929343, 958.2759903620133 321.74070844987784, 944.9742416221297 336.2612840138136 C931.6724928822462 350.7818595777494, 914.5516217169461 362.88730260423415, 895.8267500663118 375.6056038085105 C877.1018784156774 388.3239050127869, 856.130157622607 401.6512447648297, 832.625011718324 412.571091239472 C809.119865814041 423.49093771411435, 782.5139499376171 432.8789559500622, 754.7958746406134 441.1246826563645 C727.0777993436097 449.37040936266675, 697.0747206545362 456.4304346880743, 666.3165599363022 462.0454514772855 C635.5583992180681 467.6604682664967, 602.592159718989 472.07340977169946, 570.2469103312087 474.81478339163164 C537.9016609434284 477.5561570115638, 504.77418915739554 479.36516632275254, 472.2450636096205 478.49369319687844 C439.71593806184546 477.62222007100434, 406.76431657897604 473.5205267064732, 375.0721570445583 469.5859446363872 C343.3799975101406 465.65136256630115, 311.64201598861735 461.2650199763315, 282.0921064031142 454.88620077636216 C252.54219681761109 448.50738157639285, 223.92235191542247 440.6728642052599, 197.77269953153962 431.3130294365714 C171.62304714765676 421.95319466788294, 147.06109303805144 410.4899917157861, 125.19419209981703 398.7271921642313 C103.32729116158264 386.96439261267653, 82.97134256888255 374.44294370512574, 66.57129390213322 360.7362321272427 C50.17124523538389 347.0295205493597, 37.0572533749991 331.5350242845375, 26.793900099321036 316.4869226969333 C16.530546823642972 301.43882110932907, 9.269714481092098 286.33161204202946, 4.991174248064851 270.4476226016173 C0.7126340150376036 254.56363316120516, -0.8119806111072403 237.23695963141327, 1.1226587011575475 221.1829860544604 C3.0572980134223355 205.12901247750753, 7.630490502626827 189.2651513450287, 16.599010121653578 174.12378113990005 C25.567529740680328 158.9824109347714, 39.79587919132191 144.30812160488054, 54.93377641531805 130.33476482368843 C70.0716736393142 116.36140804249631, 87.43613369792261 102.90375451640594, 107.42639346563044 90.28364045274733 C127.41665323333827 77.66352638908873, 150.0598761671819 65.00708139634244, 174.87533502156498 54.61408044173683 C199.69079387594806 44.22107948713121, 227.66470539614 35.26746964011843, 256.319146591929 27.92563472511364 C284.973587787718 20.583799810108854, 325.06165740511085 14.076203066064792, 346.80198219629887 10.563070951708113 C368.5423069874869 7.049938837351434, 379.56252709130246 6.975124272737749, 386.7610953390572 6.846842038973563 C393.9596635868119 6.7185598052093765, 388.16803251539847 6.239568770328015, 389.9933916828272 9.793377549122994" stroke="#000000" stroke-width="1" fill="none"></path></g><g transform="translate(21.54112554112612 150.5104617604614) rotate(0 94.59740259740249 134.71428571428584)"><path d="M1.416991326957941 -0.4116564132273197 L190.1280822988549 -1.7809104062616825 L190.86858453712853 268.43120472825024 L0.11200878396630287 268.2045822659776" stroke="none" stroke-width="0" fill="#ffffff"></path><path d="M1.1225076578557491 0.5671523548662663 C50.567860122479736 0.9273710047269803, 97.16564407514083 -1.1072503531908053, 190.03980447463186 0.9602365233004093 M-0.9606977831572294 0.15730921737849712 C52.23224902403136 1.187170935881795, 105.29102720634202 0.9617800843841449, 189.12600586488338 0.9875453542917967 M187.99975468033657 0.043241694436858144 C191.5577204055641 74.44500392336532, 191.46081780246476 149.61759294991668, 187.67927369084182 268.08998590882163 M188.86382850024526 0.1742898225425831 C188.02026085055422 99.73885110096018, 188.327033830877 199.5190869392804, 188.6310829110553 269.91257449004456 M187.62244738749655 270.14485484308454 C120.31619455362475 271.03595785156887, 51.08888687966507 272.0013593818347, -0.01802567020058632 271.31144517606947 M190.15455535724254 269.5286624519423 C130.05082905128486 271.05965673534246, 71.36725540951176 269.84359281865926, 0.826658533886075 269.06266064329895 M0.11770736056444489 270.1702616920372 C-2.347549102178364 212.11140864753355, -1.094337307069086 154.82280799846254, 0.005967717034859526 -0.5364992388670767 M0.2124404054437984 269.2804050061709 C2.111947200742417 211.97967810675388, 1.6543913082199633 156.22905778898203, 0.7348691541913069 -0.3477355171145768" stroke="#000000" stroke-width="1" fill="none"></path></g><g transform="translate(53.60173160173167 358.78318903318876) rotate(0 63 16)"><text x="63" y="23" font-family="Virgil, Segoe UI Emoji" font-size="20px" fill="#000000" text-anchor="middle" style="white-space: pre;" direction="ltr">Raspberry Pi</text></g><g><g transform="translate(209.92640692640703 202.66661564554795) rotate(0 123.56837878613248 -1.709559569553818)"><path d="M0.34029141291975984 0.6067930497229099 C41.6246300824824 -0.17644308086775773, 206.9909706186965 -3.5330378441285606, 248.0769518969017 -4.0259121888305565 M-0.940194324636832 -0.12024454451166089 C40.23305659443132 -0.8602847941528313, 206.46089000854602 -2.3841704175301164, 247.60524059993168 -3.1019282288930885" stroke="#c92a2a" stroke-width="1" fill="none"></path></g></g><g><g transform="translate(211.35509752975463 232.66974596610754) rotate(0 122.35423522503135 -0.41744637938653284)"><path d="M0.6067930497229099 0.9073031745851041 C41.0184983728516 0.5602219502054502, 202.44166942446827 -1.448881341058588, 243.14373653348562 -1.7421959333581638 M-0.5337793285120278 0.33803339590318515 C40.16873283855311 0.13811582757945853, 204.43334119389166 0.1691004963798316, 245.2422497785746 -0.36934224322380227" stroke="#000000" stroke-width="1" fill="none"></path></g></g><g><g transform="translate(211.35516939995819 266.95908826439364) rotate(0 124.104701993623 -0.9728157699989879)"><path d="M0.9073031745851041 -1.168459602445364 C42.23140550165567 -1.423212898281927, 206.9070364161925 -0.8360705669110775, 248.28490537534316 -0.9217267252964687 M-0.07550138809718199 0.8324951609317215 C41.03337555801626 0.1633776836362083, 205.70782259645588 -2.556363073045215, 247.17228835062903 -2.7781267009297173" stroke="#e67700" stroke-width="1" fill="none"></path></g></g><g><g transform="translate(211.35510763233992 304.1060883609627) rotate(0 123.25409434388354 -2.2074402782548077)"><path d="M-1.168459602445364 -0.31346964016556733 C40.009849604302886 -0.844905281330576, 206.329241946013 -1.8377969367575169, 247.67664829021243 -2.2813106724049472 M0.41896037693135435 -1.5236451465915888 C41.4305163652076 -2.489689649858629, 206.06175378270385 -4.068928033789274, 246.9947775997307 -4.101410916344034" stroke="#5c940d" stroke-width="1" fill="none"></path></g></g><g transform="translate(459.6406926406928 172.38059163059137) rotate(0 65 77.14285714285711)"><path d="M0.11200878396630287 -1.22398916259408 L130.8191324211657 0.34110208973288536 L131.33897349610925 155.87534497518618 L1.0630115009844303 154.91387830514986" stroke="none" stroke-width="0" fill="#ffffff"></path><path d="M0.8449992798268795 0.9602365233004093 C48.4063339587301 0.14442633073776967, 96.81089602410793 -1.581803456135094, 130.314618434757 -1.053535845130682 M-0.0687993299216032 0.9875453542917967 C43.814725048840046 0.33563479091972104, 87.56340941600502 -0.970190859772265, 130.02756880410016 0.7737427186220884 M128.06754144653678 -1.7068342231214046 C132.50367186601673 35.18955204582639, 131.5521272235683 71.20029149470582, 130.444474902004 153.53370892096837 M129.2811961043626 0.617153687402606 C130.64904114779617 46.38360855967869, 130.38678685006286 90.99898425409833, 130.35814170725644 154.14406526115317 M129.9819743297994 156.16858803321202 C85.21950508840382 157.29185830735196, 41.03146440535782 157.4306416430377, 0.20018204674124718 153.2732925324567 M130.82665853388608 153.9198035004415 C81.08841880783439 154.49606042735803, 33.67981660924852 153.683082219293, 0.4728656876832247 153.98532444265265 M0.007609453052282333 153.60162257243474 C-2.5603558548859184 108.03420772350255, 0.4501127472945625 65.900726132627, -0.3778548575937748 0.5681690908968449 M0.9370337594300508 153.8423157336988 C1.1703442116401024 122.52701739248415, 0.9284871001860924 90.28952170935057, 0.8368896711617708 -0.49868335016071796" stroke="#000000" stroke-width="1" fill="none"></path></g><g transform="translate(843.1731601731601 146.74422799422774) rotate(0 67.14285714285711 132.85714285714283)"><path d="M-1.22398916259408 0.8191324211657047 L134.6268163754471 1.3389734961092472 L135.87534497518618 266.7772972152701 L0.6281640194356441 263.8196678922644" stroke="none" stroke-width="0" fill="#ffffff"></path><path d="M0.9602365233004093 -0.4227837659418583 C27.01492914557456 -1.4146960845483199, 52.49879428371785 -0.2527382245553389, 133.23217844058354 0.7712196968495846 M0.9875453542917967 -0.19820298068225384 C37.78125826349214 -0.3700589714305742, 73.71277138936729 0.11995647570916579, 135.0594570043363 -0.6652293931692839 M132.93656180405554 1.1107407106361804 C131.8074705694743 98.990742195926, 131.79843137539092 197.6156149601367, 133.69129809091112 265.6740035170842 M134.77353812803287 0.4945354202507782 C134.67764003934732 80.40446482536754, 133.66808359545757 160.51754217644694, 134.17374902838444 266.0778377197204 M136.16858803321202 265.91295118044525 C101.92625658320523 266.6919679251632, 67.9248652271926 265.9023648110351, -1.012421753257513 267.1038342208734 M133.9198035004415 264.8347698149404 C102.30085265290519 266.5683172261076, 68.61499010798119 267.2972357189016, -0.30038984306156635 265.59617128941625 M-0.5407344311185127 264.2985326211261 C-0.9555025389456264 173.71540802842918, 0.886143668309839 79.49016619030877, 0.4491043878786319 -1.5095955677020816 M-0.3504805848815744 266.27431003866263 C-0.6996607108259804 194.32290877313082, -1.2408182519915876 122.85534321182747, -0.3941799797058238 0.04426819160543648" stroke="#000000" stroke-width="1" fill="none"></path></g><g transform="translate(131.56349206349273 185.54581529581543) rotate(0 34.5 12.5)"><text x="34.5" y="18" font-family="Virgil, Segoe UI Emoji" font-size="16px" fill="#000000" text-anchor="middle" style="white-space: pre;" direction="ltr">+3.3v (1)</text></g><g transform="translate(135.6262626262635 217.03066378066382) rotate(0 33 12.5)"><text x="33" y="18" font-family="Virgil, Segoe UI Emoji" font-size="16px" fill="#000000" text-anchor="middle" style="white-space: pre;" direction="ltr">GND (6)</text></g><g transform="translate(152.1262626262635 253.69733044733044) rotate(0 26.5 12.5)"><text x="26.5" y="18" font-family="Virgil, Segoe UI Emoji" font-size="16px" fill="#000000" text-anchor="middle" style="white-space: pre;" direction="ltr">TX (8)</text></g><g transform="translate(149.29292929293 289.69733044733044) rotate(0 27.5 12.5)"><text x="27.5" y="18" font-family="Virgil, Segoe UI Emoji" font-size="16px" fill="#000000" text-anchor="middle" style="white-space: pre;" direction="ltr">RX (10)</text></g><g transform="translate(463.9639249639256 185.12157287157305) rotate(0 8 12.5)"><text x="8" y="18" font-family="Virgil, Segoe UI Emoji" font-size="16px" fill="#000000" text-anchor="middle" style="white-space: pre;" direction="ltr">LV</text></g><g transform="translate(463.9639249639256 216.60642135642144) rotate(0 19 12.5)"><text x="19" y="18" font-family="Virgil, Segoe UI Emoji" font-size="16px" fill="#000000" text-anchor="middle" style="white-space: pre;" direction="ltr">GND</text></g><g transform="translate(463.9639249639256 253.27308802308806) rotate(0 14 12.5)"><text x="14" y="18" font-family="Virgil, Segoe UI Emoji" font-size="16px" fill="#000000" text-anchor="middle" style="white-space: pre;" direction="ltr">LV2</text></g><g transform="translate(463.9639249639256 289.27308802308806) rotate(0 14 12.5)"><text x="14" y="18" font-family="Virgil, Segoe UI Emoji" font-size="16px" fill="#000000" text-anchor="middle" style="white-space: pre;" direction="ltr">LV3</text></g><g transform="translate(567.4119769119777 185.12157287157294) rotate(0 8.5 12.5)"><text x="8.5" y="18" font-family="Virgil, Segoe UI Emoji" font-size="16px" fill="#000000" text-anchor="middle" style="white-space: pre;" direction="ltr">HV</text></g><g transform="translate(545.9119769119777 216.60642135642132) rotate(0 19 12.5)"><text x="19" y="18" font-family="Virgil, Segoe UI Emoji" font-size="16px" fill="#000000" text-anchor="middle" style="white-space: pre;" direction="ltr">GND</text></g><g transform="translate(555.4119769119777 253.27308802308795) rotate(0 14.5 12.5)"><text x="14.5" y="18" font-family="Virgil, Segoe UI Emoji" font-size="16px" fill="#000000" text-anchor="middle" style="white-space: pre;" direction="ltr">HV2</text></g><g transform="translate(555.9119769119777 289.27308802308795) rotate(0 14 12.5)"><text x="14" y="18" font-family="Virgil, Segoe UI Emoji" font-size="16px" fill="#000000" text-anchor="middle" style="white-space: pre;" direction="ltr">HV3</text></g><g transform="translate(462.16955266955324 336.0609668109668) rotate(0 67.5 32)"><text x="67.5" y="23" font-family="Virgil, Segoe UI Emoji" font-size="20px" fill="#000000" text-anchor="middle" style="white-space: pre;" direction="ltr">Level Shifter </text><text x="67.5" y="55" font-family="Virgil, Segoe UI Emoji" font-size="20px" fill="#000000" text-anchor="middle" style="white-space: pre;" direction="ltr">MT3608</text></g><g transform="translate(848.9163059163059 183.81421356421407) rotate(0 28.5 12.5)"><text x="28.5" y="18" font-family="Virgil, Segoe UI Emoji" font-size="16px" fill="#000000" text-anchor="middle" style="white-space: pre;" direction="ltr">(27) 5V</text></g><g transform="translate(848.9163059163059 214.58477633477668) rotate(0 38 12.5)"><text x="38" y="18" font-family="Virgil, Segoe UI Emoji" font-size="16px" fill="#000000" text-anchor="middle" style="white-space: pre;" direction="ltr">(29) GND</text></g><g transform="translate(848.9163059163059 249.1085858585862) rotate(0 26 12.5)"><text x="26" y="18" font-family="Virgil, Segoe UI Emoji" font-size="16px" fill="#000000" text-anchor="middle" style="white-space: pre;" direction="ltr">(2) RX</text></g><g transform="translate(848.9163059163059 285.822871572872) rotate(0 22.5 12.5)"><text x="22.5" y="18" font-family="Virgil, Segoe UI Emoji" font-size="16px" fill="#000000" text-anchor="middle" style="white-space: pre;" direction="ltr">(1) TX</text></g><g><g transform="translate(593.4877344877357 200.07828282828314) rotate(0 123.97701118959719 -1.2500098142433842)"><path d="M0.9284912623465063 -0.7982752718031406 C42.41374115067582 -1.4532966815644839, 207.15473014205003 -3.383217873779108, 247.9972119334555 -3.8970458936478733 M-0.04318955426104365 1.397026265161112 C41.438795236628984 0.8524863634759596, 206.11234459767357 -2.1558304692907084, 247.49770273489233 -2.9055697365917057" stroke="#c92a2a" stroke-width="1" fill="none"></path></g></g><g><g transform="translate(594.9163059163072 230.07828282828314) rotate(0 122.30677070980693 -0.8668458850256116)"><path d="M-0.7982752718031406 0.8543547905981541 C39.737179508911694 0.2682651534321735, 202.5691630786018 -2.3480804281220684, 243.24581124920923 -2.588046560649377 M0.9834914811607449 0.2572871103230865 C41.87703873293872 -0.307131838154139, 204.63935482591518 -1.2022458646637302, 245.4118166914169 -1.6593457537690075" stroke="#000000" stroke-width="1" fill="none"></path></g></g><g><g transform="translate(594.9163059163072 264.36399711399747) rotate(0 124.6794679288526 -0.7120640192267444)"><path d="M0.8543547905981541 -1.039903036504984 C41.93493182009882 -1.3156358182785084, 205.98525290521115 -2.304631594000841, 247.4119534393505 -2.4526719624442874 M-0.15624767367728065 1.0285439239908012 C41.193611007499086 0.9374191799870711, 207.97389181149447 -1.1359863926288585, 249.51518353138238 -1.4528994915062459" stroke="#e67700" stroke-width="1" fill="none"></path></g></g><g><g transform="translate(594.9163059163072 301.5068542568546) rotate(0 123.62657766428447 -1.4238743780353786)"><path d="M-1.039903036504984 -1.1594751320779324 C40.112935610292915 -1.6375365027004818, 204.8382255488563 -1.7764359187157648, 246.11875660898426 -2.0140134331371424 M0.615009139990434 0.8461964782420548 C42.200066787545076 -0.03847936375643679, 207.45967509305325 -3.3654879878191104, 248.29305836507382 -3.6939452343128414" stroke="#5c940d" stroke-width="1" fill="none"></path></g></g><g transform="translate(145.15656565656695 153.16919191919231) rotate(0 21.5 12.5)"><text x="21.5" y="18" font-family="Virgil, Segoe UI Emoji" font-size="16px" fill="#000000" text-anchor="middle" style="white-space: pre;" direction="ltr">GPIO</text></g><g transform="translate(124.18903318903381 153.7276334776338) rotate(0 42.240259740259944 89.99999999999994)"><path d="M1.4052157066762447 -0.8326230309903622 C18.4768645139412 -0.12308744974554964, 36.49086180143077 -0.031034155563725907, 84.4295578333372 0.030328843742609024 M0.6256446111947298 0.4910269808024168 C25.722821500551614 -1.3075535447651232, 51.07700408143682 -0.6630236656719529, 84.94045489419342 -0.4576465655118227 M84.67918494667948 1.7807169891893864 C85.45408153820874 72.88695154339071, 84.66447842408063 140.92248068377367, 85.87006798710765 178.89596149697888 M83.60100358117462 0.8880227040499449 C85.71245203640403 44.69183055497703, 86.44137052919807 88.93318227492267, 84.36240505565048 180.49859712831665 M82.68942776646556 178.21187088266004 C62.19757654526386 180.25280462010545, 37.098024976161774 180.27920697434587, -1.909813318401575 179.4013074375688 M85.18901514399887 179.79417179338623 C57.443177922290445 178.73495939675732, 30.30944893117283 179.12673124972744, 0.056004391983151436 179.38800541870285 M1.58963068947196 181.06301150098432 C0.3211721386760473 116.73319038748733, 0.5961213316768408 55.43349393829698, 0.32573315128684044 -0.5350542329251766 M-0.9830623995512724 180.59491126053024 C-0.38736521154642034 122.91967241652301, -0.3533815637230866 65.77023427747184, -0.04474670998752117 0.03156219236552715" stroke="#000000" stroke-width="1" fill="none"></path></g><g transform="translate(877.1950271950279 336.9998889998903) rotate(0 34.5 32)"><text x="34.5" y="23" font-family="Virgil, Segoe UI Emoji" font-size="20px" fill="#000000" text-anchor="middle" style="white-space: pre;" direction="ltr">Arduino</text><text x="34.5" y="55" font-family="Virgil, Segoe UI Emoji" font-size="20px" fill="#000000" text-anchor="middle" style="white-space: pre;" direction="ltr">nano</text></g><g transform="translate(323 43.49999999999994) rotate(0 175 28.5)"><text x="0" y="41" font-family="Virgil, Segoe UI Emoji" font-size="36px" fill="#000000" text-anchor="start" style="white-space: pre;" direction="ltr">Serial communication</text></g></svg>